<?xml version="1.0" standalone="no"?>
<!DOCTYPE svg PUBLIC "-//W3C//DTD SVG 1.1//EN" "http://www.w3.org/Graphics/SVG/1.1/DTD/svg11.dtd" >
<svg xmlns="http://www.w3.org/2000/svg">
<metadata></metadata>
<defs>
<font id="you_make_me_smilemedium" horiz-adv-x="516" >
<font-face units-per-em="2048" ascent="1638" descent="-410" />
<missing-glyph horiz-adv-x="423" />
<glyph horiz-adv-x="2048" />
<glyph horiz-adv-x="2048" />
<glyph unicode="&#xd;" horiz-adv-x="681" />
<glyph unicode=" "  horiz-adv-x="423" />
<glyph unicode="&#x09;" horiz-adv-x="423" />
<glyph unicode="&#xa0;" horiz-adv-x="423" />
<glyph unicode="!" horiz-adv-x="120" d="M82 1071q0 14 10 26.5t24.5 12.5t27 -10.5t12.5 -24.5q6 -106 9 -234t3 -214t-1 -242t-1 -221q0 -14 -11.5 -25.5t-25.5 -11.5t-25.5 11.5t-11.5 25.5q0 66 1 220.5t1 240.5t-3 213t-9 233zM98 26.5q0 14.5 11.5 25.5t26 11t25.5 -11t11 -25.5t-11 -25.5t-25.5 -11 t-26 11t-11.5 25.5z" />
<glyph unicode="&#x22;" horiz-adv-x="219" d="M51 858v244q0 14 11.5 25.5t25.5 11.5t25.5 -11.5t11.5 -25.5v-244q0 -14 -11.5 -25.5t-25.5 -11.5t-25.5 11.5t-11.5 25.5zM197 856v244q0 14 11 25.5t25.5 11.5t25.5 -11.5t11 -25.5v-244q0 -14 -11 -25.5t-25.5 -11.5t-25.5 11.5t-11 25.5z" />
<glyph unicode="#" horiz-adv-x="817" d="M84 270q4 47 43 80q45 39 86 19q47 -25 35 -103q-4 -23 -27 -28h6q35 4 92 18l19 4q-2 123 -10 215q-74 16 -123 4q-14 -4 -27.5 3t-16.5 22.5t4 29t23 15.5q57 14 131 2q-8 66 -20 125q-2 16 6 28.5t23.5 15.5t28 -5t16.5 -23q14 -76 24 -157q20 -6 64 -21 q57 -18 86 -25q-4 72 -4 154q0 14 11 25.5t25.5 11.5t25.5 -11.5t11 -25.5q0 -90 5 -170q39 -6 71 -4q18 96 64 127q33 18 59.5 10t40.5 -33q33 -51 0 -104q-37 -59 -131 -72q-45 -6 -98 0q4 -45 12 -88q92 0 164 -20q14 -4 21 -17.5t3 -28t-17 -21.5t-28 -3q-57 16 -131 17 q12 -66 29 -123q4 -14 -3 -27.5t-21.5 -18t-28 3t-17.5 21.5q-20 66 -35 141q-25 -2 -63 -6q-23 -2 -100 -22v-129q0 -14 -11.5 -25.5t-26 -11.5t-25.5 11t-11 26v108q-63 -16 -105 -20q-61 -6 -92 12q-59 37 -57 94zM158 266q0 -12 20 -24q7 -4 25 -6q-14 4 -22.5 16 t-6.5 27q2 10 2 18q0 -2 -2 -2q-14 -12 -16 -29zM403 455q6 -78 9 -174q66 18 92 20q36 4 59 4q-6 51 -10 107q-37 8 -115 32zM772 487q14 8 21 19q8 17 2 29q-12 -16 -23 -48z" />
<glyph unicode="$" horiz-adv-x="587" d="M236 252q20 45 71 55t98.5 -23.5t65.5 -107.5q2 -4 2 -6q45 12 70 37q55 53 43 86q-10 31 -72 65q-23 12 -63 31q-47 25 -62 31q-35 20 -53 37q-31 29 -27 61q6 55 49 75.5t95 18.5q102 -4 157 -57q12 -10 12.5 -25.5t-10 -26.5t-26 -11t-25.5 10q-37 33 -112 37 q-59 4 -66 -27q2 0 4 -2q10 -10 37 -25l59 -28q43 -20 66 -35q86 -47 106 -105q27 -78 -59 -163q-63 -61 -168 -64q-113 -2 -172 66q-43 47 -20 96zM303 223q-2 -8 6 -18q31 -33 88 -39q-12 45 -34.5 59.5t-40.5 10.5q-14 -4 -19 -13zM416 725v41q0 14 11 25.5t25.5 11.5 t25.5 -11.5t11 -25.5v-41q0 -14 -11 -25.5t-25.5 -11.5t-25.5 11.5t-11 25.5zM446 16q0 14 11.5 25.5t26 11.5t25.5 -11.5t11 -25.5v-47q0 -14 -11 -25.5t-25.5 -11.5t-26 11.5t-11.5 25.5v47z" />
<glyph unicode="%" horiz-adv-x="651" d="M289 -6q-4 14 2 29l172 301q119 199 174 301q8 12 22.5 16t27.5 -3t17 -21.5t-2 -28.5l-174 -301q-117 -199 -172 -301q-8 -12 -22.5 -16.5t-27.5 3t-17 21.5zM367 571.5q0 14.5 11 25.5t25.5 11t25.5 -11t11 -25.5t-11 -25.5t-25.5 -11t-25.5 11t-11 25.5zM606 82 q0 14 11.5 25.5t25.5 11.5t25.5 -11.5t11.5 -25.5t-11.5 -25.5t-25.5 -11.5t-25.5 11.5t-11.5 25.5z" />
<glyph unicode="&#x26;" horiz-adv-x="641" d="M61 381q8 43 33 63q74 53 158 9q61 -33 119 -119l10 -15q-8 117 -4 209q0 14 11 24.5t26.5 10.5t26 -11.5t10.5 -27.5q-6 -113 10 -280q14 0 196 14q14 0 25.5 -9t12.5 -24.5t-8 -27t-25 -13.5q-182 -12 -193 -14l6 -66q8 -37 8 -61v-10v-4q-2 -4 -2 -9q-4 -10 -14 -16 q-12 -10 -29 -8q-10 4 -18 12q-6 4 -8 10q-2 4 -2 9q-2 4 -2 8q-2 14 -7 53v4q-8 37 -26 78q-12 0 -27 2q-109 6 -174 33q-92 39 -111 117q-6 25 -2 59zM133 338q10 -41 68 -64q51 -22 137 -28q-12 25 -29 47q-47 70 -92 94q-43 25 -78 -4q-2 -6 -4 -14q-4 -20 -2 -31z" />
<glyph unicode="'" horiz-adv-x="133" d="M74 938l2 86q0 49 -2 82q0 14 9 25.5t24.5 12.5t26.5 -8.5t13 -25.5q2 -35 3 -88l-3 -84q0 -14 -11 -25.5t-25.5 -11.5t-25.5 11.5t-11 25.5z" />
<glyph unicode="(" horiz-adv-x="215" d="M43 554q6 298 160 570q8 12 22.5 16.5t27.5 -3t17 -22t-2 -28.5q-145 -256 -151 -534.5t139 -529.5q8 -12 5 -27.5t-16.5 -23t-28.5 -4.5t-21 18q-158 270 -152 568z" />
<glyph unicode=")" horiz-adv-x="157" d="M-33 2.5q-4 14.5 2 28.5q100 176 142.5 352t21 360.5t-116.5 352.5q-6 14 -2 28.5t17.5 21.5t28 3t22.5 -16q100 -182 123.5 -381t-21.5 -385.5t-149 -372.5q-8 -12 -22.5 -16.5t-28 3t-17.5 22z" />
<glyph unicode="*" horiz-adv-x="450" d="M93 747.5q3 14.5 16 22.5q45 29 120 84l-90 53q-12 8 -15 22.5t5 28t22.5 16.5t28.5 -5l84 -51v120q0 14 11.5 25.5t25.5 11.5t25.5 -11t11.5 -26v-108q55 39 102 65q14 6 28.5 2t22 -17t3 -27.5t-16.5 -22.5q-52 -27 -115 -72q70 -41 125 -78q12 -8 15.5 -23.5t-5 -27.5 t-23.5 -15t-28 5q-47 33 -110 69v-79q0 -14 -11.5 -25.5t-25.5 -11.5t-25.5 11t-11.5 26v77l-112 -77q-14 -8 -29 -5t-23 16t-5 27.5z" />
<glyph unicode="+" horiz-adv-x="415" d="M82 305q0 14 11 25.5t26 11.5q25 0 72 -1t57 -1q-2 84 2 143q0 14 12 24.5t26.5 10.5t25 -12.5t10.5 -26.5q-4 -59 -2 -139q57 2 104 8q14 2 26.5 -7t14.5 -24.5t-7 -28t-26 -14.5q-49 -6 -112 -8q2 -86 2 -123q0 -14 -11.5 -25.5t-26 -11.5t-25.5 11.5t-11 25.5 q0 37 -2 123q-14 0 -59.5 1t-69.5 1q-14 0 -25.5 11.5t-11.5 25.5z" />
<glyph unicode="," horiz-adv-x="169" d="M73 -135.5q-5 14.5 1 28t20 19.5q45 16 56 49q8 31 -5 90q-2 16 6.5 28.5t23.5 15.5t27.5 -5t16.5 -22q14 -80 0 -129q-20 -68 -100 -97q-14 -4 -27.5 2t-18.5 20.5z" />
<glyph unicode="-" horiz-adv-x="368" d="M98 263.5q-2 15.5 8.5 26.5t24.5 13q47 4 254 4q14 0 25.5 -11t11.5 -25.5t-11.5 -26t-25.5 -11.5q-203 0 -246 -4q-16 -2 -27.5 8.5t-13.5 26z" />
<glyph unicode="." horiz-adv-x="57" d="M35 39q0 14 11 25.5t25.5 11.5t26 -11.5t11.5 -25.5t-11.5 -25.5t-26 -11.5t-25.5 11.5t-11 25.5z" />
<glyph unicode="/" horiz-adv-x="765" d="M3 9.5q-3 15.5 3 27.5l189 309l170 268l206 316l181 278q8 12 23.5 15.5t27.5 -5t15 -23.5t-5 -28l-180 -276l-205 -316l-168 -268l-188 -307q-8 -14 -23.5 -17t-29 4t-16.5 22.5z" />
<glyph unicode="0" horiz-adv-x="419" d="M66 285q8 106 51 194q46 93 112 111q12 8 29 6q113 -25 169 -118t54 -208q-4 -109 -53 -186q-59 -94 -156 -92q-119 2 -172 100q-43 78 -34 193zM139 283q-6 -98 27 -156q33 -59 106 -61q55 0 93 57q41 61 43 150t-38 159t-114 90q-2 0 -4 -2q-35 -6 -68 -74 q-37 -74 -45 -163z" />
<glyph unicode="1" horiz-adv-x="339" d="M103 21.5q-3 15.5 4.5 28.5t23.5 16q43 12 92 14q0 37 2 175t2 214l-18 -25q-8 -12 -23.5 -15t-28 5t-15.5 23.5t5 27.5q8 10 28 37t30 43.5t18 34.5q6 14 19.5 19.5t27.5 -1.5q8 -2 15 -8q12 -10 12 -26q4 -76 4 -158t-2 -190.5t-2 -157.5q27 0 63 -4q14 -2 24.5 -13.5 t8.5 -27t-13 -25.5t-28 -8q-131 12 -205 -4q-14 -4 -27.5 3t-16.5 22.5z" />
<glyph unicode="2" horiz-adv-x="675" d="M94 63q0 12 8 27q4 4 11 14q2 4 4 7q37 78 180 202l65 60q23 18 45.5 43.5t28.5 44.5q16 43 2 59.5t-59 16.5q-47 2 -98.5 -18.5t-75.5 -49.5q-10 -10 -25.5 -12t-27 8t-13.5 25.5t8 27.5q37 43 104.5 68.5t129.5 23.5q76 0 113 -41q43 -51 12 -133q-8 -23 -23.5 -44 t-46 -51t-41.5 -38l-51 -45q-98 -86 -133 -135q59 12 133 2q33 -4 82 -29l59 -28q35 78 82 104q55 31 103 -6q39 -29 38 -86t-51 -92q-66 -47 -184 4q-14 8 -41 20l-37 19q-41 18 -59 20q-86 12 -135 -8q-2 0 -3 -1t-5.5 -4l-10.5 -7q-33 -25 -61 -11q-29 12 -27 43zM555 43 q39 -10 61 6q18 12 18.5 32.5t-11.5 27.5q-6 6 -19 -3q-24 -14 -49 -63z" />
<glyph unicode="3" horiz-adv-x="489" d="M66 127q-4 66 49 96q47 27 104 8q49 -16 83 -60t38 -112q80 16 109 54q35 45 16 110.5t-74 87.5q-27 12 -57 15l-17 -7q-43 -14 -65 15q-10 12 -10 28q2 16 12 27q8 8 22 17q4 0 9.5 2t7.5 4h4q70 53 65 102q0 12 -6 14q-8 4 -28 0q-49 -8 -84 -36q-10 -10 -25.5 -8.5 t-26 13t-8 27t14.5 25.5q47 39 114 53q45 8 76 -8q43 -20 47 -76q6 -70 -51 -127q18 -4 35 -10q88 -37 116.5 -137.5t-30.5 -175.5q-51 -68 -178 -84q-12 -12 -29 -11q-8 2 -16 7h-19q-76 2 -135 36.5t-63 110.5zM139 131q2 -35 35 -55.5t92 -22.5q-6 88 -69 109 q-27 8 -45 -2q-14 -8 -13 -29z" />
<glyph unicode="4" horiz-adv-x="602" d="M74 305v4v6q2 2 2 4.5t1 3.5t1 3l4 6l10 18l35 70q53 104 72 153q6 12 19 18.5t27.5 1.5t20.5 -17.5t2 -26.5q-20 -51 -75 -162l-25 -47q14 0 27 -4q20 -6 108 -37q33 -14 57 -23q-2 125 -2 267q0 14 11.5 24.5t26 10.5t25.5 -10.5t11 -24.5q0 -154 2 -287q25 -4 45 -4 q-10 10 -10 24q2 70 31 107q33 41 82 31q39 -10 60.5 -48t6.5 -79q-29 -78 -104 -101q-45 -10 -109 -2l4 -141q0 -16 -10 -26.5t-25.5 -10.5t-26.5 10.5t-11 22.5l-5 164q-35 10 -88 28q-82 31 -100 37q-2 0 -24 -2q-43 -4 -66 17q-4 6 -7 12t-3 10zM541 274q27 14 39 52 q4 12 -2.5 23t-14.5 13l-4 -4q-14 -18 -16 -71q0 -7 -2 -13z" />
<glyph unicode="5" horiz-adv-x="565" d="M90 94q-23 68 4 107q37 53 90 57q43 2 88 -31q33 -27 59.5 -65.5t35.5 -71.5q6 -18 -7 -33q115 6 162 39q72 51 31 156q-16 49 -52 86t-73 47q-51 14 -117 -6l-2 -2q-4 -4 -12 -8q-33 -23 -61 -9q-25 12 -25 41q0 12 6 25l8 14l2 4q16 57 21 68q14 33 67 49q31 8 84 14 q23 2 58 4.5t56.5 5.5t33.5 5q14 4 27.5 -3t17.5 -21.5t-3.5 -28t-21.5 -17.5q-16 -6 -42.5 -9t-64.5 -5t-52 -4q-47 -4 -72 -13l-23 -10q-4 -10 -8 -26q80 20 144 2q55 -14 103 -64.5t71 -111.5q27 -57 14.5 -129t-74.5 -115q-35 -25 -104.5 -39t-141.5 -12q-80 2 -135 24 q-74 29 -92 86zM156 160q-6 -8 4 -41q8 -27 49 -41q37 -17 94 -19q-4 6 -6 15q-6 18 -25.5 47t-44.5 47q-23 16 -40 15t-31 -23z" />
<glyph unicode="6" horiz-adv-x="473" d="M118 183.5q-3 66.5 9 135.5q29 109 104.5 188t178.5 79q14 0 25 -11.5t11 -25.5t-11 -25.5t-25 -11.5q-70 0 -128.5 -60.5t-82.5 -148.5q-29 -113 16 -188q18 86 74.5 129t122.5 37q84 -8 108 -80q27 -74 -45 -164q-76 -96 -192 -60q-76 23 -119 81.5t-46 125zM283 55 l20 -8q70 -20 115 35q45 59 33 96q-8 27 -45 29q-43 4 -82 -33t-41 -119z" />
<glyph unicode="7" horiz-adv-x="483" d="M82 455q-27 49 10 94q16 16 49 26q23 8 58 11q55 6 139 4q66 -2 131 -8q25 -2 41 -4q8 0 14 -3q2 0 5 -1t6 -1q2 -2 6 -2q8 -6 12 -14q8 -10 8 -27v-22q-2 -23 -8 -59q-10 -55 -33 -164q-57 -272 -57 -283q-2 -14 -13.5 -24.5t-26.5 -8.5t-25.5 13.5t-8.5 27.5 q0 14 60 291q23 106 30 160q6 29 8 45q-12 2 -26 2q-61 6 -125 8q-35 2 -68 0q0 -59 -30 -90q-35 -37 -88 -23q-45 12 -68 52zM147 489q6 -10 21 -14q12 -4 16 2q11 8 11 35q-20 -2 -33 -6l-12 -6q-4 -4 -3 -11z" />
<glyph unicode="8" horiz-adv-x="364" d="M113 94q-2 61 41 144q12 25 30 51q-33 39 -45 73q-18 51 -12 89q10 55 44 86.5t83 33.5q43 2 83 -21.5t60 -66.5q15 -27 -12 -45q-2 -10 -8 -18q-84 -100 -101 -125l9 -8q78 -78 98 -117q23 -45 19.5 -91t-31.5 -81q-29 -37 -75 -46t-101 17q-80 43 -82 125zM185 103 q1 -46 46 -68q51 -29 82 10q33 45 4 102q-15 31 -81 101q-10 -16 -17 -31q-35 -68 -34 -114zM201 449q-4 -18 8 -50q6 -12 18 -30q12 16 92 102q2 2 3 2q-27 33 -66 31q-45 -2 -55 -55z" />
<glyph unicode="9" horiz-adv-x="454" d="M63 375q-10 88 89 164q57 45 114 43q51 -2 111 -41q51 -35 75.5 -95.5t21.5 -125t-23 -125.5q-35 -102 -110 -173t-173 -71q-14 0 -25.5 11t-11.5 26.5t11.5 27t25.5 11.5q70 0 127 53t86 139q43 125 -4 211q-16 -94 -72 -139q-68 -59 -149 -31q-37 14 -62.5 44t-30.5 71 zM137 377q2 -37 43 -52.5t78 17.5q47 41 53 147q-27 12 -47 15q-31 0 -67 -29q-66 -51 -60 -98z" />
<glyph unicode=":" horiz-adv-x="204" d="M180 104.5q0 14.5 11.5 25.5t25.5 11t25.5 -11t11.5 -25.5t-11.5 -25.5t-25.5 -11t-25.5 11t-11.5 25.5zM182 374.5q0 14.5 11.5 26t25.5 11.5t25.5 -11.5t11.5 -26t-11.5 -25.5t-25.5 -11t-25.5 11t-11.5 25.5z" />
<glyph unicode=";" horiz-adv-x="73" d="M9 -78.5q-3 15.5 5 27.5q39 59 39 117q0 14 11.5 25t25.5 11t25.5 -11t11.5 -25q0 -78 -51 -158q-8 -12 -23.5 -15.5t-28 5t-15.5 24zM53 235.5q0 14.5 11.5 25.5t25.5 11t25.5 -11t11.5 -25.5t-11.5 -25.5t-25.5 -11t-25.5 11t-11.5 25.5z" />
<glyph unicode="&#x3c;" horiz-adv-x="448" d="M154 322q4 20 28 45l45 43q74 74 148 184q8 12 23.5 15t27.5 -5t15 -23.5t-5 -27.5q-76 -115 -155 -197l-45 -41l32 -20q117 -70 221 -139q12 -8 15.5 -23.5t-4.5 -28t-23.5 -15.5t-27.5 5q-94 66 -218 137q-39 23 -51 33q-33 25 -26 58z" />
<glyph unicode="=" horiz-adv-x="561" d="M274 416.5q2 15.5 13.5 26t27.5 8.5q53 -6 129 -7q20 0 65.5 1t68.5 1q14 0 25 -11t11 -25.5t-11 -25.5t-25 -11q-23 0 -68 -1t-66 -1q-80 0 -137 6q-14 2 -24.5 13t-8.5 26.5zM287 267.5q2 15.5 13.5 25.5t27.5 8q94 -8 241 6q16 2 27.5 -8t13.5 -25.5t-8 -26.5t-24 -14 q-156 -14 -259 -6q-14 2 -24 13.5t-8 27z" />
<glyph unicode="&#x3e;" horiz-adv-x="450" d="M178 592.5q0 15.5 10.5 27t25.5 11.5t26 -10q43 -37 200 -168q35 -29 47 -41q27 -33 11 -64q-8 -16 -37 -37q-4 -2 -13.5 -9t-18.5 -13t-19 -13q-84 -63 -164 -159q-10 -12 -25.5 -14.5t-27 8t-13.5 26t8 25.5q86 106 179 174q10 6 19 13t19.5 13.5t14.5 10.5 q-8 8 -27 22q-129 104 -203 172q-12 10 -12 25.5z" />
<glyph unicode="?" horiz-adv-x="561" d="M172 805q16 72 96 113q72 35 156 28q90 -8 145 -59q66 -63 52 -164q-6 -49 -37 -93t-57.5 -64.5t-73.5 -53.5q-49 -33 -71 -49.5t-44.5 -44t-28.5 -56.5q-8 -35 -8 -90q2 -90 2 -104t-11 -24.5t-26.5 -10.5t-26 11.5t-10.5 27.5q0 10 -2 98q0 66 9 109q8 33 24 61.5 t50 57t46 39.5q6 4 56 36q63 43 96 78t39 80q8 66 -29 103q-37 33 -100 38q-37 2 -74 -6q12 -74 -6 -118q-20 -49 -70 -54q-43 -4 -73.5 30t-22.5 81zM238 49q0 14 11 25.5t25.5 11.5t25.5 -11.5t11 -25.5t-11 -25.5t-25.5 -11.5t-25.5 11.5t-11 25.5zM246 788q-2 -8 4 -15 t12 -5q4 0 8 8q8 21 4 58q-25 -20 -28 -46z" />
<glyph unicode="@" horiz-adv-x="944" d="M131 311q-16 193 82 343.5t254 219.5q74 33 150.5 41.5t148.5 -9t132 -69t95 -132.5q23 -61 17 -131t-37 -134q-35 -66 -93.5 -104.5t-129.5 -30.5q-78 10 -111 94q-2 8 -6 21q-25 -33 -47 -55q-41 -45 -80 -66q-59 -29 -109 -4q-45 18 -57 61q-12 35 2 80q18 61 74 129 q-6 20 -8 43q0 14 10 26.5t24 12.5q23 2 35 -18q53 49 105 71q100 49 147 -14q39 -49 -18 -108q-33 -35 -84 -58q10 2 20 -2q29 -8 45 -45q4 -8 8 -24l9 -23q16 -43 49 -47q92 -12 149 96q25 49 30 104.5t-13 96.5q-35 84 -104.5 128t-151.5 42t-170 -39 q-137 -59 -222.5 -190.5t-70.5 -297.5q10 -121 104 -180t230 -59q43 0 86 8q-2 76 55 132t139 61q20 0 37 -5q37 -10 43 -43q14 -102 -111 -170q-37 -20 -83 -32q-6 -18 -23 -25q-23 -8 -39 10q-51 -10 -104 -10q-70 0 -136.5 16.5t-126 50t-98.5 96t-47 142.5zM410 379 q4 -12 16 -19q20 -8 47 7q27 12 59 47q23 25 52 61l16 23q4 6 6 10l8 6h2l-8 -2q-70 -29 -123 -12l-20 8q-41 -51 -53 -92q-6 -23 -2 -37zM520 567q27 0 62 13q47 18 75 49q9 8 11 14q-14 10 -56 -8q-43 -20 -92 -68zM700 106q29 10 54 23q65 35 71 78h-2q-49 -2 -82.5 -31 t-40.5 -70z" />
<glyph unicode="A" horiz-adv-x="614" d="M119 188q12 86 65 174q-12 12 -24 29q-8 12 -5 26.5t15 24t26.5 6t24.5 -15.5l6 -8q39 51 84 80q52 34 102 34q34 0 68 -16q33 -14 43 -47q8 -29 -4 -59q-20 -53 -82 -90q-53 -33 -108 -33q-13 0 -27 2q-33 4 -61 20q-39 -72 -49 -137q-4 -22 -4 -40q0 -39 18 -58 q26 -29 58 -28q23 0 48 14q59 31 101.5 102.5t50.5 120.5v30v5v2q0 4 2 10t8 10q14 16 35 12q14 -4 22 -16q2 -2 5 -6l2 -8v-4v-13q2 -16 0 -26q4 -88 20 -146q14 -47 33.5 -66.5t46.5 -15.5q16 2 29 -7q12 -8 14 -24v-6q0 -12 -7 -22q-9 -12 -24 -14q-13 -2 -24 -2 q-100 0 -140 137q-2 8 -4 20l-6 -8q-51 -88 -127 -131q-45 -24 -85 -24q-61 0 -111 55q-39 40 -39 110q0 22 4 47zM283 377q14 -6 30 -8q8 -1 16 -1l70 21q41 23 52 53q3 5 3 8q0 2 -1 3q0 2 -4 4q-15 7 -32 7q-30 0 -65 -24q-36 -22 -69 -63z" />
<glyph unicode="B" horiz-adv-x="512" d="M90 768q-4 9 -4 18q0 14 12 25q2 164 21 256q12 61 31 96q29 44 71 44q5 0 10 -1q76 -12 84 -96q1 -10 2 -21q0 -51 -24 -118q-25 -72 -68 -135q-27 -39 -53 -64q0 -135 12 -371l15 27q66 115 157 121h8q77 0 136 -78q35 -49 49 -111q6 -29 7 -60q0 -36 -10 -76 q-16 -72 -65 -130q-66 -74 -127 -90q-63 -18 -112 -18q-46 0 -80 16q-14 0 -23 8q-8 6 -12 15q-2 4 -4 10q0 6 -2 18q0 4 -1 19.5t-1 19.5q-4 47 -4 117v49v64q0 2 -8.5 160.5t-8.5 271.5q-6 6 -8 14zM174 893q31 49 49 102q22 57 22 95q0 6 -1 12q-4 29 -25 31l-6 -9 q-12 -23 -23 -71q-12 -62 -16 -160zM199 150q3 -39 3 -64q0 -12 -1 -20q18 -6 43 -6q37 0 90 14q41 12 90 69q39 43 51 99q7 30 7 58q0 23 -5 44q-10 47 -37 82q-36 49 -77 49h-3q-51 -2 -96 -84q-43 -76 -59 -147q-6 -26 -6 -71v-23z" />
<glyph unicode="C" horiz-adv-x="464" d="M89 284q22 79 75 142q-10 14 -19 31q-6 16 -2 31q3 14 17 21q9 4 18 4q4 0 10 -1q14 -4 23 -16q4 -10 8 -17q29 18 57 27q18 5 35 5q52 0 84 -48q18 -28 18 -54q0 -21 -12 -40q-25 -39 -77 -39q-55 0 -109 43q-41 -51 -57 -111q-7 -27 -6 -56q0 -35 10 -71 q29 -81 117 -82q11 0 24 2q49 6 95 32t73 60q8 12 23.5 14.5t27.5 -7.5q15 -11 15 -30q0 -13 -9 -24q-35 -45 -95 -78.5t-122 -39.5q-15 -2 -30 -2q-56 0 -103 24q-59 30 -86 107q-13 50 -13 96q0 40 10 77zM272 424q27 -16 52 -16q12 0 16 4q-2 4 -6 10q-9 14 -26 14 q-6 0 -13 -2q-10 -4 -23 -10z" />
<glyph unicode="D" horiz-adv-x="501" d="M106 268q6 78 44 142q30 48 76 76q35 21 76 22q12 0 24 -2q75 -8 141 -86q0 68 10 385q-63 33 -92 101q-27 64 -27 129v9q2 74 33 113q20 29 51 33q5 1 10 1l52 -17q29 -23 39 -84q8 -43 10 -107q1 -15 1 -40q0 -50 -3 -138q0 -14 -4 -127t-4 -143.5t-1 -124.5v-82.5 v-60.5q1 -50 5 -122.5t10 -134.5v-5q0 -13 -8 -23q-9 -12 -25 -13h-5q-13 1 -23 9q-12 10 -13 24v8q-58 -35 -117 -35q-44 0 -90 19q-92 40 -134 118q-37 69 -37 138q0 9 1 18zM179 264v-11q0 -53 29 -105q32 -56 97 -85q30 -13 59 -13l109 44q0 2 2 2q-6 88 -8 189 q-72 139 -150 149q-6 1 -12 1q-53 0 -92 -64q-31 -49 -34 -107zM432 1042v-13q0 -84 47 -134q1 22 1 43.5t-1 40.5q-2 59 -8 96l-12 37l-6 4l-2 -2q-16 -23 -19 -72z" />
<glyph unicode="E" horiz-adv-x="518" d="M109 240q12 92 67 174q59 84 129 100q20 4 36 4q57 0 81 -47q11 -20 11 -45q0 -31 -17 -70q-27 -61 -89.5 -110t-142.5 -53h-4q0 -51 27 -84q42 -52 145 -52h4q90 2 160 107q8 12 23.5 15t28 -5t15.5 -24q1 -4 1 -8q0 -11 -6 -19q-90 -135 -222 -137h-7q-136 0 -199 75 q-44 56 -44 136q0 21 3 43zM190 272q53 6 96.5 39t61.5 74q11 25 11 40q0 8 -3 13l-2 2q-2 2 -10 3h-3q-7 0 -19 -3q-41 -8 -84 -67q-34 -46 -48 -101z" />
<glyph unicode="F" horiz-adv-x="409" d="M72 677q0 15 11.5 25.5t27.5 10.5q18 -1 37.5 -1t41.5 1l-10 125q-13 138 -13 195q0 14 1 24q10 88 63 119q23 13 47 13q32 0 66 -22q54 -31 78 -95q12 -32 12 -67q0 -34 -12 -69q-4 -14 -18.5 -20.5t-29 -2t-20.5 18.5t-2 29q8 22 8 43.5t-8 41.5q-16 40 -45 58 q-25 14 -39 6q-23 -10 -26 -61q-1 -9 -1 -24q0 -52 11 -181l14 -129q68 2 103 2q14 0 25.5 -11.5t11.5 -25.5t-11.5 -25.5t-25.5 -11.5q-35 0 -97 -2q6 -74 13 -129q8 -106 12 -184l35 6q16 2 28.5 -7.5t14.5 -24.5t-7.5 -27.5t-23.5 -14.5l-45 -6v-33v-31q-2 -72 -10 -116 q-14 -61 -47 -80q-22 -14 -43 -14q-7 0 -15 2q-28 6 -47 32q-25 33 -25 86q0 9 1 19q2 57 29.5 113.5t80.5 84.5q-4 70 -12 189q-4 61 -12 133q-26 -1 -49.5 -1t-43.5 1q-14 0 -24 11.5t-10 26.5zM186 117q0 -6 -1 -11q0 -34 12 -52q2 0 2 -1q2 2 6 1v3q2 2 5 10.5t5 20.5 q8 39 10 105v32q-37 -43 -39 -108z" />
<glyph unicode="G" horiz-adv-x="479" d="M66 236q8 61 36 118q47 88 134 136q56 31 120 31q34 0 70 -9q8 4 16 4t15 -4q8 -4 12 -9t6 -9l2 -5q0 -4 2 -8q4 -33 19 -383q6 -156 6 -252q1 -28 1 -49t-1 -37v-22q23 -31 33 -68q2 -5 2 -11q0 -8 -5 -17q-6 -13 -21 -17q-6 -2 -12 -2q-8 0 -17 4q-13 6 -17 23 q-4 8 -8 18q-12 -10 -33 -18q-45 -18 -96 -23q-10 -1 -20 -1q-43 0 -77 14q-55 20 -67 71q-4 20 -4 37q0 55 43 86q33 24 82 24q17 0 37 -3q57 -8 110 -45q-2 16 -2 34q0 96 -6 250l-2 41q-20 -41 -49 -69q-61 -66 -128 -66q-39 0 -81 23q-57 35 -83 93q-20 44 -20 89 q0 15 3 31zM134 184q9 -65 65 -96q22 -13 44 -13q38 0 76 40q59 63 66 145q2 29 4 82q4 55 6 86q0 6 2 14q-21 4 -41 4q-51 0 -95 -26q-62 -35 -99 -101q-30 -56 -30 -109q0 -13 2 -26zM236 -272q2 -12 20 -21q20 -6 46 -6q10 0 20 1q40 3 73 15l21 11q-47 45 -107 55 q-13 2 -25 2q-26 0 -40 -10q-11 -8 -11 -26q0 -9 3 -21z" />
<glyph unicode="H" horiz-adv-x="475" d="M55 877.5q0 15.5 10.5 26.5t24.5 11q12 0 27 5v24v23v30q0 47 6 80q6 51 24 82q27 43 70 43h8q66 -6 78 -78q2 -13 1 -26q0 -41 -17 -90q-35 -86 -99 -134q-2 -52 -2 -124q0 -108 4 -263v-36q47 68 121 84q14 3 28 2q64 0 107 -62q37 -53 58 -153q22 -110 22 -280v-15 q0 -14 -11 -25.5t-25.5 -11.5t-25.5 11t-11 26q0 172 -23 280q-16 86 -43 127q-20 28 -47 28q-6 0 -12 -1q-72 -14 -107 -113q-23 -61 -26 -145q0 -94 -5 -172q0 -10 -1 -12.5t-1 -4.5q-2 -6 -4 -10q-6 -8 -14 -12q-9 -5 -18.5 -5t-18.5 5q-4 4 -8 9t-6 7v4q-2 2 -2 6v2v5v4 v37q2 82 2 98q0 20 2 41q0 90 -4 282q-4 154 -4 252q0 65 2 105q-10 -2 -21 -2q-16 0 -27.5 10t-11.5 25.5zM190 983q16 25 27 51q13 36 13 62q0 9 -1 16q-2 16 -8 16t-10 -8q-10 -16 -16 -53q-4 -29 -5 -72v-12z" />
<glyph unicode="I" horiz-adv-x="256" d="M108 318q1 46 3 94.5t2 58.5q0 14 11 25.5t25.5 11.5t25.5 -11.5t11 -25.5q0 -10 -2 -57q-2 -48 -3 -94v-32q0 -34 1 -73q2 -90 13 -135q6 -16 12 -27q10 4 16 21l6 30q4 31 4 39q4 14 16.5 22.5t28 5.5t23.5 -15q6 -10 6 -23v-6q-2 -4 -5 -30.5t-9 -41.5 q-18 -66 -80 -75q-6 -1 -11 -1q-30 0 -52 27q-16 20 -25 57q-14 51 -16 150q-1 39 -1 73v32zM115 606.5q0 14.5 11 25.5t25.5 11t25.5 -11t11 -25.5t-11 -26t-25.5 -11.5t-25.5 11.5t-11 26z" />
<glyph unicode="J" horiz-adv-x="221" d="M-86 -246q-2 14 -2 27q0 62 39 104q39 39 110 54q33 6 72 8q-4 35 -4 59q-2 74 -2 228.5t-4 234.5q0 16 10 27.5t25.5 11.5t27 -10.5t11.5 -24.5q4 -82 4 -236.5t2 -226.5q0 -18 4 -65q41 -2 84 -8q14 -2 23 -15q8 -9 8 -21v-7q-3 -15 -15 -24t-28 -7q-35 6 -68 8v-22 q0 -43 -6 -74q-20 -84 -99 -119q-35 -16 -66 -16q-48 0 -89 36q-29 27 -37 78zM-12 -236q2 -25 12 -30q22 -20 47 -20q14 0 29 7q45 20 55 68q6 26 6 62v18q-35 0 -61 -6q-49 -10 -72 -33q-17 -18 -17 -49q0 -8 1 -17zM119 594q0 14 11 25.5t25.5 11.5t26 -11.5t11.5 -25.5 t-11.5 -25.5t-26 -11.5t-25.5 11.5t-11 25.5z" />
<glyph unicode="K" horiz-adv-x="395" d="M-22 796q4 14 18 21q16 8 53 41v12q0 125 25 201q31 106 106 129q12 4 24 4q22 0 46 -12q49 -27 49 -82q0 -19 -6 -41q-16 -55 -72 -131q-43 -57 -98 -113q0 -68 8 -155q2 -33 6 -81t6 -63q2 -20 2 -41q43 53 119 60q10 1 20 0q79 0 117 -56q23 -34 23 -75q0 -27 -10 -58 q-23 -59 -81 -96q-50 -32 -118 -32q-11 0 -22 1q27 -74 85 -121t138 -51q14 0 24.5 -11t10.5 -26.5t-11.5 -25.5t-27.5 -10q-162 8 -252 149q2 -61 4 -110q0 -14 -10.5 -26.5t-24.5 -12.5t-26.5 10t-12.5 24q-4 72 -9 242t-11 262q0 12 -5.5 60.5t-7.5 81.5q-4 53 -6 100 q-12 -8 -22 -12q-14 -6 -28.5 -2t-20.5 18q-4 8 -4 17q0 5 2 11zM125 936q18 23 37 47q47 66 59 104q8 31 -8 39q-8 4 -12 4q-37 -12 -58 -79q-14 -45 -18 -115zM174 305q20 -3 37 -3q43 0 75 18q44 24 58 63q6 17 6 31q0 18 -10 32q-16 25 -59 25h-13q-50 -4 -76 -50 q-20 -35 -20 -85q0 -15 2 -31z" />
<glyph unicode="L" horiz-adv-x="268" d="M51 573q-1 48 -1 93q0 136 13 254q20 172 66 229q31 39 64 43h7q34 0 54 -37q22 -41 31 -145q3 -35 3 -137q0 -51 -1 -119q0 -53 -7.5 -153.5t-7.5 -121.5q-12 -252 -47 -405l4 -4q12 -10 64 -17q15 -2 25 -13q9 -9 8 -22q0 -18 -14 -30q-9 -8 -20 -9q-3 0 -7 1l-17 2 q-14 0 -21 2t-19.5 5t-23.5 9t-24 14q-10 10 -22 25q-4 6 -6 10q-39 63 -66 186q-29 147 -35 340zM125 565q6 -190 33 -332q8 -33 14 -61q18 119 27 299q2 23 8 122t6 155q1 68 1 119q0 102 -3 134q-6 80 -18 111q-2 -4 -7 -8q-33 -45 -51 -199q-12 -109 -11 -239 q-1 -49 1 -101z" />
<glyph unicode="M" horiz-adv-x="819" d="M69 478q3 14 16 22t27.5 5t22.5 -16q10 -16 29 -59q4 6 10 12q52 69 118 69q8 0 17 -1q82 -12 135 -113q0 4 2 6q68 103 158 103h10q166 -10 207 -199q12 -58 13 -173q0 -51 -3 -114q0 -14 -11 -24t-26.5 -10t-25.5 11t-10 28q3 63 3 114q0 101 -11 152q-29 135 -140 141 h-7q-49 0 -93 -67q-2 -2 -2 -9q-2 -12 -2 -32q-2 -37 -2 -99q0 -43 2 -101t2 -63v-10q0 -4 -1 -7t-1 -5q-6 -12 -17 -19q-25 -14 -45 7q-4 4 -8 12l-2 8v4q0 2 -2 6q0 14 -2 47q-2 51 -4 80q-4 80 -37 156q-39 88 -92 96q-4 1 -7 1q-28 0 -57 -40q-18 -23 -34 -57 q29 -78 45 -145q22 -81 23 -132q0 -16 -3 -28q-8 -47 -43 -60q-10 -4 -20 -4q-26 0 -58 21q-51 31 -57 127q-1 16 -1 32q0 64 19 136q6 29 17 53q-33 86 -47 109q-6 10 -6 21q0 4 1 8zM160 123q4 -57 20 -70q7 -2 13 -6q1 6 1 13q0 40 -20 116q-6 16 -10 35q-4 -37 -4 -68 v-20z" />
<glyph unicode="N" horiz-adv-x="552" d="M78 451q-2 6 -2 13q0 8 3 16q5 14 19.5 19t28.5 0t20 -20q16 -39 33 -90q35 45 74 72q59 44 116 44q15 0 29 -3q121 -27 156 -223q15 -84 15 -197q0 -34 -1 -70q0 -14 -11 -24.5t-26.5 -10.5t-25.5 11.5t-10 27.5q1 36 1 69q0 105 -14 181q-27 147 -100 162q-7 2 -15 2 q-33 0 -71 -28q-47 -34 -86 -99l27 -88q21 -83 22 -136q0 -14 -2 -26q-6 -43 -31 -63q-19 -18 -46 -18q-14 0 -29 5q-33 8 -54 50q-19 45 -19 96q1 19 3 39q10 72 49 149q-27 76 -53 140zM164 59l8 -12q6 -2 8 -2q2 4 4 16q1 7 1 14q0 43 -19 122l-2 2q-14 -45 -14 -80 t14 -60z" />
<glyph unicode="O" d="M77 192q-1 13 -1 26q0 53 10 106q27 109 94 161q43 33 91 33q21 0 42 -6q23 -2 33 -6q90 -35 133 -129q23 10 37 16t28 2q15 -3 21 -19q4 -9 4 -19q0 -6 -2 -11q-4 -14 -18 -22q-18 -10 -47 -19q8 -37 9 -73q0 -26 -5 -52q-16 -106 -84 -162q-53 -44 -120 -44 q-33 0 -69 10q-72 20 -112.5 81t-43.5 127zM156 293q-9 -36 -9 -70q0 -43 14 -81q25 -68 93 -89q24 -7 46 -6q44 0 75 27q45 37 57 110q4 21 4 42q0 26 -6 53q-33 -3 -63 -3h-15q-66 4 -104.5 32t-48.5 73q-29 -35 -43 -88zM268 426q0 -33 23 -53q23 -16 67 -23q10 -1 21 -1 t22 1q-23 43 -53 66q-14 -2 -24 6q-12 8 -27 14q-4 0 -8 2h-19q-2 -4 -2 -12z" />
<glyph unicode="P" horiz-adv-x="497" d="M73 272q3 14 15 25q22 16 45 -4q23 66 51 110q65 99 151 99q22 0 46 -6q115 -32 145 -156q10 -40 10 -80q0 -67 -28 -135q-49 -119 -146 -148q-26 -8 -53 -8q-23 0 -47 6q14 -109 14 -189v-19q-2 -63 -16 -93q-12 -29 -35 -36q-8 -2 -17 -2q-19 0 -38 12q-66 49 -84 202 q-5 50 -5 104q0 91 15 189q4 29 10 58q-12 23 -28 45q-6 9 -6 19q0 3 1 7zM158 31q-3 -39 -2 -76q0 -49 4 -94q10 -94 39 -135q2 18 4 43v18q0 85 -17 203q-2 12 -2 22q-14 8 -26 19zM186 213q43 -76 62 -154q32 -16 60 -16q17 0 32 6q63 18 100 103q22 55 22 108 q0 32 -8 62q-20 82 -94 104q-10 3 -21 3q-49 0 -91 -64q-37 -58 -62 -152z" />
<glyph unicode="Q" horiz-adv-x="579" d="M137 219q10 96 66 178q63 90 147 111q23 6 45 6q79 0 154 -68q10 -8 11 -23t-7 -28q6 -4 12 -10q2 -4 6 -10q8 -20 7 -62q-2 -31 -9 -82q-4 -27 -13 -95t-15 -107q12 -4 18 -15q84 -121 84 -264q0 -70 -27 -102q-23 -25 -53 -25q-27 0 -53 23q-51 39 -57 161v19 q0 79 14 203q4 30 10 71q-41 -47 -90 -73q-35 -20 -69 -27q-14 -3 -28 -3q-22 0 -45 7q-38 12 -69 45q-41 49 -41 130q0 19 2 40zM211 211q-2 -18 -2 -34q0 -51 24 -79q22 -28 55 -28q27 0 62 20q37 20 68 53q29 35 41 66q18 43 33 113q2 0 4 28q0 14 2 21.5t6 13.5l2 2 l-6 6q-53 46 -104 46q-14 0 -27 -3q-57 -14 -105 -82q-45 -66 -53 -143zM526 -190q4 -86 29 -107q4 -2 6 -4q8 16 8 51q0 82 -39 168q-4 -47 -4 -84v-24z" />
<glyph unicode="R" horiz-adv-x="454" d="M127 444q4 16 17.5 21.5t28.5 1.5t22 -18l20 -39q59 90 133 100q11 2 21 2q78 0 147 -92q6 -10 6 -21v-7q-2 -16 -14 -25t-27.5 -7t-25.5 15q-45 64 -87 64q-4 0 -8 -1q-43 -6 -84 -69q-10 -16 -20 -37q59 -121 58 -210q0 -14 -1 -28q-4 -33 -21.5 -64.5t-43.5 -45.5 q-18 -11 -35 -11q-20 0 -37 15q-29 20 -41 71q-7 32 -7 67q0 92 46 204l-45 86q-4 7 -4 16q0 6 2 12zM209 76q2 -17 8 -25q18 18 23 51q1 10 1 21q0 48 -22 108q-16 -59 -16 -105q0 -27 6 -50z" />
<glyph unicode="S" horiz-adv-x="561" d="M88 115q-5 18 -5 33q0 45 40 69q24 16 55 16q22 0 47 -8q51 -14 92 -58t54 -110q43 4 78 17q51 18 63 43q9 20 9 38q1 21 -13 41q-24 34 -90 66q-27 14 -119 49q-33 12 -49 23q-31 14 -39 35q-9 22 -9 40q0 37 34 64q33 25 98 33q26 2 51.5 2t51.5 -2q52 -4 79 -14 q14 -6 20.5 -20.5t0 -29t-21 -19.5t-28.5 -1q-16 8 -57 11q-18 1 -36 1q-25 0 -52 -2q-41 -6 -57 -18q-8 -4 -6 -13q2 -2 8 -4q12 -6 41 -16q94 -37 127 -53q80 -39 114 -88q28 -39 28 -83q0 -34 -17 -69q-25 -55 -103 -84q-65 -22 -142 -22h-7q-84 2 -148 30 q-76 35 -92 103zM156 131q10 -31 59 -51q35 -17 84 -21q-10 37 -36.5 62.5t-57.5 34.5q-16 4 -26.5 4t-16.5 -4q-7 -4 -8 -15z" />
<glyph unicode="T" horiz-adv-x="473" d="M14 691.5q0 15.5 11.5 25.5t27.5 10q18 -1 38.5 -1t43.5 1q1 94 1 173q0 158 -3 257q0 14 10.5 25.5t25.5 11.5t26.5 -10t11.5 -27q3 -100 3 -257q0 -78 -1 -171q68 2 102 2q14 0 25.5 -11t11.5 -25.5t-11 -26t-26 -11.5q-35 0 -104 -2q0 -238 2 -376q2 -115 8 -146 q12 -74 51 -86q22 -7 42 -7q47 0 81 38q-68 39 -69 108v5q0 43 32 65q18 12 38 12q22 0 48 -14q38 -23 50 -67q5 -19 5 -38q0 -24 -8 -47h9q14 -4 22 -17q6 -9 6 -20q0 -3 -1 -7q-3 -14 -16 -22.5t-28 -6.5l-28 6q-35 -41 -85 -57q-25 -8 -55 -9q-29 0 -63 8 q-82 25 -105 144q-6 37 -8 158q-2 139 -2 374q-24 -1 -44.5 -1t-39.5 1q-14 0 -24.5 11.5t-10.5 27zM395 188q0 -25 27 -43v6q0 28 -19 37q-4 5 -8 5v-5z" />
<glyph unicode="U" horiz-adv-x="583" d="M104 188q-3 22 -3 52q0 85 22 233q3 13 15 23q10 8 22 8h5q15 -2 24.5 -14.5t7.5 -28.5q-21 -143 -21 -224q0 -24 2 -42q6 -70 35 -105q28 -35 80 -35h6q47 2 72.5 16.5t46.5 51.5h2l-4 6q-36 74 -36 182q0 20 1 41q2 27 6 54q4 23 10 38q10 31 33 39q22 10 41 10 q15 0 27 -6q29 -12 41 -49q8 -24 8 -60q0 -30 -6 -69q-8 -63 -27 -135q-8 -23 -14 -43q41 -55 118 -80q14 -3 22 -17q5 -9 4 -18q0 -5 -1 -10q-3 -14 -17 -22q-8 -4 -17 -4q-6 0 -11 2q-82 25 -133 77q-55 -74 -162 -77h-11q-88 0 -138 63q-41 51 -50 143zM455 348 q-2 -20 -1 -40q0 -29 3 -54q8 35 12 65q4 34 4 58.5t-4 38.5l-2 2q-4 -8 -6 -25q-4 -23 -6 -45z" />
<glyph unicode="V" horiz-adv-x="514" d="M48 254q5 14 19.5 20t28.5 2q27 -8 51 -8q-1 14 -1 28q0 59 14 110q31 109 116 112h5q36 0 59 -26q16 -20 18 -52q1 -9 1 -18q0 -47 -27 -100q-37 -68 -101 -103q20 -90 62 -139q33 -36 73 -36q12 0 25 3q82 27 98 172q3 34 3 68q0 84 -21 166q-4 14 5 27.5t24.5 16.5 t29 -5.5t15.5 -22.5q26 -93 25 -186q0 -35 -3 -70q-20 -193 -153 -233q-28 -9 -55 -9q-70 0 -126 64q-53 59 -75 160h-11l-75 12q-16 5 -22 19q-4 8 -4 16q0 6 2 12zM207 301q31 20 55 51q35 41 35 73v7q0 8 -4 12q-45 -4 -72 -59q-14 -37 -14 -84z" />
<glyph unicode="W" horiz-adv-x="813" d="M72 257.5q0 14.5 10 27t24.5 12.5t26.5 -10q39 -35 43 -37q4 -4 8 -6q-3 35 -3 67q0 60 12 107q11 44 39 74q23 25 58 25q7 0 15 -1q35 -6 51 -33q16 -20 17 -53q-2 -41 -31 -102q-23 -49 -55 -97q-10 -16 -21 -28q14 -74 41 -115q23 -37 49 -38q7 0 13 3q25 8 47 62 q18 47 33 129q8 55 12 129q2 10 3 23.5t1 17.5q0 10 2 14v6q2 4 2 8q6 14 20 21q16 6 31 0t23 -21q6 -10 6 -26q0 -6 -2 -17v-8q0 -23 -4 -69q-2 -43 -2 -66q0 -82 32 -147q16 -35 38 -48.5t55 -1.5q23 8 39 50q20 41 26 108q5 46 5 85q0 76 -19 120q-4 14 1 28.5t19.5 19.5 t28.5 0t20 -19q24 -58 24 -150q0 -42 -5 -92q-8 -78 -31 -129q-31 -72 -84 -90q-27 -10 -52 -10q-34 0 -65 18q-41 25 -67 80q-8 14 -14 33l-9 -25q-35 -82 -90 -102q-21 -8 -41 -8q-61 0 -106 73q-31 47 -47 117q-31 0 -64 22q-8 6 -51 45q-12 10 -12 24.5zM256 340 q10 14 20 31q20 37 23 59q0 4 -2 8h-4h-3q-14 0 -26 -35q-8 -27 -8 -63z" />
<glyph unicode="X" horiz-adv-x="587" d="M92 51q41 35 139 168q-43 102 -63 244q-2 16 7 28.5t25 14.5h5q13 0 23 -8q12 -10 14 -23q14 -104 41 -184q94 135 112 186q6 14 20.5 19.5t29 0.5t19.5 -19.5t1 -28.5q-27 -68 -150 -238q37 -76 84 -119q20 -16 58 -29q6 59 43 101q31 35 69 35h4q49 -4 64 -64 q4 -21 4 -39q0 -46 -25 -76q-27 -31 -75 -38q-4 -18 -23 -27q-6 -2 -11 -2q-9 0 -17 4q-14 6 -21 18q-2 6 -2 11q-74 12 -117 53q-47 41 -84 104q-84 -113 -125 -149q-12 -8 -27.5 -7t-24.5 12q-8 10 -8 23q0 18 11 29zM530 55q20 2 29 13q7 10 7 26q0 11 -3 25v4 q-4 -4 -10 -8q-20 -25 -23 -60z" />
<glyph unicode="Y" horiz-adv-x="489" d="M106 207v22q0 53 7 127q2 18 4 42t4 40.5t2 28.5q0 14 11 24.5t26.5 10.5t26 -11.5t10.5 -27.5q0 -10 -2 -29l-5 -41q-4 -27 -4 -43q-6 -67 -6 -116v-23q4 -74 25 -111q19 -34 61 -34h2q51 0 84 57q31 53 37 125l10 166v37v16q2 4 2 8q2 8 9 14q8 12 22 13q5 1 9 1 q11 0 20 -7q8 -6 10 -17q2 -2 2 -4t2 -6q8 -45 25 -383q8 -164 10 -250q1 -28 1 -49t-1 -37v-24q20 -31 31 -68q2 -5 2 -11q0 -8 -5 -17q-6 -13 -21 -17q-6 -2 -12 -2q-8 0 -17 4q-13 6 -17 23q-4 8 -8 18q-14 -10 -35 -18q-45 -18 -96 -23q-11 -1 -22 -1q-43 0 -77 13 q-55 20 -67 72q-4 20 -4 37q0 55 43 86q32 24 81 24q19 0 40 -4q59 -8 112 -45q-2 16 -2 39q-2 94 -10 246v22q-4 -10 -10 -18q-53 -94 -148 -94q-84 0 -127 71q-31 53 -35 144zM240 -285q2 -12 20 -20q20 -6 46 -6q10 0 21 1q40 3 72 15l21 10q-47 45 -107 56q-13 2 -24 2 q-27 0 -41 -11q-11 -8 -11 -26q0 -9 3 -21z" />
<glyph unicode="Z" horiz-adv-x="591" d="M74 31q-1 5 -1 11.5t1 14.5q2 10 10 27q4 8 14 22q14 23 43 58l68 78q-20 2 -39 4q-16 2 -25.5 14t-7.5 27.5t14.5 24.5t26.5 7q32 -5 69 -5q12 0 25 1l119 136l8 8q-18 0 -51 -2q-68 -1 -107 -1t-51 1q-14 2 -24 14t-8 26.5t14 24.5t27 8q9 -1 46 -1t101 1q59 2 84 2h31 q6 0 12 -2h6q10 -4 17 -10q12 -10 12 -28q0 -6 -2 -13q-2 -4 -6 -10q-4 -8 -13 -18q-12 -16 -38 -48l-72 -81q45 4 74 6q14 0 26 -10.5t12 -24.5t-10 -26.5t-24 -12.5q-23 -2 -73 -6t-75 -4l-108 -127l-19 -25q37 14 80 21q23 2 50.5 -2.5t43 -8.5t49 -15t37.5 -13h2 q27 68 66 96q26 21 53 21l41 -13q41 -23 45 -73v-8q0 -45 -39 -79q-39 -32 -96 -32q-42 0 -94 18l-43 14q-31 10 -42 13.5t-29.5 6.5t-31.5 1q-59 -8 -120 -41q-12 -6 -19 -8q-9 -3 -17 -3q-14 0 -26 9q-16 12 -16 35zM516 59q27 0 47 17q10 12 10 23.5t-8 15.5q-1 1 -2 1 q-4 0 -10 -5q-19 -13 -37 -52z" />
<glyph unicode="[" horiz-adv-x="950" d="M131 623q-4 88 78 127q68 35 156 14q68 -14 125 -59.5t88 -114.5q41 66 105.5 98.5t131.5 32.5q88 0 143 -49q66 -59 41 -148q-8 -35 -29.5 -64.5t-56 -54t-58.5 -39t-69 -36.5q-10 -6 -16 -11q-90 -45 -138 -84.5t-65 -101.5q-2 -14 -15 -21.5t-30 -2.5q-8 2 -16 8 q-18 10 -19 30q-2 63 -45 115q-39 49 -120 117q-96 78 -123 108q-66 68 -68 136zM205 627q2 -41 47 -90q25 -25 117 -101q135 -109 172 -194q51 70 194 143q66 35 95.5 52.5t60.5 46t39 61.5q10 43 -21 71q-35 31 -94 31q-68 0 -127 -43t-84 -131q-2 -8 -6 -12 q-10 -18 -31 -21q-14 0 -25.5 9.5t-13.5 25.5q-6 90 -57 145.5t-123 71.5q-63 14 -106 -8q-39 -18 -37 -57z" />
<glyph unicode="\" horiz-adv-x="714" d="M55 1228.5q4 14.5 17.5 21.5t28 3t22.5 -18l196 -387l234 -457q109 -205 213 -381q6 -12 3 -27.5t-16.5 -22.5t-29 -4t-23.5 17l-208 381l-236 459l-199 389q-6 12 -2 26.5z" />
<glyph unicode="]" horiz-adv-x="964" d="M104 360q-35 76 9 134q33 47 106 69q35 12 76 17q-55 49 -88 114q-57 121 33 178q47 31 102 9q39 -16 78 -60q24 -28 47 -63q4 29 12 55q23 82 66 123q57 57 133 33q90 -27 94 -107q4 -55 -43 -129l-4 -6q125 41 197 -25q31 -27 39 -66.5t-11 -76.5q-39 -80 -162 -106 q41 -33 66 -64q68 -86 14 -156q-29 -39 -71.5 -46t-79.5 7.5t-72 41.5q-25 20 -49 47q-10 -63 -29 -109q-25 -63 -63 -84q-55 -33 -113 25q-20 23 -22 73q0 33 6 82q6 37 14 74q-51 -23 -104 -35q-57 -14 -99 -8q-61 10 -82 59zM170 389q6 -10 27 -14q29 -4 71 6 q88 20 133 55l2 4q2 2 5.5 7.5t5.5 7.5l2 4q-6 18 -6 43q-82 20 -168 -8q-51 -16 -70 -43q-18 -25 -2 -62zM274.5 725q30.5 -63 79.5 -98q8 -6 39 -23l39 -22l4 4q8 8 23 14v4q-2 4 -19 45q-25 66 -75 121q-29 33 -52 41q-18 8 -32 0q-37 -23 -6.5 -86zM442 188q0 -6 1 -12 t1 -8l2 -2q16 -16 23 -12q14 8 29 47q33 78 32 145q0 20 -2 62q-18 -4 -34 -5q-2 -2 -5 -6q-6 -10 -12 -16q-2 -2 -2 -4q-14 -35 -26 -117q-6 -43 -7 -72zM530 618l2 -2q88 86 134 156q35 55 34 88q-2 27 -43 39q-35 10 -61 -16q-29 -27 -47 -90q-25 -89 -19 -175zM600 451 q0 -10 2 -27v-2q16 -72 90 -127q80 -66 119 -16q18 25 -16 65q-29 37 -84 74q-41 29 -93 39q-4 2 -10 2zM602 571q18 -16 25 -36q2 0 63 -11q51 -8 82 0q88 18 113 66q14 35 -13 57q-16 16 -48.5 20.5t-93 -18.5t-128.5 -78z" />
<glyph unicode="^" horiz-adv-x="505" d="M132 862.5q-5 14.5 1 28.5q74 158 113 213q27 33 51 45q35 16 65 -2q29 -16 82 -98q61 -96 109 -150q10 -12 8 -27.5t-13 -25.5t-26.5 -8t-25.5 12q-49 57 -113 158q-41 66 -55 73q-14 -10 -23 -22q-35 -47 -106 -201q-6 -12 -20.5 -17t-28 1t-18.5 20.5z" />
<glyph unicode="_" horiz-adv-x="804" d="M78 -111.5q0 15.5 10.5 26.5t24.5 11q272 12 706 13q14 0 25.5 -11.5t11.5 -26t-11 -25.5t-26 -11q-434 0 -702 -12q-16 0 -27.5 10t-11.5 25.5z" />
<glyph unicode="`" horiz-adv-x="233" d="M125 1115q0 15 11 25.5t26.5 10.5t25.5 -12q53 -55 95 -154q4 -14 -1.5 -28.5t-19.5 -19.5t-28.5 0t-20.5 19q-35 86 -78 134q-10 10 -10 25z" />
<glyph unicode="a" horiz-adv-x="614" d="M119 188q12 86 65 174q-12 12 -24 29q-8 12 -5 26.5t15 24t26.5 6t24.5 -15.5l6 -8q39 51 84 80q52 34 102 34q34 0 68 -16q33 -14 43 -47q8 -29 -4 -59q-20 -53 -82 -90q-53 -33 -108 -33q-13 0 -27 2q-33 4 -61 20q-39 -72 -49 -137q-4 -22 -4 -40q0 -39 18 -58 q26 -29 58 -28q23 0 48 14q59 31 101.5 102.5t50.5 120.5v30v5v2q0 4 2 10t8 10q14 16 35 12q14 -4 22 -16q2 -2 5 -6l2 -8v-4v-13q2 -16 0 -26q4 -88 20 -146q14 -47 33.5 -66.5t46.5 -15.5q16 2 29 -7q12 -8 14 -24v-6q0 -12 -7 -22q-9 -12 -24 -14q-13 -2 -24 -2 q-100 0 -140 137q-2 8 -4 20l-6 -8q-51 -88 -127 -131q-45 -24 -85 -24q-61 0 -111 55q-39 40 -39 110q0 22 4 47zM283 377q14 -6 30 -8q8 -1 16 -1l70 21q41 23 52 53q3 5 3 8q0 2 -1 3q0 2 -4 4q-15 7 -32 7q-30 0 -65 -24q-36 -22 -69 -63z" />
<glyph unicode="b" horiz-adv-x="512" d="M90 768q-4 9 -4 18q0 14 12 25q2 164 21 256q12 61 31 96q29 44 71 44q5 0 10 -1q76 -12 84 -96q1 -10 2 -21q0 -51 -24 -118q-25 -72 -68 -135q-27 -39 -53 -64q0 -135 12 -371l15 27q66 115 157 121h8q77 0 136 -78q35 -49 49 -111q6 -29 7 -60q0 -36 -10 -76 q-16 -72 -65 -130q-66 -74 -127 -90q-63 -18 -112 -18q-46 0 -80 16q-14 0 -23 8q-8 6 -12 15q-2 4 -4 10q0 6 -2 18q0 4 -1 19.5t-1 19.5q-4 47 -4 117v49v64q0 2 -8.5 160.5t-8.5 271.5q-6 6 -8 14zM174 893q31 49 49 102q22 57 22 95q0 6 -1 12q-4 29 -25 31l-6 -9 q-12 -23 -23 -71q-12 -62 -16 -160zM199 150q3 -39 3 -64q0 -12 -1 -20q18 -6 43 -6q37 0 90 14q41 12 90 69q39 43 51 99q7 30 7 58q0 23 -5 44q-10 47 -37 82q-36 49 -77 49h-3q-51 -2 -96 -84q-43 -76 -59 -147q-6 -26 -6 -71v-23z" />
<glyph unicode="c" horiz-adv-x="464" d="M89 284q22 79 75 142q-10 14 -19 31q-6 16 -2 31q3 14 17 21q9 4 18 4q4 0 10 -1q14 -4 23 -16q4 -10 8 -17q29 18 57 27q18 5 35 5q52 0 84 -48q18 -28 18 -54q0 -21 -12 -40q-25 -39 -77 -39q-55 0 -109 43q-41 -51 -57 -111q-7 -27 -6 -56q0 -35 10 -71 q29 -81 117 -82q11 0 24 2q49 6 95 32t73 60q8 12 23.5 14.5t27.5 -7.5q15 -11 15 -30q0 -13 -9 -24q-35 -45 -95 -78.5t-122 -39.5q-15 -2 -30 -2q-56 0 -103 24q-59 30 -86 107q-13 50 -13 96q0 40 10 77zM272 424q27 -16 52 -16q12 0 16 4q-2 4 -6 10q-9 14 -26 14 q-6 0 -13 -2q-10 -4 -23 -10z" />
<glyph unicode="d" horiz-adv-x="501" d="M106 268q6 78 44 142q30 48 76 76q35 21 76 22q12 0 24 -2q75 -8 141 -86q0 68 10 385q-63 33 -92 101q-27 64 -27 129v9q2 74 33 113q20 29 51 33q5 1 10 1l52 -17q29 -23 39 -84q8 -43 10 -107q1 -15 1 -40q0 -50 -3 -138q0 -14 -4 -127t-4 -143.5t-1 -124.5v-82.5 v-60.5q1 -50 5 -122.5t10 -134.5v-5q0 -13 -8 -23q-9 -12 -25 -13h-5q-13 1 -23 9q-12 10 -13 24v8q-58 -35 -117 -35q-44 0 -90 19q-92 40 -134 118q-37 69 -37 138q0 9 1 18zM179 264v-11q0 -53 29 -105q32 -56 97 -85q30 -13 59 -13l109 44q0 2 2 2q-6 88 -8 189 q-72 139 -150 149q-6 1 -12 1q-53 0 -92 -64q-31 -49 -34 -107zM432 1042v-13q0 -84 47 -134q1 22 1 43.5t-1 40.5q-2 59 -8 96l-12 37l-6 4l-2 -2q-16 -23 -19 -72z" />
<glyph unicode="e" horiz-adv-x="518" d="M109 240q12 92 67 174q59 84 129 100q20 4 36 4q57 0 81 -47q11 -20 11 -45q0 -31 -17 -70q-27 -61 -89.5 -110t-142.5 -53h-4q0 -51 27 -84q42 -52 145 -52h4q90 2 160 107q8 12 23.5 15t28 -5t15.5 -24q1 -4 1 -8q0 -11 -6 -19q-90 -135 -222 -137h-7q-136 0 -199 75 q-44 56 -44 136q0 21 3 43zM190 272q53 6 96.5 39t61.5 74q11 25 11 40q0 8 -3 13l-2 2q-2 2 -10 3h-3q-7 0 -19 -3q-41 -8 -84 -67q-34 -46 -48 -101z" />
<glyph unicode="f" horiz-adv-x="409" d="M72 677q0 15 11.5 25.5t27.5 10.5q17 -1 37 -1t42 1l-10 125q-13 138 -13 195q0 15 1 24q10 88 63 119q23 13 47 13q32 0 66 -22q53 -31 78 -95q12 -32 12 -67q0 -33 -12 -69q-4 -14 -18.5 -20.5t-29 -2t-20.5 18.5t-2 29q8 23 8 44t-8 41q-16 39 -45 58q-25 14 -39 6 q-23 -10 -26 -61q-1 -9 -1 -24q0 -52 11 -181l14 -129q68 2 103 2q14 0 25.5 -11.5t11.5 -25.5t-11.5 -25.5t-25.5 -11.5q-35 0 -97 -2q6 -74 13 -129q8 -106 12 -184l35 6q16 2 28.5 -7.5t14.5 -24.5t-7.5 -27.5t-23.5 -14.5l-45 -6v-33v-31q-2 -72 -10 -116 q-14 -61 -47 -80q-22 -14 -43 -14q-7 0 -15 2q-28 6 -47 32q-25 33 -25 86q0 9 1 19q2 57 29.5 113.5t80.5 84.5q-4 70 -12 189q-4 61 -12 133q-27 -1 -50 -1t-43 1q-14 0 -24 11.5t-10 26.5zM186 117v-11q0 -35 11 -51q2 0 2 -2q2 2 6 2v2q2 2 5 10.5t5 20.5q8 39 10 105 v32q-37 -43 -39 -108z" />
<glyph unicode="g" horiz-adv-x="479" d="M66 236q8 61 36 118q47 88 134 136q56 31 120 31q34 0 70 -9q8 4 16 4t15 -4q8 -4 12 -9t6 -9l2 -5q0 -4 2 -8q4 -33 19 -383q6 -156 6 -252q1 -28 1 -49t-1 -37v-22q23 -31 33 -68q2 -5 2 -11q0 -8 -5 -17q-6 -13 -21 -17q-6 -2 -12 -2q-8 0 -17 4q-13 6 -17 23 q-4 8 -8 18q-12 -10 -33 -18q-45 -18 -96 -23q-10 -1 -20 -1q-43 0 -77 14q-55 20 -67 71q-4 20 -4 37q0 55 43 86q33 24 82 24q17 0 37 -3q57 -8 110 -45q-2 16 -2 34q0 96 -6 250l-2 41q-20 -41 -49 -69q-61 -66 -128 -66q-39 0 -81 23q-57 35 -83 93q-20 44 -20 89 q0 15 3 31zM134 184q9 -65 65 -96q22 -13 44 -13q38 0 76 40q59 63 66 145q2 29 4 82q4 55 6 86q0 6 2 14q-21 4 -41 4q-51 0 -95 -26q-62 -35 -99 -101q-30 -56 -30 -109q0 -13 2 -26zM236 -272q2 -12 20 -21q20 -6 46 -6q10 0 20 1q40 3 73 15l21 11q-47 45 -107 55 q-13 2 -25 2q-26 0 -40 -10q-11 -8 -11 -26q0 -9 3 -21z" />
<glyph unicode="h" horiz-adv-x="475" d="M55 877.5q0 15.5 10.5 26.5t24.5 11q12 0 27 5v24v23v30q0 47 6 80q6 51 24 82q27 43 70 43h8q66 -6 78 -78q2 -13 1 -26q0 -41 -17 -90q-35 -86 -99 -134q-2 -52 -2 -124q0 -108 4 -263v-36q47 68 121 84q14 3 28 2q64 0 107 -62q37 -53 58 -153q22 -110 22 -280v-15 q0 -14 -11 -25.5t-25.5 -11.5t-25.5 11t-11 26q0 172 -23 280q-16 86 -43 127q-20 28 -47 28q-6 0 -12 -1q-72 -14 -107 -113q-23 -61 -26 -145q0 -94 -5 -172q0 -10 -1 -12.5t-1 -4.5q-2 -6 -4 -10q-6 -8 -14 -12q-9 -5 -18.5 -5t-18.5 5q-4 4 -8 9t-6 7v4q-2 2 -2 6v2v5v4 v37q2 82 2 98q0 20 2 41q0 90 -4 282q-4 154 -4 252q0 65 2 105q-10 -2 -21 -2q-16 0 -27.5 10t-11.5 25.5zM190 983q16 25 27 51q13 36 13 62q0 9 -1 16q-2 16 -8 16t-10 -8q-10 -16 -16 -53q-4 -29 -5 -72v-12z" />
<glyph unicode="i" horiz-adv-x="256" d="M108 318q1 46 3 94.5t2 58.5q0 14 11 25.5t25.5 11.5t25.5 -11.5t11 -25.5q0 -10 -2 -57q-2 -48 -3 -94v-32q0 -34 1 -73q2 -90 13 -135q6 -16 12 -27q10 4 16 21l6 30q4 31 4 39q4 14 16.5 22.5t28 5.5t23.5 -15q6 -10 6 -23v-6q-2 -4 -5 -30.5t-9 -41.5 q-18 -66 -80 -75q-6 -1 -11 -1q-30 0 -52 27q-16 20 -25 57q-14 51 -16 150q-1 39 -1 73v32zM115 606.5q0 14.5 11 25.5t25.5 11t25.5 -11t11 -25.5t-11 -26t-25.5 -11.5t-25.5 11.5t-11 26z" />
<glyph unicode="j" horiz-adv-x="221" d="M-86 -246q-2 14 -2 27q0 62 39 104q39 39 110 54q33 6 72 8q-4 35 -4 59q-2 74 -2 228.5t-4 234.5q0 16 10 27.5t25.5 11.5t27 -10.5t11.5 -24.5q4 -82 4 -236.5t2 -226.5q0 -18 4 -65q41 -2 84 -8q14 -2 23 -15q8 -9 8 -21v-7q-3 -15 -15 -24t-28 -7q-35 6 -68 8v-22 q0 -43 -6 -74q-20 -84 -99 -119q-35 -16 -66 -16q-48 0 -89 36q-29 27 -37 78zM-12 -236q2 -25 12 -30q22 -20 47 -20q14 0 29 7q45 20 55 68q6 26 6 62v18q-35 0 -61 -6q-49 -10 -72 -33q-17 -18 -17 -49q0 -8 1 -17zM119 594q0 14 11 25.5t25.5 11.5t26 -11.5t11.5 -25.5 t-11.5 -25.5t-26 -11.5t-25.5 11.5t-11 25.5z" />
<glyph unicode="k" horiz-adv-x="395" d="M-22 796q4 14 18 21q16 8 53 41v12q0 125 25 201q31 106 106 129q12 4 24 4q22 0 46 -12q49 -27 49 -82q0 -19 -6 -41q-16 -55 -72 -131q-43 -57 -98 -113q0 -68 8 -155q2 -33 6 -81t6 -63q2 -20 2 -41q43 53 119 60q10 1 20 0q79 0 117 -56q23 -34 23 -75q0 -27 -10 -58 q-23 -59 -81 -96q-50 -32 -118 -32q-11 0 -22 1q27 -74 85 -121t138 -51q14 0 24.5 -11t10.5 -26.5t-11.5 -25.5t-27.5 -10q-162 8 -252 149q2 -61 4 -110q0 -14 -10.5 -26.5t-24.5 -12.5t-26.5 10t-12.5 24q-4 72 -9 242t-11 262q0 12 -5.5 60.5t-7.5 81.5q-4 53 -6 100 q-12 -8 -22 -12q-14 -6 -28.5 -2t-20.5 18q-4 8 -4 17q0 5 2 11zM125 936q18 23 37 47q47 66 59 104q8 31 -8 39q-8 4 -12 4q-37 -12 -58 -79q-14 -45 -18 -115zM174 305q20 -3 37 -3q43 0 75 18q44 24 58 63q6 17 6 31q0 18 -10 32q-16 25 -59 25h-13q-50 -4 -76 -50 q-20 -35 -20 -85q0 -15 2 -31z" />
<glyph unicode="l" horiz-adv-x="268" d="M51 573q-1 48 -1 93q0 136 13 254q20 172 66 229q31 39 64 43h7q34 0 54 -37q22 -41 31 -145q3 -35 3 -137q0 -51 -1 -119q0 -53 -7.5 -153.5t-7.5 -121.5q-12 -252 -47 -405l4 -4q12 -10 64 -17q15 -2 25 -13q9 -9 8 -22q0 -18 -14 -30q-9 -8 -20 -9q-3 0 -7 1l-17 2 q-14 0 -21 2t-19.5 5t-23.5 9t-24 14q-10 10 -22 25q-4 6 -6 10q-39 63 -66 186q-29 147 -35 340zM125 565q6 -190 33 -332q8 -33 14 -61q18 119 27 299q2 23 8 122t6 155q1 68 1 119q0 102 -3 134q-6 80 -18 111q-2 -4 -7 -8q-33 -45 -51 -199q-12 -109 -11 -239 q-1 -49 1 -101z" />
<glyph unicode="m" horiz-adv-x="819" d="M69 478q3 14 16 22t27.5 5t22.5 -16q10 -16 29 -59q4 6 10 12q52 69 118 69q8 0 17 -1q82 -12 135 -113q0 4 2 6q68 103 158 103h10q166 -10 207 -199q12 -58 13 -173q0 -51 -3 -114q0 -14 -11 -24t-26.5 -10t-25.5 11t-10 28q3 63 3 114q0 101 -11 152q-29 135 -140 141 h-7q-49 0 -93 -67q-2 -2 -2 -9q-2 -12 -2 -32q-2 -37 -2 -99q0 -43 2 -101t2 -63v-10q0 -4 -1 -7t-1 -5q-6 -12 -17 -19q-25 -14 -45 7q-4 4 -8 12l-2 8v4q0 2 -2 6q0 14 -2 47q-2 51 -4 80q-4 80 -37 156q-39 88 -92 96q-4 1 -7 1q-28 0 -57 -40q-18 -23 -34 -57 q29 -78 45 -145q22 -81 23 -132q0 -16 -3 -28q-8 -47 -43 -60q-10 -4 -20 -4q-26 0 -58 21q-51 31 -57 127q-1 16 -1 32q0 64 19 136q6 29 17 53q-33 86 -47 109q-6 10 -6 21q0 4 1 8zM160 123q4 -57 20 -70q7 -2 13 -6q1 6 1 13q0 40 -20 116q-6 16 -10 35q-4 -37 -4 -68 v-20z" />
<glyph unicode="n" horiz-adv-x="552" d="M78 451q-2 6 -2 13q0 8 3 16q5 14 19.5 19t28.5 0t20 -20q16 -39 33 -90q35 45 74 72q59 44 116 44q15 0 29 -3q121 -27 156 -223q15 -84 15 -197q0 -34 -1 -70q0 -14 -11 -24.5t-26.5 -10.5t-25.5 11.5t-10 27.5q1 36 1 69q0 105 -14 181q-27 147 -100 162q-7 2 -15 2 q-33 0 -71 -28q-47 -34 -86 -99l27 -88q21 -83 22 -136q0 -14 -2 -26q-6 -43 -31 -63q-19 -18 -46 -18q-14 0 -29 5q-33 8 -54 50q-19 45 -19 96q1 19 3 39q10 72 49 149q-27 76 -53 140zM164 59l8 -12q6 -2 8 -2q2 4 4 16q1 7 1 14q0 43 -19 122l-2 2q-14 -45 -14 -80 t14 -60z" />
<glyph unicode="o" d="M77 192q-1 13 -1 26q0 53 10 106q27 109 94 161q43 33 91 33q21 0 42 -6q23 -2 33 -6q90 -35 133 -129q23 10 37 16t28 2q15 -3 21 -19q4 -9 4 -19q0 -6 -2 -11q-4 -14 -18 -22q-18 -10 -47 -19q8 -37 9 -73q0 -26 -5 -52q-16 -106 -84 -162q-53 -44 -120 -44 q-33 0 -69 10q-72 20 -112.5 81t-43.5 127zM156 293q-9 -36 -9 -70q0 -43 14 -81q25 -68 93 -89q24 -7 46 -6q44 0 75 27q45 37 57 110q4 21 4 42q0 26 -6 53q-33 -3 -63 -3h-15q-66 4 -104.5 32t-48.5 73q-29 -35 -43 -88zM268 426q0 -33 23 -53q23 -16 67 -23q10 -1 21 -1 t22 1q-23 43 -53 66q-14 -2 -24 6q-12 8 -27 14q-4 0 -8 2h-19q-2 -4 -2 -12z" />
<glyph unicode="p" horiz-adv-x="497" d="M73 272q3 15 15 25q22 16 45 -4q23 66 51 110q65 99 151 99q22 0 46 -6q115 -33 145 -156q10 -40 10 -80q0 -67 -28 -135q-49 -119 -146 -148q-26 -8 -53 -8q-23 0 -47 6q14 -109 14 -189v-19q-2 -63 -16 -93q-12 -29 -35 -36q-8 -2 -17 -2q-19 0 -38 12q-66 49 -84 202 q-5 50 -5 104q0 90 15 189q4 29 10 58q-12 23 -28 45q-6 9 -6 19q0 4 1 7zM158 31q-3 -39 -3 -76q0 -49 5 -94q10 -94 39 -135q2 18 4 43v18q0 84 -17 203q-2 12 -2 22q-14 8 -26 19zM186 213q43 -76 62 -154q32 -16 60 -16q17 0 32 6q63 18 100 103q22 55 22 108 q0 31 -8 62q-20 81 -94 104q-10 3 -21 3q-49 0 -91 -64q-37 -58 -62 -152z" />
<glyph unicode="q" horiz-adv-x="579" d="M137 219q10 96 66 178q63 90 147 111q23 6 45 6q79 0 154 -68q10 -8 11 -23t-7 -28q6 -4 12 -10q2 -4 6 -10q8 -20 7 -62q-2 -31 -9 -82q-4 -27 -13 -95t-15 -107q12 -4 18 -15q84 -121 84 -264q0 -70 -27 -102q-23 -25 -53 -25q-27 0 -53 23q-51 39 -57 161v19 q0 79 14 203q4 30 10 71q-41 -47 -90 -73q-35 -20 -69 -27q-14 -3 -28 -3q-22 0 -45 7q-38 12 -69 45q-41 49 -41 130q0 19 2 40zM211 211q-2 -18 -2 -34q0 -51 24 -79q22 -28 55 -28q27 0 62 20q37 20 68 53q29 35 41 66q18 43 33 113q2 0 4 28q0 14 2 21.5t6 13.5l2 2 l-6 6q-53 46 -104 46q-14 0 -27 -3q-57 -14 -105 -82q-45 -66 -53 -143zM526 -190q4 -86 29 -107q4 -2 6 -4q8 16 8 51q0 82 -39 168q-4 -47 -4 -84v-24z" />
<glyph unicode="r" horiz-adv-x="454" d="M127 444q4 16 17.5 21.5t28.5 1.5t22 -18l20 -39q59 90 133 100q11 2 21 2q78 0 147 -92q6 -10 6 -21v-7q-2 -16 -14 -25t-27.5 -7t-25.5 15q-45 64 -87 64q-4 0 -8 -1q-43 -6 -84 -69q-10 -16 -20 -37q59 -121 58 -210q0 -14 -1 -28q-4 -33 -21.5 -64.5t-43.5 -45.5 q-18 -11 -35 -11q-20 0 -37 15q-29 20 -41 71q-7 32 -7 67q0 92 46 204l-45 86q-4 7 -4 16q0 6 2 12zM209 76q2 -17 8 -25q18 18 23 51q1 10 1 21q0 48 -22 108q-16 -59 -16 -105q0 -27 6 -50z" />
<glyph unicode="s" horiz-adv-x="561" d="M88 115q-5 18 -5 33q0 45 40 69q24 16 55 16q22 0 47 -8q51 -14 92 -58t54 -110q43 4 78 17q51 18 63 43q9 20 9 38q1 21 -13 41q-24 34 -90 66q-27 14 -119 49q-33 12 -49 23q-31 14 -39 35q-9 22 -9 40q0 37 34 64q33 25 98 33q26 2 51.5 2t51.5 -2q52 -4 79 -14 q14 -6 20.5 -20.5t0 -29t-21 -19.5t-28.5 -1q-16 8 -57 11q-18 1 -36 1q-25 0 -52 -2q-41 -6 -57 -18q-8 -4 -6 -13q2 -2 8 -4q12 -6 41 -16q94 -37 127 -53q80 -39 114 -88q28 -39 28 -83q0 -34 -17 -69q-25 -55 -103 -84q-65 -22 -142 -22h-7q-84 2 -148 30 q-76 35 -92 103zM156 131q10 -31 59 -51q35 -17 84 -21q-10 37 -36.5 62.5t-57.5 34.5q-16 4 -26.5 4t-16.5 -4q-7 -4 -8 -15z" />
<glyph unicode="t" horiz-adv-x="468" d="M10 691.5q0 15.5 11.5 25.5t27.5 10q18 -1 38.5 -1t43.5 1q1 94 1 173q0 158 -3 257q0 14 10.5 25.5t25.5 11.5t26.5 -10t11.5 -27q3 -100 3 -257q0 -78 -1 -171q68 2 102 2q14 0 25.5 -11t11.5 -25.5t-11 -26t-26 -11.5q-35 0 -104 -2q0 -238 2 -376q2 -115 8 -146 q12 -74 51 -86q22 -7 42 -7q47 0 81 38q-68 39 -70 108v5q0 43 33 65q18 12 38 12q22 0 48 -14q38 -23 50 -67q5 -19 5 -38q0 -24 -8 -47h9q14 -4 22 -17q6 -9 6 -20q0 -3 -1 -7q-3 -14 -16.5 -22.5t-27.5 -6.5l-29 6q-35 -41 -84 -57q-25 -8 -55 -9q-29 0 -63 8 q-82 25 -105 144q-6 37 -8 158q-2 139 -2 374q-24 -1 -44.5 -1t-39.5 1q-14 0 -24.5 11.5t-10.5 27zM391 188q0 -25 27 -43v6q0 28 -19 37q-4 5 -8 5v-5z" />
<glyph unicode="u" horiz-adv-x="583" d="M104 188q-3 22 -3 52q0 85 22 233q3 13 15 23q10 8 22 8h5q15 -2 24.5 -14.5t7.5 -28.5q-21 -143 -21 -224q0 -24 2 -42q6 -70 35 -105q28 -35 80 -35h6q47 2 72.5 16.5t46.5 51.5h2l-4 6q-36 74 -36 182q0 20 1 41q2 27 6 54q4 23 10 38q10 31 33 39q22 10 41 10 q15 0 27 -6q29 -12 41 -49q8 -24 8 -60q0 -30 -6 -69q-8 -63 -27 -135q-8 -23 -14 -43q41 -55 118 -80q14 -3 22 -17q5 -9 4 -18q0 -5 -1 -10q-3 -14 -17 -22q-8 -4 -17 -4q-6 0 -11 2q-82 25 -133 77q-55 -74 -162 -77h-11q-88 0 -138 63q-41 51 -50 143zM455 348 q-2 -20 -1 -40q0 -29 3 -54q8 35 12 65q4 34 4 58.5t-4 38.5l-2 2q-4 -8 -6 -25q-4 -23 -6 -45z" />
<glyph unicode="v" horiz-adv-x="514" d="M48 254q5 14 19.5 20t28.5 2q27 -8 51 -8q-1 14 -1 28q0 59 14 110q31 109 116 112h5q36 0 59 -26q16 -20 18 -52q1 -9 1 -18q0 -47 -27 -100q-37 -68 -101 -103q20 -90 62 -139q33 -36 73 -36q12 0 25 3q82 27 98 172q3 34 3 68q0 84 -21 166q-4 14 5 27.5t24.5 16.5 t29 -5.5t15.5 -22.5q26 -93 25 -186q0 -35 -3 -70q-20 -193 -153 -233q-28 -9 -55 -9q-70 0 -126 64q-53 59 -75 160h-11l-75 12q-16 5 -22 19q-4 8 -4 16q0 6 2 12zM207 301q31 20 55 51q35 41 35 73v7q0 8 -4 12q-45 -4 -72 -59q-14 -37 -14 -84z" />
<glyph unicode="w" horiz-adv-x="813" d="M72 257.5q0 14.5 10 27t24.5 12.5t26.5 -10q39 -35 43 -37q4 -4 8 -6q-3 35 -3 67q0 60 12 107q11 44 39 74q23 25 58 25q7 0 15 -1q35 -6 51 -33q16 -20 17 -53q-2 -41 -31 -102q-23 -49 -55 -97q-10 -16 -21 -28q14 -74 41 -115q23 -37 49 -38q7 0 13 3q25 8 47 62 q18 47 33 129q8 55 12 129q2 10 3 23.5t1 17.5q0 10 2 14v6q2 4 2 8q6 14 20 21q16 6 31 0t23 -21q6 -10 6 -26q0 -6 -2 -17v-8q0 -23 -4 -69q-2 -43 -2 -66q0 -82 32 -147q16 -35 38 -48.5t55 -1.5q23 8 39 50q20 41 26 108q5 46 5 85q0 76 -19 120q-4 14 1 28.5t19.5 19.5 t28.5 0t20 -19q24 -58 24 -150q0 -42 -5 -92q-8 -78 -31 -129q-31 -72 -84 -90q-27 -10 -52 -10q-34 0 -65 18q-41 25 -67 80q-8 14 -14 33l-9 -25q-35 -82 -90 -102q-21 -8 -41 -8q-61 0 -106 73q-31 47 -47 117q-31 0 -64 22q-8 6 -51 45q-12 10 -12 24.5zM256 340 q10 14 20 31q20 37 23 59q0 4 -2 8h-4h-3q-14 0 -26 -35q-8 -27 -8 -63z" />
<glyph unicode="x" horiz-adv-x="587" d="M92 51q41 35 139 168q-43 102 -63 244q-2 16 7 28.5t25 14.5h5q13 0 23 -8q12 -10 14 -23q14 -104 41 -184q94 135 112 186q6 14 20.5 19.5t29 0.5t19.5 -19.5t1 -28.5q-27 -68 -150 -238q37 -76 84 -119q20 -16 58 -29q6 59 43 101q31 35 69 35h4q49 -4 64 -64 q4 -21 4 -39q0 -46 -25 -76q-27 -31 -75 -38q-4 -18 -23 -27q-6 -2 -11 -2q-9 0 -17 4q-14 6 -21 18q-2 6 -2 11q-74 12 -117 53q-47 41 -84 104q-84 -113 -125 -149q-12 -8 -27.5 -7t-24.5 12q-8 10 -8 23q0 18 11 29zM530 55q20 2 29 13q7 10 7 26q0 11 -3 25v4 q-4 -4 -10 -8q-20 -25 -23 -60z" />
<glyph unicode="y" horiz-adv-x="489" d="M106 207v22q0 53 7 127q2 18 4 42t4 40.5t2 28.5q0 14 11 24.5t26.5 10.5t26 -11.5t10.5 -27.5q0 -10 -2 -29l-5 -41q-4 -27 -4 -43q-6 -67 -6 -116v-23q4 -74 25 -111q19 -34 61 -34h2q51 0 84 57q31 53 37 125l10 166v37v16q2 4 2 8q2 8 9 14q8 12 22 13q5 1 9 1 q11 0 20 -7q8 -6 10 -17q2 -2 2 -4t2 -6q8 -45 25 -383q8 -164 10 -250q1 -28 1 -49t-1 -37v-24q20 -31 31 -68q2 -5 2 -11q0 -8 -5 -17q-6 -13 -21 -17q-6 -2 -12 -2q-8 0 -17 4q-13 6 -17 23q-4 8 -8 18q-14 -10 -35 -18q-45 -18 -96 -23q-11 -1 -22 -1q-43 0 -77 13 q-55 20 -67 72q-4 20 -4 37q0 55 43 86q32 24 81 24q19 0 40 -4q59 -8 112 -45q-2 16 -2 39q-2 94 -10 246v22q-4 -10 -10 -18q-53 -94 -148 -94q-84 0 -127 71q-31 53 -35 144zM240 -285q2 -12 20 -20q20 -6 46 -6q10 0 21 1q40 3 72 15l21 10q-47 45 -107 56q-13 2 -24 2 q-27 0 -41 -11q-11 -8 -11 -26q0 -9 3 -21z" />
<glyph unicode="z" horiz-adv-x="591" d="M74 31q-1 5 -1 11.5t1 14.5q2 10 10 27q4 8 14 22q14 23 43 58l68 78q-20 2 -39 4q-16 2 -25.5 14t-7.5 27.5t14.5 24.5t26.5 7q32 -5 69 -5q12 0 25 1l119 136l8 8q-18 0 -51 -2q-68 -1 -107 -1t-51 1q-14 2 -24 14t-8 26.5t14 24.5t27 8q9 -1 46 -1t101 1q59 2 84 2h31 q6 0 12 -2h6q10 -4 17 -10q12 -10 12 -28q0 -6 -2 -13q-2 -4 -6 -10q-4 -8 -13 -18q-12 -16 -38 -48l-72 -81q45 4 74 6q14 0 26 -10.5t12 -24.5t-10 -26.5t-24 -12.5q-23 -2 -73 -6t-75 -4l-108 -127l-19 -25q37 14 80 21q23 2 50.5 -2.5t43 -8.5t49 -15t37.5 -13h2 q27 68 66 96q26 21 53 21l41 -13q41 -23 45 -73v-8q0 -45 -39 -79q-39 -32 -96 -32q-42 0 -94 18l-43 14q-31 10 -42 13.5t-29.5 6.5t-31.5 1q-59 -8 -120 -41q-12 -6 -19 -8q-9 -3 -17 -3q-14 0 -26 9q-16 12 -16 35zM516 59q27 0 47 17q10 12 10 23.5t-8 15.5q-1 1 -2 1 q-4 0 -10 -5q-19 -13 -37 -52z" />
<glyph unicode="{" horiz-adv-x="358" d="M-57 567q4 16 18 31q8 8 23 18l53 35q70 49 86 92q6 16 0 43q-2 6 -8 28t-9 34q-29 162 39 250q70 90 234 90q14 0 25.5 -11.5t11.5 -25.5t-11.5 -25.5t-25.5 -11.5q-127 0 -175 -61.5t-24 -192.5q0 -8 6 -26q6 -23 9 -33q10 -47 -2 -82q-25 -68 -115 -129l-53 -35l-5 -2 q8 -8 29 -21q39 -25 43 -28q31 -20 41 -43q29 -57 33 -164q0 -16 1 -45t1 -39q2 -47 6 -78q8 -74 45 -104q47 -41 158 -35q14 0 26.5 -9.5t12.5 -24.5t-9.5 -27.5t-25.5 -12.5q-139 -8 -209 51q-57 51 -72 154q-4 33 -6 84q0 10 -1 39t-1 43q-4 92 -24 135q-2 6 -19 16 q-2 2 -41 25q-29 20 -43 35q-29 29 -22 63z" />
<glyph unicode="|" horiz-adv-x="583" d="M-92 265.5q2 15.5 14 24.5t27.5 7t25.5 -14q2 -4 12.5 -19.5t13.5 -18.5t12.5 -15.5t13.5 -16.5t12 -14.5t14 -14.5t13.5 -11t15.5 -12t16 -9q121 -61 260 -21q139 39 211 152q8 12 22.5 15t28 -5t16.5 -22.5t-5 -28.5q-86 -135 -252 -182.5t-313 26.5l-29 16 q-14 8 -27.5 21.5t-21.5 21t-21.5 24.5t-17.5 21.5t-18.5 26t-16.5 21.5q-8 12 -6 27.5zM139 372.5q0 14.5 11.5 26t25.5 11.5t25.5 -11.5t11.5 -26t-11.5 -25.5t-25.5 -11t-25.5 11t-11.5 25.5zM315 379q0 14 11.5 25.5t26 11.5t25.5 -11.5t11 -25.5t-11 -25.5t-25.5 -11.5 t-26 11.5t-11.5 25.5z" />
<glyph unicode="}" horiz-adv-x="530" d="M65.5 -43q2.5 14 14.5 24.5t26 8.5q66 -8 97 0q35 8 71 47q59 59 66 153q2 14 3 56.5t4 79t13 71.5q14 53 95 125l37 31l-52 29q-98 61 -127 129q-14 37 -2 86q2 10 11 32q6 16 6 25q27 133 -33 195q-55 59 -193 59q-14 0 -25 11t-11 25.5t11 26t25 11.5q168 0 248 -82 q84 -88 51 -258q-2 -12 -9 -34t-9 -30q-6 -25 0 -39q18 -47 96 -94l60 -35q14 -8 24 -16q16 -14 21 -33q2 -16 -9 -31q-2 -4 -8 -8l-16 -16l-47 -39q-63 -57 -74 -90q-6 -31 -9 -60.5t-4 -69.5t-3 -61q-8 -121 -86 -202q-51 -53 -109 -66q-43 -10 -121 -2q-14 2 -24.5 14.5 t-8 26.5z" />
<glyph unicode="~" horiz-adv-x="671" d="M115 940q12 49 24 80q27 57 70 76q82 33 158 -23q23 -16 59 -57l39 -39q41 -39 70 -33q51 10 124 117q10 12 24.5 15t27 -6t15.5 -23.5t-5 -26.5q-92 -131 -172 -148q-66 -14 -135 52l-41 43q-31 33 -49 47q-43 31 -86 12q-16 -6 -31 -37q-10 -25 -23 -65 q-2 -16 -15 -23.5t-28.5 -4.5t-22.5 16.5t-3 27.5z" />
<glyph unicode="&#xa1;" horiz-adv-x="116" d="M78 1128.5q0 14.5 11 25.5t25.5 11t26 -11t11.5 -25.5t-11.5 -25.5t-26 -11t-25.5 11t-11 25.5zM84 918q0 14 10 26t24.5 12t27 -10t12.5 -24q6 -106 9 -234.5t3 -214.5t-1 -241.5t-1 -221.5q0 -14 -11.5 -25.5t-25.5 -11.5t-25.5 11.5t-11.5 25.5q0 66 1 220.5t1 240.5 t-3 213t-9 234z" />
<glyph unicode="&#xa2;" horiz-adv-x="489" d="M113.5 286q21.5 77 74.5 140q-10 14 -18 31q-6 14 -2 28.5t17.5 21.5t27.5 3t23 -16q4 -10 8 -17q29 18 57 27q76 20 119 -43q33 -49 6 -92q-25 -37 -78 -37q-55 0 -108 41q-41 -49 -56.5 -108.5t2.5 -123.5q33 -92 142 -80q49 6 95 32t73 59q8 12 23.5 14t27.5 -7 t14 -24.5t-8 -28.5q-35 -45 -95.5 -77.5t-121.5 -38.5q-74 -8 -133.5 21.5t-85.5 105.5q-25 92 -3.5 169zM248 635q0 14 11 25.5t25.5 11.5t26 -11.5t11.5 -25.5t-11.5 -25.5t-26 -11.5t-25.5 11.5t-11 25.5zM291 -120.5q0 14.5 11 25.5t25.5 11t26 -11t11.5 -25.5 t-11.5 -26t-26 -11.5t-25.5 11.5t-11 26zM297 422q27 -16 51 -16q13 0 17 4q-2 4 -7 10q-12 18 -39 12q-10 -4 -22 -10z" />
<glyph unicode="&#xa3;" horiz-adv-x="772" d="M141 6q0 47 37 70q16 10 37 16q33 37 64 103q26 61 40 108l-55 4q-14 2 -24.5 13.5t-8.5 26.5t13.5 25.5t27.5 8.5q31 -2 66 -4q2 14 4 26q2 18 6 64q2 49 4 74q12 96 48 146t96.5 71.5t115.5 11.5q63 -12 90 -59q33 -53 3 -125q-27 -59 -64 -70q-45 -14 -76 31 q-41 59 -26 147q-51 -12 -78 -51q-27 -33 -35 -111q-2 -23 -5 -69.5t-5 -67.5q-2 -10 -2 -20q55 2 114 6q14 2 25.5 -8.5t13.5 -25.5t-8 -26.5t-27 -13.5q-70 -6 -137 -6q-16 -57 -51 -135q-18 -43 -37 -72q35 -2 125 -16q129 -18 197 -17q92 2 131 41q12 10 26.5 10.5 t25.5 -11t11 -26t-10 -26.5q-59 -59 -182 -61q-72 -2 -209 16q-129 20 -168 19h-2l-19 -19q-2 0 -3 -2t-5 -6t-8 -10q-10 -10 -18 -15q-20 -12 -41 2q-16 12 -17 33zM215 6v2v-2zM614 690q-14 -55 11 -98q6 8 10 22q16 39 4 60q-6 12 -25 18v-2z" />
<glyph unicode="&#xa4;" horiz-adv-x="704" d="M196 545.5q-3 15.5 4 29t22.5 16.5t27.5 -3q10 -8 37.5 -22.5t42.5 -22.5q25 33 57 49q86 45 186 -14q18 -10 33 -25q55 74 80 96q10 10 25.5 10t26 -11t10.5 -26.5t-13 -25.5q-14 -14 -25.5 -28.5t-26.5 -36t-26 -33.5q27 -37 37 -78q18 -80 -20 -150q27 -16 69 -49 q12 -8 14.5 -23.5t-7 -27.5t-24.5 -14t-28 8q-37 27 -71 47l-2 -2q-39 -37 -85 -48t-87 1t-78 41q-33 -45 -94 -90q-12 -10 -27.5 -8.5t-25 14t-7.5 28t15 23.5q57 45 88 86q-72 102 -31 203q2 8 4 18l-41 21q-27 14 -43 24q-14 8 -17 23.5zM354 371q6 -49 45 -90 q39 -43 86 -50.5t90 31.5q66 63 48 139q-16 72 -86 113q-66 39 -115 12q-18 -8 -31 -24q6 -21 -6 -35q-2 -4 -4 -7t-6 -5q-8 -10 -13 -23q-6 -27 -8 -59v-2z" />
<glyph unicode="&#xa5;" horiz-adv-x="614" d="M210 656.5q1 15.5 12 24.5t26.5 8t25.5 -11q94 -109 168 -217q18 27 43 76q23 43 66 135q6 14 20.5 19t27.5 -1t18.5 -20.5t-1.5 -26.5q-43 -96 -65 -141q-27 -51 -45 -82l-25 -31l-4 -4v-4q76 16 146 29q14 2 27.5 -7.5t15.5 -23.5t-7.5 -27.5t-23.5 -15.5 q-72 -12 -148 -27l11 -80q63 12 116 13q14 0 25.5 -11.5t11.5 -26t-11 -25.5t-26 -11q-49 0 -108 -12q6 -68 6 -125q0 -14 -11.5 -25.5t-25.5 -11.5t-25.5 11t-11.5 26q0 51 -4 106q-59 -16 -104 -41q-12 -6 -26.5 -2t-22 17.5t-3 28t18.5 22.5q55 31 129 51l-10 80 l-144 -35q-16 -4 -29.5 3t-16.5 22.5t4.5 29t21.5 15.5l154 39l-3 12q-6 8 -11 19.5t-5 13.5q-74 109 -170 217q-8 12 -7 27.5z" />
<glyph unicode="&#xa6;" horiz-adv-x="323" d="M299 31l2 141q2 141 -2 141q0 14 10 26.5t25.5 12.5t27 -10.5t11.5 -24.5q2 -43 2 -90t-1 -106.5t-1 -89.5q0 -14 -11.5 -25.5t-25.5 -11.5t-25.5 11t-11.5 26zM299 881q0 14 10 25.5t25.5 11.5t27 -10.5t11.5 -26.5q2 -74 2 -285q0 -14 -11.5 -25.5t-25.5 -11.5 t-25.5 11.5t-11.5 25.5q0 211 -2 285z" />
<glyph unicode="&#xa7;" horiz-adv-x="569" d="M187.5 119.5q2.5 15.5 15 24t28 5t23.5 -15.5q16 -25 46 -43t58 -22q25 -4 39.5 4t16.5 37q8 63 -52 135q-4 4 -26.5 30.5t-32.5 40t-25.5 38t-21.5 48.5q-33 98 35 164q35 33 88 45l-4 6q-27 43 -39 72q-18 43 -14 74q10 66 54 105.5t99 41.5q59 2 102.5 -38t45.5 -111 q0 -16 -10.5 -27.5t-26 -11.5t-26.5 10.5t-11 24.5q-2 43 -22.5 61.5t-47.5 18.5q-31 -2 -54.5 -23.5t-29.5 -62.5q-2 -8 8 -33q10 -23 35 -64q4 -8 42 -67.5t55 -87.5q55 -102 34 -160q-23 -70 -131 -74q59 -80 49 -164q-8 -61 -51 -90q-37 -25 -90 -16q-43 8 -85 34.5 t-68 63.5q-8 12 -5.5 27.5zM326 422q12 -35 57 -88q8 4 18 4q90 -4 99.5 22.5t-31.5 102.5q-16 29 -47 78q-49 0 -80 -29q-35 -33 -16 -90z" />
<glyph unicode="&#xa8;" horiz-adv-x="247" d="M84 999.5q0 14.5 11 25.5t25.5 11t26 -11t11.5 -25.5t-11.5 -25.5t-26 -11t-25.5 11t-11 25.5zM225 987q0 14 11.5 25.5t25.5 11.5t25.5 -11.5t11.5 -25.5t-11.5 -25.5t-25.5 -11.5t-25.5 11.5t-11.5 25.5z" />
<glyph unicode="&#xa9;" horiz-adv-x="888" d="M328 311q4 143 71 269q66 120 162 157q8 6 19 8q166 20 268 -88q86 -92 96 -243q4 -92 -21.5 -179.5t-88 -156t-150.5 -84.5q-182 -33 -278 72q-82 88 -78 245zM401 309q-4 -127 58 -194q70 -74 213 -47q94 16 149.5 116.5t48.5 225.5q-8 125 -77 198q-72 76 -193 66 q-78 -23 -135 -131q-59 -109 -64 -234zM496 276q-12 70 18 148q33 82 86 108q37 18 72 6t63 -53q8 -12 5 -26.5t-15 -23.5t-26.5 -6t-24.5 15q-14 18 -27 25q-6 2 -14 -2q-29 -14 -51 -70q-23 -59 -15 -108q8 -47 41 -57.5t54 1.5q18 10 49 50q8 12 23.5 14t27.5 -7 t14 -24.5t-8 -27.5q-39 -51 -70 -68q-47 -29 -110 -8q-78 23 -92 114z" />
<glyph unicode="&#xaa;" horiz-adv-x="534" d="M127 881q20 76 86 141q70 66 131 63q43 0 68 -34q20 -31 20 -84q0 -8 -4 -17q4 -8 10 -35q14 -61 31 -81q33 -41 92 -21q14 4 28.5 -2t18.5 -20.5t-2 -28.5t-20 -19q-109 -37 -174 45q-7 7 -11 17q-10 -25 -24 -43q-37 -53 -88 -70q-63 -20 -117 29q-70 61 -45 160z M198.5 862.5q-14.5 -55.5 22.5 -88.5q23 -18 45 -10q27 8 49 39q37 53 39 133v37h4q0 25 -8 35q-2 4 -8 4q-31 2 -78 -43q-51 -51 -65.5 -106.5z" />
<glyph unicode="&#xab;" horiz-adv-x="434" d="M45 424q6 31 59 82q72 70 115 121q10 10 25.5 12t27 -8t13 -25.5t-8.5 -27.5q-47 -53 -120 -125q-33 -33 -37 -41q4 -8 22 -27l58 -49q41 -39 67 -66q12 -10 12.5 -25.5t-10 -26.5t-26 -11t-25.5 10l-72 64q-43 39 -55 53q-51 49 -45 90zM252 434q6 31 59 82 q72 70 115 121q10 10 25.5 12t26.5 -8t13 -25.5t-8 -27.5q-47 -53 -121 -125q-33 -33 -36 -41q4 -8 22 -27l55 -51q43 -37 70 -63q12 -10 12 -25.5t-10 -27t-25.5 -11.5t-25.5 10l-72 64q-43 39 -55 53q-51 49 -45 90z" />
<glyph unicode="&#xac;" horiz-adv-x="657" d="M139 437.5q2 15.5 14.5 24.5t28.5 7q18 -4 94 2q59 4 158 12l148 17q33 4 47 4q10 2 14 2h6h4h6q8 -2 15 -8q23 -16 31 -56q4 -25 6 -63v-60v-38q2 -14 -8.5 -25.5t-25.5 -13.5t-26.5 8t-13.5 26v46v55q-2 31 -6 49v4q-14 0 -41 -4l-148 -14q-109 -10 -161 -15 q-84 -6 -111 -2q-14 2 -23.5 14.5t-7.5 28z" />
<glyph unicode="&#xad;" horiz-adv-x="368" d="M98 263.5q-2 15.5 8.5 26.5t24.5 13q47 4 254 4q14 0 25.5 -11t11.5 -25.5t-11.5 -26t-25.5 -11.5q-203 0 -246 -4q-16 -2 -27.5 8.5t-13.5 26z" />
<glyph unicode="&#xae;" horiz-adv-x="888" d="M328 311q4 143 71 269q66 120 162 157q8 6 19 8q166 20 268 -88q86 -92 96 -243q4 -92 -21.5 -179.5t-88 -156t-150.5 -84.5q-182 -33 -278 72q-82 88 -78 245zM401 309q-4 -127 58 -194q70 -74 213 -47q94 16 149.5 116.5t48.5 225.5q-8 125 -77 198q-72 76 -193 66 q-78 -23 -135 -131q-59 -109 -64 -234zM504 470q2 16 14 24q57 45 119 57q47 8 78 -12q39 -27 35 -86q-4 -63 -70 -107q25 -23 49 -59q12 -20 29 -51q20 -37 24 -43q6 -12 3 -27.5t-16 -23t-28.5 -4.5t-23.5 18l-23 43q-16 31 -28 47q-4 6 -11.5 20.5t-11.5 20.5t-11 15 t-11.5 7t-10.5 -4q-2 0 -2 -2h-4h-4v-18v-21v-16v-70q2 -14 -8 -25.5t-25.5 -13.5t-27 8.5t-13.5 26.5v74v121v43q-10 10 -10 26l-4 4q-10 12 -8 28zM598 457q0 -18 2 -66h8h2q63 25 66 66q0 16 -2 20q-6 4 -23 0q-23 -4 -53 -20z" />
<glyph unicode="&#xaf;" horiz-adv-x="493" d="M74 1070q2 15 13.5 25.5t27.5 8.5q70 -6 192 2q156 10 203 10q14 0 25.5 -11t11.5 -25.5t-11.5 -26t-25.5 -11.5q-37 0 -197 -10q-127 -8 -207 -2q-14 2 -24 13.5t-8 26.5z" />
<glyph unicode="&#xb0;" horiz-adv-x="307" d="M74 999q27 59 104 101q6 8 17 10q8 4 18 8q29 11 45 -14q88 -25 121 -111q23 -49 4.5 -107.5t-78.5 -92.5q-63 -35 -126.5 -9.5t-96.5 80.5q-39 68 -8 135zM141 969q-14 -33 4 -68q20 -35 58.5 -49t64.5 2q70 43 43 115q-12 29 -37.5 47t-58.5 20q-57 -31 -74 -67z" />
<glyph unicode="&#xb1;" horiz-adv-x="681" d="M203 391.5q0 14.5 11 25.5t26 11q61 0 141 16l-16 101q-12 63 -19 94q-2 16 6 28.5t23.5 15.5t28 -5t16.5 -23l18 -102q10 -63 15 -90q111 27 170 33q14 2 26.5 -8.5t14.5 -24.5t-8.5 -26.5t-24.5 -14.5q-53 -6 -162 -31q20 -74 53 -131v-2q98 14 168 29q14 2 26.5 -6.5 t15.5 -23.5t-5 -27.5t-25 -16.5q-82 -14 -235.5 -37.5t-218.5 -36.5q-14 -2 -26.5 7.5t-15.5 23.5t6 26.5t24 16.5q68 12 210 33q-29 57 -49 127q-88 -18 -157 -19q-14 0 -25.5 11.5t-11.5 26z" />
<glyph unicode="&#xb2;" horiz-adv-x="509" d="M74 678q2 8 8 18q8 14 24 37l23 27l27 35l26 30q49 61 74 99q29 45 27 61q0 6 -2 6q-12 2 -43 -6q-61 -16 -99 -47q-10 -10 -25.5 -8t-25.5 13t-8 26.5t14 25.5q47 39 123 62q49 14 82 6q53 -14 57 -74q2 -41 -39 -104q-25 -41 -77 -107l-64 -76q23 6 41 5q20 -4 78 -19 q53 -12 82 -16h4q8 63 41 98t78 27q43 -6 61.5 -46t-10.5 -85q-55 -82 -182 -68q-35 4 -93 18q-53 14 -71 17q-2 0 -10 -2q-6 -2 -16.5 -6t-12.5 -4q-25 -8 -41 -9q-35 0 -49 31q-8 16 -2 35zM459 680q18 8 30 27q10 16 -2 18q-18 -18 -28 -45z" />
<glyph unicode="&#xb3;" horiz-adv-x="413" d="M94 948.5q0 14.5 10 26.5q49 47 129 76q51 16 86 8q53 -12 66 -72q10 -61 -33 -108q49 -18 84 -68q47 -70 23 -137q-14 -39 -53 -70t-76 -45q-100 -39 -164 -14.5t-68 86.5q-2 27 13.5 50.5t46.5 27.5q55 6 108 -70q6 -10 6 -21q14 4 29 11q29 10 55.5 30.5t32.5 38.5 q12 33 -14.5 72t-61.5 43q-4 2 -30 -10q-47 -20 -80 -8q-18 8 -23 26q-6 20 8 37q8 8 21 14q6 2 10 5l6 4h2q59 39 68 47q23 20 16 47q-2 10 -8 12q-16 4 -45 -6q-66 -23 -100 -59q-12 -10 -26.5 -10.5t-26 11t-11.5 26zM172 633q4 -12 21 -19v-2q-10 14 -21 21z" />
<glyph unicode="&#xb4;" horiz-adv-x="231" d="M98 860q6 27 15.5 51.5t25 50t22.5 39t29.5 44t26.5 36.5q8 12 23.5 15.5t28 -5t15.5 -24t-5 -27.5q-6 -10 -28 -39.5t-29 -41t-19.5 -34t-19.5 -41t-11 -40.5q-4 -14 -17.5 -22.5t-27.5 -5.5t-22.5 16.5t-6.5 27.5z" />
<glyph unicode="&#xb5;" horiz-adv-x="546" d="M109 -70q66 199 55 525q0 10 4 18q2 31 31 35q16 2 28.5 -7.5t14.5 -23.5q4 -37 2 -188q-2 -113 20 -162q16 -39 74 -47q45 -8 70 22q27 31 38 99q18 106 0 250q-2 14 7.5 26t25 14.5t27.5 -7t14 -25.5q20 -156 0 -271q-8 -45 -22 -77q12 -12 25.5 -23.5t32.5 -26 t31.5 -24.5t14.5 -24.5t-8 -27t-24.5 -14.5t-26.5 9q-4 4 -37 27.5t-49 39.5q-51 -53 -131 -41q-70 12 -109 57q-14 -86 -39 -157q-4 -14 -18.5 -20.5t-28.5 -2.5t-20.5 18.5t-1.5 28.5z" />
<glyph unicode="&#xb6;" horiz-adv-x="694" d="M203.5 448.5q13.5 57.5 56.5 110.5q92 119 223 141q162 27 262 -120q8 -12 5.5 -27.5t-15.5 -24.5q-4 -4 -10 -4q33 -272 33 -514q0 -14 -11.5 -25.5t-25.5 -11.5t-25.5 11.5t-11.5 25.5q0 131 -10 269q-2 0 -38 -14.5t-56 -20.5q4 -121 4 -226q0 -14 -11.5 -25t-26 -11 t-25.5 11t-11 25q0 98 -4 211q-231 -14 -291 103q-25 59 -11.5 116.5zM281 365q37 -74 221 -62h2l-19 313v9q-98 -20 -168 -111q-70 -88 -36 -149zM557 627q2 -2 2 -6q12 -195 16 -302q8 4 38 15.5t49 17.5q4 2 6 2q-8 98 -23 205q-2 10 4 21q-41 39 -92 47z" />
<glyph unicode="&#xb7;" horiz-adv-x="139" d="M117 454.5q0 14.5 11 26t25.5 11.5t25.5 -11.5t11 -26t-11 -25.5t-25.5 -11t-25.5 11t-11 25.5z" />
<glyph unicode="&#xb8;" horiz-adv-x="90" d="M-40 -119.5q5 13.5 20 19.5q59 29 77 67q12 29 17 117q0 14 11 24.5t26.5 10.5t25.5 -11.5t10 -27.5q-4 -100 -22 -141q-29 -68 -117 -105q-14 -6 -27.5 -1t-19.5 19.5t-1 28z" />
<glyph unicode="&#xb9;" horiz-adv-x="446" d="M158 656.5q0 15.5 10 26.5t25 11q49 2 114 11q-2 137 -2 157q-2 63 -6 103q0 4 -2 8l-14 -10q-16 -10 -38 -27.5t-24 -17.5q-12 -8 -26.5 -5.5t-23.5 15t-6 27t15 24.5l21 16l39 29l43 27q10 6 20 8q25 8 43 -8q12 -10 21 -37q2 -16 6 -43q4 -39 6 -107q0 -35 2 -149 q37 4 76 8q16 2 27.5 -8t13.5 -25.5t-8.5 -27t-24.5 -13.5q-6 0 -133 -16q-82 -10 -135 -12q-16 0 -27.5 10t-11.5 25.5z" />
<glyph unicode="&#xba;" horiz-adv-x="401" d="M199 862q4 25 10 53q-14 23 0 43q6 8 14 15l2 16q4 14 17.5 22.5t27.5 6.5l9 -4q14 8 30 8q53 6 99 -37q37 -37 52 -95.5t-1 -119.5q-8 -39 -36 -65.5t-65 -36.5q-35 -14 -74.5 -1t-66.5 50q-33 47 -18 145zM272 852q-10 -70 7 -94q20 -31 59 -21q41 12 51 49q8 47 -1 86 t-32 62q-20 18 -39 16q-14 -2 -28 -14q-12 -49 -17 -84z" />
<glyph unicode="&#xbb;" horiz-adv-x="415" d="M20.5 257.5q0.5 15.5 12.5 25.5q49 47 135 118q25 18 31 27l4 4q-6 10 -23 29q-100 113 -112 129q-10 10 -8.5 25.5t13 25.5t27 8t25.5 -14q20 -25 111 -125q20 -25 30 -39q14 -27 10 -49.5t-22 -42.5q-12 -12 -39 -35q-104 -88 -133 -115q-10 -10 -25.5 -10t-26 11.5 t-10 27zM244 253.5q-2 15.5 8 27.5q14 14 108 116q33 35 33 45q2 10 -20 35q-18 23 -113 111q-12 10 -12 25.5t10 26.5t25.5 11t25.5 -10q98 -90 119 -115q45 -51 39 -94q-4 -35 -53 -86q-92 -100 -105 -115q-10 -10 -25.5 -12t-26.5 8.5t-13 26z" />
<glyph unicode="&#xbc;" horiz-adv-x="847" d="M184 11.5q-2 15.5 9 27.5q190 242 491 729q8 14 22.5 17t28 -5t16 -22.5t-5.5 -26.5q-301 -492 -495 -737q-8 -12 -23.5 -14.5t-28 7t-14.5 25zM274 537q12 88 13 213q0 14 11 25t25.5 11t25.5 -11t11 -25q0 -127 -12 -222q-2 -16 -14 -25t-27.5 -7t-25 14t-7.5 27z M598 279v4v8q2 6 4 18q2 14 8 51q12 74 13 78q0 14 11 24.5t26.5 10.5t25.5 -11.5t10 -27.5q0 -8 -14 -86q-6 -37 -8 -51v-2q4 -2 8 -2q20 -6 59 -8h27q-2 68 -6 143q0 16 10 27.5t25.5 11.5t27 -10.5t11.5 -24.5q4 -80 6 -151q18 0 30 -2q14 -4 22.5 -17.5t5.5 -28 t-16.5 -22.5t-27.5 -6q-4 2 -8 2q4 -80 10 -156q2 -14 -8 -25.5t-25.5 -13.5t-27 8.5t-13.5 26.5q-6 78 -12 164h-35q-47 4 -73 10q-49 12 -62 43z" />
<glyph unicode="&#xbd;" horiz-adv-x="839" d="M184 11.5q-2 15.5 9 27.5q190 242 491 729q8 14 22.5 17t28 -5t16 -22.5t-5.5 -26.5q-301 -492 -495 -737q-8 -12 -23.5 -14.5t-28 7t-14.5 25zM274 537q12 88 13 213q0 14 11 25t25.5 11t25.5 -11t11 -25q0 -127 -12 -222q-2 -16 -14 -25t-27.5 -7t-25 14t-7.5 27z M559 49l2 14q2 2 3 4.5t3 4.5l6 14l27 45q41 74 66 129q31 74 30 109v4q-4 0 -12 -2q-6 0 -10 -2t-9.5 -5.5t-7.5 -5.5t-9 -10t-13 -14q-10 -12 -25.5 -12t-27 10t-11 25.5t10.5 25.5q2 4 11 14.5t13 14.5t14.5 11t21.5 12t26 9q47 10 75 -12q27 -20 27 -63q2 -49 -37 -140 l-55 -110h2q20 -2 49 -8l41 -7q12 -2 31.5 1.5t40.5 11.5q14 4 28.5 -1t19.5 -19.5t0 -29t-20 -20.5q-29 -10 -58.5 -14t-48 -2t-50 7t-41.5 7q-16 2 -27 0q-2 -4 -8 -12l-16 -17q-4 -4 -11 -6q-18 -4 -32 4q-12 8 -17 23q-2 6 -2 12z" />
<glyph unicode="&#xbe;" horiz-adv-x="847" d="M162 431q2 15 14 24.5t29 7.5q43 -8 65 -8q37 -2 54 4q27 14 20 45q-6 35 -35 51q-4 -2 -8 -2h-4q-14 -4 -27 -2q-25 6 -34 31q-8 20 6 36q4 4 8 7q2 2 8 4l12 8q18 8 29 16q12 10 14 17q2 4 -4 12q-10 14 -32.5 10t-59.5 -24q-12 -8 -27.5 -5t-22.5 16t-4 28.5t17 21.5 q47 29 82 35q70 14 109 -41q27 -37 12 -76q-6 -20 -25 -39q47 -33 60 -90q6 -39 -9.5 -73.5t-56.5 -51.5q-31 -14 -86 -12q-27 2 -73 8q-14 2 -23.5 14.5t-7.5 27.5zM184 11.5q-2 15.5 9 27.5q190 242 491 729q8 14 22.5 17t28 -5t16 -22.5t-5.5 -26.5q-301 -492 -495 -737 q-8 -12 -23.5 -14.5t-28 7t-14.5 25zM598 279v4v8q2 6 4 18q2 14 8 51q12 74 13 78q0 14 11 24.5t26.5 10.5t25.5 -11.5t10 -27.5q0 -8 -14 -86q-6 -37 -8 -51v-2q4 -2 8 -2q20 -6 59 -8h27q-2 68 -6 143q0 16 10 27.5t25.5 11.5t27 -10.5t11.5 -24.5q4 -80 6 -151 q18 0 30 -2q14 -4 22.5 -17.5t5.5 -28t-16.5 -22.5t-27.5 -6q-4 2 -8 2q4 -80 10 -156q2 -14 -8 -25.5t-25.5 -13.5t-27 8.5t-13.5 26.5q-6 78 -12 164h-35q-47 4 -73 10q-49 12 -62 43z" />
<glyph unicode="&#xbf;" horiz-adv-x="512" d="M123 203q6 49 34.5 93t55.5 64l72 58q47 33 68.5 50t44 45t26.5 56q8 12 4 92t-4 103q0 16 11 26.5t26.5 10.5t26 -11.5t10.5 -25.5q0 -2 4 -99.5t-4 -107.5q-6 -35 -22.5 -63.5t-48.5 -57t-44 -39t-55 -41.5q-63 -45 -97 -80q-31 -35 -34 -81q-6 -63 32 -99 q37 -33 101 -37q38 -1 73 7q-14 72 4.5 121t67.5 55q43 6 75 -28t23 -81q-14 -76 -94 -117q-70 -37 -153 -30q-90 6 -146 55q-68 61 -57 162zM424 962.5q0 14.5 11 25.5t25.5 11t26 -11t11.5 -25.5t-11.5 -25.5t-26 -11t-25.5 11t-11 25.5zM473 100q23 20 27 45 q2 10 -3.5 16.5t-11.5 6.5q-23 -6 -12 -68z" />
<glyph unicode="&#xc0;" horiz-adv-x="659" d="M164 188q12 86 65 174q-12 12 -24 29q-8 12 -5 26.5t15 24t26.5 6t24.5 -15.5l6 -8q39 51 84 80q88 57 170 18q33 -14 43 -47q8 -29 -4 -59q-20 -53 -82 -90q-66 -41 -135 -31q-33 4 -61 20q-39 -72 -49 -137q-12 -70 14 -98q45 -49 106 -14q59 31 101.5 102.5 t50.5 120.5v30v5v2q0 4 2 10t8 10q14 16 35 12q14 -4 23 -16q2 -2 4 -6l2 -8v-4v-13q2 -16 0 -26q4 -88 20 -146q14 -47 33.5 -66.5t46.5 -15.5q16 2 28.5 -7t14.5 -24.5t-7 -27.5t-24 -14q-119 -18 -164 135q-2 8 -4 20l-6 -8q-51 -88 -127 -131q-113 -61 -196 31 q-51 53 -35 157zM328 377q14 -6 30 -8q43 -6 86 20q41 23 52 53q4 8 2 11q0 2 -4 4q-43 20 -97 -17q-36 -22 -69 -63zM373 709.5q-2 15.5 7 28t24.5 14t27.5 -8.5q86 -66 146 -90q14 -6 19 -20.5t0 -28.5t-19.5 -19t-28.5 -1q-68 29 -162 102q-12 8 -14 23.5z" />
<glyph unicode="&#xc1;" horiz-adv-x="659" d="M164 188q12 86 65 174q-12 12 -24 29q-8 12 -5 26.5t15 24t26.5 6t24.5 -15.5l6 -8q39 51 84 80q88 57 170 18q33 -14 43 -47q8 -29 -4 -59q-20 -53 -82 -90q-66 -41 -135 -31q-33 4 -61 20q-39 -72 -49 -137q-12 -70 14 -98q45 -49 106 -14q59 31 101.5 102.5 t50.5 120.5v30v5v2q0 4 2 10t8 10q14 16 35 12q14 -4 23 -16q2 -2 4 -6l2 -8v-4v-13q2 -16 0 -26q4 -88 20 -146q14 -47 33.5 -66.5t46.5 -15.5q16 2 28.5 -7t14.5 -24.5t-7 -27.5t-24 -14q-119 -18 -164 135q-2 8 -4 20l-6 -8q-51 -88 -127 -131q-113 -61 -196 31 q-51 53 -35 157zM299 621.5q0 15.5 10.5 26.5t24.5 11q31 2 49 12.5t55 43.5q12 8 27.5 7t25 -12.5t8.5 -26.5t-12 -26l-45 -34q-12 -10 -40.5 -22.5t-63.5 -14.5q-16 0 -27.5 10t-11.5 25.5zM328 377q14 -6 30 -8q43 -6 86 20q41 23 52 53q4 8 2 11q0 2 -4 4 q-43 20 -97 -17q-36 -22 -69 -63z" />
<glyph unicode="&#xc2;" horiz-adv-x="659" d="M164 188q12 86 65 174q-12 12 -24 29q-8 12 -5 26.5t15 24t26.5 6t24.5 -15.5l6 -8q39 51 84 80q88 57 170 18q33 -14 43 -47q8 -29 -4 -59q-20 -53 -82 -90q-66 -41 -135 -31q-33 4 -61 20q-39 -72 -49 -137q-12 -70 14 -98q45 -49 106 -14q59 31 101.5 102.5 t50.5 120.5v30v5v2q0 4 2 10t8 10q14 16 35 12q14 -4 23 -16q2 -2 4 -6l2 -8v-4v-13q2 -16 0 -26q4 -88 20 -146q14 -47 33.5 -66.5t46.5 -15.5q16 2 28.5 -7t14.5 -24.5t-7 -27.5t-24 -14q-119 -18 -164 135q-2 8 -4 20l-6 -8q-51 -88 -127 -131q-113 -61 -196 31 q-51 53 -35 157zM307 617.5q0 15.5 10 25.5q20 23 62 74q35 45 57.5 56t46.5 5q20 -4 41 -24q29 -27 74 -105q6 -14 2 -28.5t-17.5 -21.5t-27.5 -3t-23 16q-37 68 -59 88l-6 7q-8 -6 -31 -35q-45 -57 -65 -78q-10 -12 -25.5 -12t-27 10t-11.5 25.5zM328 377q14 -6 30 -8 q43 -6 86 20q41 23 52 53q4 8 2 11q0 2 -4 4q-43 20 -97 -17q-36 -22 -69 -63z" />
<glyph unicode="&#xc3;" horiz-adv-x="659" d="M164 188q12 86 65 174q-12 12 -24 29q-8 12 -5 26.5t15 24t26.5 6t24.5 -15.5l6 -8q39 51 84 80q88 57 170 18q33 -14 43 -47q8 -29 -4 -59q-20 -53 -82 -90q-66 -41 -135 -31q-33 4 -61 20q-39 -72 -49 -137q-12 -70 14 -98q45 -49 106 -14q59 31 101.5 102.5 t50.5 120.5v30v5v2q0 4 2 10t8 10q14 16 35 12q14 -4 23 -16q2 -2 4 -6l2 -8v-4v-13q2 -16 0 -26q4 -88 20 -146q14 -47 33.5 -66.5t46.5 -15.5q16 2 28.5 -7t14.5 -24.5t-7 -27.5t-24 -14q-119 -18 -164 135q-2 8 -4 20l-6 -8q-51 -88 -127 -131q-113 -61 -196 31 q-51 53 -35 157zM301 605.5q-2 15.5 8 25.5q53 66 103 71q37 4 82 -26q31 -23 43 -25q20 -2 55 25q10 10 25.5 8t25.5 -13.5t8 -26.5t-14 -26q-57 -47 -113 -38q-27 4 -71 34q-23 16 -33 15q-18 -2 -53 -43q-10 -12 -25.5 -14.5t-27 8t-13.5 26zM328 377q14 -6 30 -8 q43 -6 86 20q41 23 52 53q4 8 2 11q0 2 -4 4q-43 20 -97 -17q-36 -22 -69 -63z" />
<glyph unicode="&#xc4;" horiz-adv-x="659" d="M164 188q12 86 65 174q-12 12 -24 29q-8 12 -5 26.5t15 24t26.5 6t24.5 -15.5l6 -8q39 51 84 80q88 57 170 18q33 -14 43 -47q8 -29 -4 -59q-20 -53 -82 -90q-66 -41 -135 -31q-33 4 -61 20q-39 -72 -49 -137q-12 -70 14 -98q45 -49 106 -14q59 31 101.5 102.5 t50.5 120.5v30v5v2q0 4 2 10t8 10q14 16 35 12q14 -4 23 -16q2 -2 4 -6l2 -8v-4v-13q2 -16 0 -26q4 -88 20 -146q14 -47 33.5 -66.5t46.5 -15.5q16 2 28.5 -7t14.5 -24.5t-7 -27.5t-24 -14q-119 -18 -164 135q-2 8 -4 20l-6 -8q-51 -88 -127 -131q-113 -61 -196 31 q-51 53 -35 157zM328 377q14 -6 30 -8q43 -6 86 20q41 23 52 53q4 8 2 11q0 2 -4 4q-43 20 -97 -17q-36 -22 -69 -63zM350 645q0 14 11.5 25.5t25.5 11.5t25.5 -11.5t11.5 -25.5t-11.5 -25.5t-25.5 -11.5t-25.5 11.5t-11.5 25.5zM487 645q0 14 11.5 25.5t26 11.5t25.5 -11.5 t11 -25.5t-11 -25.5t-25.5 -11.5t-26 11.5t-11.5 25.5z" />
<glyph unicode="&#xc5;" horiz-adv-x="659" d="M164 188q12 86 65 174q-12 12 -24 29q-8 12 -5 26.5t15 24t26.5 6t24.5 -15.5l6 -8q39 51 84 80q88 57 170 18q33 -14 43 -47q8 -29 -4 -59q-20 -53 -82 -90q-66 -41 -135 -31q-33 4 -61 20q-39 -72 -49 -137q-12 -70 14 -98q45 -49 106 -14q59 31 101.5 102.5 t50.5 120.5v30v5v2q0 4 2 10t8 10q14 16 35 12q14 -4 23 -16q2 -2 4 -6l2 -8v-4v-13q2 -16 0 -26q4 -88 20 -146q14 -47 33.5 -66.5t46.5 -15.5q16 2 28.5 -7t14.5 -24.5t-7 -27.5t-24 -14q-119 -18 -164 135q-2 8 -4 20l-6 -8q-51 -88 -127 -131q-113 -61 -196 31 q-51 53 -35 157zM303 616q-33 41 4 86q27 34 72 52q10 16 29 18q82 8 129 -16q55 -29 43 -86q-10 -45 -62.5 -71t-118.5 -21q-72 4 -96 38zM328 377q14 -6 30 -8q43 -6 86 20q41 23 52 53q4 8 2 11q0 2 -4 4q-43 20 -97 -17q-36 -22 -69 -63zM367 657q12 -4 36 -6 q35 -2 59.5 6.5t34 16.5t11.5 12v2q-2 0 -6 2q-6 4 -17 6q-10 -6 -20 -4q-29 4 -57.5 -7t-40.5 -28z" />
<glyph unicode="&#xc6;" horiz-adv-x="888" d="M160 188q12 86 65 172v2q-10 12 -22 29q-8 12 -5 26.5t15 24t26.5 6t24.5 -15.5q2 -4 6 -8q39 45 82 74q88 57 170 30q35 -12 47 -45q0 -4 2 -8q27 31 62 47q41 18 85 19.5t80 -24t44 -73.5q8 -57 -19.5 -106t-74.5 -82q-78 -53 -162 -45q6 -49 24 -82q43 -63 105 -80 q96 -27 174 68q10 12 25.5 14t26.5 -8t13 -25.5t-8 -25.5q-53 -66 -118.5 -89.5t-133.5 -5.5q-74 20 -129 89q-4 2 -8 8t-10 16q-14 20 -25 43l-2 -2q-51 -88 -127 -131q-113 -61 -196 31q-51 55 -37 157zM232.5 177q-9.5 -66 17.5 -97q45 -49 106 -14q59 31 103 102 q35 61 47 106q-2 41 6 78q-12 -12 -27 -20q-66 -45 -137 -37q-33 4 -63 20q-43 -72 -52.5 -138zM328 377q14 -6 28 -8q45 -6 88 24q39 25 52 58q2 4 2 8q-47 14 -105 -23q-35 -23 -65 -59zM582 285q61 -12 125 32q72 49 61 115q-4 23 -30.5 33t-71.5 -8q-70 -35 -84 -133 v-13q2 -16 0 -26z" />
<glyph unicode="&#xc7;" horiz-adv-x="489" d="M113.5 286q21.5 77 74.5 140q-10 14 -18 31q-6 14 -2 28.5t17.5 21.5t27.5 3t23 -16q4 -10 8 -17q29 18 57 27q76 20 119 -43q33 -49 6 -92q-25 -37 -78 -37q-55 0 -108 41q-41 -49 -56.5 -108.5t2.5 -123.5q33 -92 142 -80q49 6 95 32t73 59q8 12 23.5 14t27.5 -7 t14 -24.5t-8 -28.5q-35 -45 -93.5 -76.5t-121.5 -39.5q0 -47 -23 -82q-27 -37 -82 -64q-14 -6 -28.5 -1t-20.5 18.5t-1 28t18 20.5q39 18 53 39q10 16 10 41q-109 18 -147 127q-25 92 -3.5 169zM297 422q27 -16 51 -16q13 0 17 4q-2 4 -7 10q-12 18 -39 12q-10 -4 -22 -10z " />
<glyph unicode="&#xc8;" horiz-adv-x="518" d="M109 246q12 92 67 174q59 86 129 102q86 18 117 -43q25 -47 -6 -117q-27 -63 -89.5 -111t-142.5 -52h-4q0 -53 27 -86q43 -53 149 -52q90 2 160 107q8 12 23.5 15t28 -5t15.5 -23.5t-5 -27.5q-90 -137 -222 -139q-141 -2 -206 78q-55 70 -41 180zM190 272q53 6 96.5 41 t61.5 78q16 37 8 55l-2 3q-2 2 -10 3t-22 -3q-41 -8 -84 -72q-34 -48 -48 -105zM201 675.5q0 14.5 11 26t25.5 11t26.5 -10.5q49 -51 144 -65q14 -2 23 -14.5t7 -27.5t-14 -24.5t-29 -7.5q-117 18 -184 86q-10 12 -10 26.5z" />
<glyph unicode="&#xc9;" horiz-adv-x="518" d="M109 246q12 92 67 174q59 86 129 102q86 18 117 -43q25 -47 -6 -117q-27 -63 -89.5 -111t-142.5 -52h-4q0 -53 27 -86q43 -53 149 -52q90 2 160 107q8 12 23.5 15t28 -5t15.5 -23.5t-5 -27.5q-90 -137 -222 -139q-141 -2 -206 78q-55 70 -41 180zM162 584.5q-4 15.5 2 29 t20 17.5q23 8 44.5 19.5t33.5 21.5l39 33q25 23 41 34q12 10 26.5 8t24.5 -14t8 -26.5t-14 -24.5q-10 -8 -36.5 -31.5t-43 -36t-44 -29t-54.5 -24.5q-16 -4 -29.5 2t-17.5 21.5zM190 272q53 6 96.5 41t61.5 78q16 37 8 55l-2 3q-2 2 -10 3t-22 -3q-41 -8 -84 -72 q-34 -48 -48 -105z" />
<glyph unicode="&#xca;" horiz-adv-x="518" d="M109 246q12 92 67 174q59 86 129 102q86 18 117 -43q25 -47 -6 -117q-27 -63 -89.5 -111t-142.5 -52h-4q0 -53 27 -86q43 -53 149 -52q90 2 160 107q8 12 23.5 15t28 -5t15.5 -23.5t-5 -27.5q-90 -137 -222 -139q-141 -2 -206 78q-55 70 -41 180zM157 582.5 q-3 15.5 5 27.5q16 25 37.5 62t23.5 39q12 20 23 32q16 20 37 25q25 6 47 -10q14 -10 30 -31q16 -23 72 -111q8 -14 5 -28.5t-16 -22.5t-27.5 -5t-22.5 15q-53 86 -70 107q-2 4 -4 6q-6 -6 -12 -16q0 -2 -23 -39l-39 -64q-8 -12 -23.5 -15t-27.5 5t-15 23.5zM190 272 q53 6 96.5 41t61.5 78q16 37 8 55l-2 3q-2 2 -10 3t-22 -3q-41 -8 -84 -72q-34 -48 -48 -105z" />
<glyph unicode="&#xcb;" horiz-adv-x="518" d="M109 246q12 92 67 174q59 86 129 102q86 18 117 -43q25 -47 -6 -117q-27 -63 -89.5 -111t-142.5 -52h-4q0 -53 27 -86q43 -53 149 -52q90 2 160 107q8 12 23.5 15t28 -5t15.5 -23.5t-5 -27.5q-90 -137 -222 -139q-141 -2 -206 78q-55 70 -41 180zM190 272q53 6 96.5 41 t61.5 78q16 37 8 55l-2 3q-2 2 -10 3t-22 -3q-41 -8 -84 -72q-34 -48 -48 -105zM203 600q0 14 11 25.5t25.5 11.5t25.5 -11.5t11 -25.5t-11 -25.5t-25.5 -11.5t-25.5 11.5t-11 25.5zM328 606.5q0 14.5 11 25.5t25.5 11t25.5 -11t11 -25.5t-11 -26t-25.5 -11.5t-25.5 11.5 t-11 26z" />
<glyph unicode="&#xcc;" horiz-adv-x="256" d="M43 691.5q-2 15.5 7 27.5t24.5 14t27.5 -8q25 -18 117 -76q12 -8 15.5 -22.5t-5 -27.5t-22.5 -16t-29 5q-94 59 -121 80q-12 8 -14 23.5zM110 338.5q1 46.5 3 95.5t2 60q0 14 11 25t25.5 11t25.5 -11t11 -25q0 -10 -2 -58.5t-3 -94.5t1 -108q2 -90 13 -135q6 -18 12 -28 q10 4 16 22l6 31q4 31 5 39q4 14 16 22.5t27.5 5t23.5 -15.5t6 -29q-2 -4 -5 -30.5t-9 -42.5q-18 -66 -80 -76q-37 -6 -63 27q-16 20 -25 57q-14 53 -16 151q-2 61 -1 107.5z" />
<glyph unicode="&#xcd;" horiz-adv-x="256" d="M59.5 624.5q2.5 14.5 14.5 24.5l35 29q10 6 12 10l12 10l29 33q10 12 25.5 12t26.5 -10t11 -25.5t-10 -25.5l-27 -31q-10 -12 -16 -16l-18 -17l-35 -26q-12 -10 -26.5 -8t-25 14t-8 26.5zM110 338.5q1 46.5 3 95.5t2 60q0 14 11 25t25.5 11t25.5 -11t11 -25 q0 -10 -2 -58.5t-3 -94.5t1 -108q2 -90 13 -135q6 -18 12 -28q10 4 16 22l6 31q4 31 5 39q4 14 16 22.5t27.5 5t23.5 -15.5t6 -29q-2 -4 -5 -30.5t-9 -42.5q-18 -66 -80 -76q-37 -6 -63 27q-16 20 -25 57q-14 53 -16 151q-2 61 -1 107.5z" />
<glyph unicode="&#xce;" horiz-adv-x="256" d="M21 577.5q-4 14.5 2 28.5q43 74 57 94q33 45 70 41q33 -4 63 -49q6 -8 59 -94q8 -14 5 -28.5t-16 -22.5t-27.5 -5t-22.5 15q-53 86 -58.5 93t-9.5 12l-4 -5q-12 -18 -51 -88q-8 -12 -22.5 -16t-27.5 3t-17 21.5zM112 338.5q1 46.5 3 95.5t2 60q0 14 11 25t25.5 11 t25.5 -11t11 -25q0 -10 -2 -58.5t-3 -94.5t1 -108q2 -90 13 -135q6 -18 12 -28q10 4 16 22l6 31q4 31 5 39q4 14 16 22.5t27.5 5t23.5 -15.5t6 -29q-2 -4 -5 -30.5t-9 -42.5q-18 -66 -80 -76q-37 -6 -63 27q-16 20 -25 57q-14 53 -16 151q-2 61 -1 107.5z" />
<glyph unicode="&#xcf;" horiz-adv-x="256" d="M53 651.5q0 14.5 11.5 25.5t25.5 11t25.5 -11t11.5 -25.5t-11.5 -26t-25.5 -11.5t-25.5 11.5t-11.5 26zM108 338.5q1 46.5 3 95.5t2 60q0 14 11 25t25.5 11t25.5 -11t11 -25q0 -10 -2 -58.5t-3 -94.5t1 -108q2 -90 13 -135q6 -18 12 -28q10 4 16 22l6 31q4 31 4 39 q4 14 16.5 22.5t28 5t23.5 -15.5t6 -29q-2 -4 -5 -30.5t-9 -42.5q-18 -66 -80 -76q-37 -6 -63 27q-16 20 -25 57q-14 53 -16 151q-2 61 -1 107.5zM164 649.5q0 14.5 11 25.5t25.5 11t26 -11t11.5 -25.5t-11.5 -26t-26 -11.5t-25.5 11.5t-11 26z" />
<glyph unicode="&#xd0;" horiz-adv-x="475" d="M-12 215q0 14 11 25.5t26 11.5q26 0 53 2q2 86 43 156q31 49 77 76.5t99 19.5q74 -8 139 -84q0 66 10 381q-63 33 -91.5 101.5t-26.5 137.5q2 74 32 113q20 29 51 33t62 -17q29 -23 39 -84q8 -43 10 -106q2 -45 -2 -178q0 -14 -4 -127t-4 -143.5t-1 -124t0 -143.5 t5 -122.5t10 -134.5q2 -16 -8 -27.5t-25.5 -13.5t-26.5 8.5t-13 24.5v10q-100 -61 -205 -16q-131 57 -162 186q-31 -2 -61 -2q-14 0 -25.5 11.5t-11.5 25.5zM152 264q27 6 59 12q14 4 27.5 -3t16.5 -22t-4 -28.5t-24 -15.5q-36 -11 -67 -17q25 -88 116 -127q84 -37 168 31 q-6 90 -8 195q-72 135 -147 145q-61 8 -105 -63q-29 -49 -32 -107zM401 1040q-3 -94 48 -147q2 45 0 84q-2 59 -9 96l-12 37l-6 4l-2 -2q-16 -23 -19 -72z" />
<glyph unicode="&#xd1;" horiz-adv-x="589" d="M156 457q-4 14 1 28.5t19 19.5t28.5 0t20.5 -20q16 -39 33 -90q35 45 74 72q74 55 145 41q121 -27 156 -223q20 -109 14 -267q0 -14 -11 -24t-26.5 -10t-26 11t-10.5 28q6 150 -12 249q-27 147 -100 162q-39 8 -86 -26.5t-86 -98.5l26 -88q27 -104 21 -162 q-6 -43 -31 -63q-29 -27 -76 -12q-33 8 -53 49q-27 63 -16.5 135.5t49.5 148.5q-27 76 -53 140zM227.5 600.5q0.5 14.5 10.5 26.5q51 49 98 59q35 8 80 -6q37 -12 51 -10q27 0 59 24q12 8 27.5 6t25 -14t7.5 -27.5t-15 -25.5q-53 -37 -102 -37q-27 -2 -74 12q-29 10 -43 6 q-27 -6 -61 -41q-12 -10 -26.5 -10t-26 11.5t-11 26zM242 66l8 -13q6 -2 8 -2q2 4 4 17q4 43 -18 135l-2 2q-27 -90 0 -139z" />
<glyph unicode="&#xd2;" d="M77 183.5q-3 64.5 9 127.5q27 104 94 156q61 45 133 25q23 -2 33 -7q90 -33 133 -123q23 8 37 14.5t28.5 2.5t20.5 -18.5t2 -29t-18 -20.5q-18 -10 -47 -18q14 -61 4 -121q-16 -102 -84 -156q-78 -63 -189 -32q-72 18 -112.5 76.5t-43.5 123zM156 293q-20 -82 5 -150.5 t93 -89.5q74 -20 121 21q45 37 57 110q8 48 -2 95q-41 -4 -78 -3q-66 4 -104.5 32t-48.5 73q-29 -35 -43 -88zM187.5 610.5q-5.5 14.5 1 27.5t21 18t26.5 -1q49 -20 133 -43q16 -2 23 -15t4 -28.5t-16 -22.5t-28 -3q-92 23 -145 47q-14 6 -19.5 20.5zM268 412q0 -27 23 -43 q23 -14 67 -19q20 -2 43 0q-23 35 -53 53q-14 -2 -24 5q-12 8 -27 12q-4 0 -8 2h-19q-2 -4 -2 -10z" />
<glyph unicode="&#xd3;" d="M77 183.5q-3 64.5 9 127.5q27 104 94 156q61 45 133 25q23 -2 33 -7q90 -33 133 -123q23 8 37 14.5t28.5 2.5t20.5 -18.5t2 -29t-18 -20.5q-18 -10 -47 -18q14 -61 4 -121q-16 -102 -84 -156q-78 -63 -189 -32q-72 18 -112.5 76.5t-43.5 123zM156 293q-20 -82 5 -150.5 t93 -89.5q74 -20 121 21q45 37 57 110q8 48 -2 95q-41 -4 -78 -3q-66 4 -104.5 32t-48.5 73q-29 -35 -43 -88zM160 578.5q-4 15.5 2 29t22 17.5q63 20 113 57q12 10 27.5 8t24.5 -14t7 -27.5t-14 -23.5q-59 -45 -137 -70q-14 -4 -27.5 2t-17.5 21.5zM268 412q0 -27 23 -43 q23 -14 67 -19q20 -2 43 0q-23 35 -53 53q-14 -2 -24 5q-12 8 -27 12q-4 0 -8 2h-19q-2 -4 -2 -10z" />
<glyph unicode="&#xd4;" d="M77 183.5q-3 64.5 9 127.5q27 104 94 156q61 45 133 25q23 -2 33 -7q90 -33 133 -123q23 8 37 14.5t28.5 2.5t20.5 -18.5t2 -29t-18 -20.5q-18 -10 -47 -18q14 -61 4 -121q-16 -102 -84 -156q-78 -63 -189 -32q-72 18 -112.5 76.5t-43.5 123zM135 584.5q0 15.5 10 25.5 q6 6 68 78q33 39 59 41q33 4 72 -31q4 -2 82 -80q10 -12 10 -26t-11 -25.5t-25.5 -11.5t-26.5 10q-76 78 -78 78q-6 8 -12 10l-7 -6l-4 -4l-4 -4q-63 -72 -69 -78q-10 -12 -25.5 -12t-27 10t-11.5 25.5zM156 293q-20 -82 5 -150.5t93 -89.5q74 -20 121 21q45 37 57 110 q8 48 -2 95q-41 -4 -78 -3q-66 4 -104.5 32t-48.5 73q-29 -35 -43 -88zM268 412q0 -27 23 -43q23 -14 67 -19q20 -2 43 0q-23 35 -53 53q-14 -2 -24 5q-12 8 -27 12q-4 0 -8 2h-19q-2 -4 -2 -10z" />
<glyph unicode="&#xd5;" d="M77 183.5q-3 64.5 9 127.5q27 104 94 156q61 45 133 25q23 -2 33 -7q90 -33 133 -123q23 8 37 14.5t28.5 2.5t20.5 -18.5t2 -29t-18 -20.5q-18 -10 -47 -18q14 -61 4 -121q-16 -102 -84 -156q-78 -63 -189 -32q-72 18 -112.5 76.5t-43.5 123zM142 568.5q-3 15.5 3 27.5 q43 74 91 82q35 8 75 -27q25 -20 31 -20q12 -2 35 26q10 10 25.5 12.5t26.5 -8t13 -25.5t-8 -28q-51 -57 -102 -51q-27 4 -66 37l-18 12q-14 -8 -37 -47q-8 -14 -23.5 -17t-29 4t-16.5 22.5zM156 293q-20 -82 5 -150.5t93 -89.5q74 -20 121 21q45 37 57 110q8 48 -2 95 q-41 -4 -78 -3q-66 4 -104.5 32t-48.5 73q-29 -35 -43 -88zM268 412q0 -27 23 -43q23 -14 67 -19q20 -2 43 0q-23 35 -53 53q-14 -2 -24 5q-12 8 -27 12q-4 0 -8 2h-19q-2 -4 -2 -10z" />
<glyph unicode="&#xd6;" d="M77 183.5q-3 64.5 9 127.5q27 104 94 156q61 45 133 25q23 -2 33 -7q90 -33 133 -123q23 8 37 14.5t28.5 2.5t20.5 -18.5t2 -29t-18 -20.5q-18 -10 -47 -18q14 -61 4 -121q-16 -102 -84 -156q-78 -63 -189 -32q-72 18 -112.5 76.5t-43.5 123zM156 293q-20 -82 5 -150.5 t93 -89.5q74 -20 121 21q45 37 57 110q8 48 -2 95q-41 -4 -78 -3q-66 4 -104.5 32t-48.5 73q-29 -35 -43 -88zM178 596q0 14 11.5 25.5t25.5 11.5t25.5 -11.5t11.5 -25.5t-11.5 -25.5t-25.5 -11.5t-25.5 11.5t-11.5 25.5zM268 412q0 -27 23 -43q23 -14 67 -19q20 -2 43 0 q-23 35 -53 53q-14 -2 -24 5q-12 8 -27 12q-4 0 -8 2h-19q-2 -4 -2 -10zM303 594q0 14 11.5 25.5t25.5 11.5t25.5 -11.5t11.5 -25.5t-11.5 -25.5t-25.5 -11.5t-25.5 11.5t-11.5 25.5z" />
<glyph unicode="&#xd7;" horiz-adv-x="618" d="M275.5 197.5q3.5 15.5 15.5 23.5q61 41 129 103q-51 59 -107 133q-8 12 -6 27.5t14.5 24.5t28 7t25.5 -14q51 -72 100 -129q111 106 135 127q12 10 26.5 10t25 -12.5t10.5 -26.5t-13 -25l-135 -129q61 -63 121 -110q12 -8 14.5 -23.5t-7 -28t-25 -14.5t-27.5 9 q-65 48 -131 118q-74 -68 -137 -108q-12 -8 -27.5 -5t-24 15t-5 27.5z" />
<glyph unicode="&#xd8;" d="M77 183.5q-3 64.5 9 127.5q27 104 94 156q61 45 133 25q23 -2 33 -7q90 -33 133 -123q23 8 37 14.5t28.5 2.5t20.5 -18.5t2 -29t-18 -20.5q-18 -10 -47 -18q14 -61 4 -121q-16 -102 -84 -156q-78 -63 -189 -32q-72 18 -112.5 76.5t-43.5 123zM156 293q-33 -131 37 -203 q4 6 8 10q47 39 170 176h-19q-66 4 -104.5 32t-48.5 73q-29 -35 -43 -88zM260 53q68 -18 115 21q45 37 57 110q4 27 4 54q-137 -150 -176 -185zM268 412q0 -27 23 -43q23 -14 67 -19q20 -2 43 0q-23 35 -53 53q-14 -2 -24 5q-12 8 -27 12q-4 0 -8 2h-19q-2 -4 -2 -10z" />
<glyph unicode="&#xd9;" horiz-adv-x="583" d="M104 188q-10 86 19 285q2 14 14.5 23.5t27.5 7.5t24.5 -14.5t7.5 -28.5q-27 -186 -19 -266q6 -70 35 -105q29 -37 86 -35q47 2 72.5 16.5t46.5 51.5h2l-4 6q-43 88 -35 223q2 27 6 54q4 23 10 38q10 31 33 39q39 18 68 4q29 -12 41 -49q14 -45 2 -129q-8 -63 -27 -135 q-8 -23 -14 -43q41 -55 118 -80q14 -4 21.5 -17.5t3.5 -27.5t-17.5 -21.5t-27.5 -2.5q-82 25 -133 77q-55 -74 -162 -77q-96 -4 -149 63q-41 51 -50 143zM207 678.5q2 15.5 14 25t27.5 7t23.5 -14.5q31 -39 45 -49q18 -14 56 -20q14 -4 22 -16.5t5 -28t-15 -23.5t-29 -6 q-51 10 -84 35q-20 16 -57 63q-10 12 -8 27.5zM455 348q-4 -51 2 -94q8 35 12 65q8 68 0 97l-2 2q-4 -8 -6 -25q-4 -23 -6 -45z" />
<glyph unicode="&#xda;" horiz-adv-x="583" d="M104 188q-10 86 19 285q2 14 14.5 23.5t27.5 7.5t24.5 -14.5t7.5 -28.5q-27 -186 -19 -266q6 -70 35 -105q29 -37 86 -35q47 2 72.5 16.5t46.5 51.5h2l-4 6q-43 88 -35 223q2 27 6 54q4 23 10 38q10 31 33 39q39 18 68 4q29 -12 41 -49q14 -45 2 -129q-8 -63 -27 -135 q-8 -23 -14 -43q41 -55 118 -80q14 -4 21.5 -17.5t3.5 -27.5t-17.5 -21.5t-27.5 -2.5q-82 25 -133 77q-55 -74 -162 -77q-96 -4 -149 63q-41 51 -50 143zM256 544.5q4 14.5 18 22.5q66 35 107 68q10 10 25.5 8t25.5 -13.5t8 -26.5t-14 -25q-45 -37 -119 -76q-12 -6 -26.5 -2 t-21.5 17t-3 27.5zM455 348q-4 -51 2 -94q8 35 12 65q8 68 0 97l-2 2q-4 -8 -6 -25q-4 -23 -6 -45z" />
<glyph unicode="&#xdb;" horiz-adv-x="583" d="M104 188q-10 86 19 285q2 14 14.5 23.5t27.5 7.5t24.5 -14.5t7.5 -28.5q-27 -186 -19 -266q6 -70 35 -105q29 -37 86 -35q47 2 72.5 16.5t46.5 51.5h2l-4 6q-43 88 -35 223q2 27 6 54q4 23 10 38q10 31 33 39q39 18 68 4q29 -12 41 -49q14 -45 2 -129q-8 -63 -27 -135 q-8 -23 -14 -43q41 -55 118 -80q14 -4 21.5 -17.5t3.5 -27.5t-17.5 -21.5t-27.5 -2.5q-82 25 -133 77q-55 -74 -162 -77q-96 -4 -149 63q-41 51 -50 143zM204 584.5q-3 15.5 3 27.5q41 68 67 95q41 37 84 20q25 -10 60 -51q63 -72 63 -74q10 -10 10.5 -25.5t-11 -25.5 t-27 -10t-25.5 12q-2 2 -66 74q-23 27 -30 30l-6 -6q-20 -18 -54 -76q-8 -14 -23.5 -17t-28.5 4t-16 22.5zM455 348q-4 -51 2 -94q8 35 12 65q8 68 0 97l-2 2q-4 -8 -6 -25q-4 -23 -6 -45z" />
<glyph unicode="&#xdc;" horiz-adv-x="583" d="M104 188q-10 86 19 285q2 14 14.5 23.5t27.5 7.5t24.5 -14.5t7.5 -28.5q-27 -186 -19 -266q6 -70 35 -105q29 -37 86 -35q47 2 72.5 16.5t46.5 51.5h2l-4 6q-43 88 -35 223q2 27 6 54q4 23 10 38q10 31 33 39q39 18 68 4q29 -12 41 -49q14 -45 2 -129q-8 -63 -27 -135 q-8 -23 -14 -43q41 -55 118 -80q14 -4 21.5 -17.5t3.5 -27.5t-17.5 -21.5t-27.5 -2.5q-82 25 -133 77q-55 -74 -162 -77q-96 -4 -149 63q-41 51 -50 143zM231 594q0 14 11.5 25.5t26 11.5t25.5 -11.5t11 -25.5t-11 -25.5t-25.5 -11.5t-26 11.5t-11.5 25.5zM340 589.5 q0 14.5 11 26t25.5 11.5t26 -11.5t11.5 -26t-11.5 -25.5t-26 -11t-25.5 11t-11 25.5zM455 348q-4 -51 2 -94q8 35 12 65q8 68 0 97l-2 2q-4 -8 -6 -25q-4 -23 -6 -45z" />
<glyph unicode="&#xdd;" horiz-adv-x="489" d="M106 207q-2 59 7 149q2 18 4 42t4 40.5t2 28.5q0 14 11 24.5t26.5 10.5t26 -11.5t10.5 -27.5q0 -10 -2 -29l-5 -41q-4 -27 -4 -43q-8 -84 -6 -139q4 -74 25 -111q20 -35 63 -34q51 0 84 57q31 53 37 125l10 166v37v16q2 4 2 8q2 8 9 14q8 12 22 13q16 4 29 -6 q8 -6 10 -17q2 -2 2 -4t2 -6q8 -45 25 -383q8 -164 10 -250q2 -55 0 -86v-24q20 -31 31 -68q4 -14 -2.5 -27.5t-21.5 -17.5t-28.5 2t-17.5 23q-4 8 -8 18q-14 -10 -35 -18q-45 -18 -96 -23q-57 -4 -99 12q-55 20 -67 72q-18 82 39 123q45 33 121 20q59 -8 112 -45 q-2 16 -2 39q-2 94 -10 246v22q-4 -10 -10 -18q-53 -94 -148 -94q-84 0 -127 71q-31 53 -35 144zM210 569.5q-5 14.5 1 27.5t20 19q23 8 46.5 24.5t37.5 31.5l43 43q10 12 25.5 12t27 -10t11.5 -25.5t-10 -25.5q-31 -33 -46.5 -47.5t-46 -37t-63.5 -34.5q-14 -4 -27.5 2 t-18.5 20.5zM240 -285q2 -12 20 -20q27 -8 67 -5t72 15l21 10q-47 45 -107 56q-45 6 -65 -9q-16 -12 -8 -47z" />
<glyph unicode="&#xde;" horiz-adv-x="405" d="M47 -113q41 479 6 881q-2 16 8.5 27.5t25.5 13.5t26.5 -8t13.5 -25q8 -86 12 -178q49 49 115 57q63 8 116.5 -25.5t78.5 -103.5q23 -68 -5 -141.5t-86 -134.5q-104 -114 -221 -137q-6 -115 -16 -234q-2 -14 -13.5 -24.5t-26.5 -8.5t-25.5 13.5t-8.5 27.5zM139 188 q88 27 166 111q104 113 74 203q-16 45 -47 64.5t-68 15.5q-39 -4 -72.5 -34t-48.5 -77v-4q2 -136 -4 -279z" />
<glyph unicode="&#xdf;" horiz-adv-x="663" d="M35 58.5q2 15.5 14 24.5t27.5 7t25.5 -14q27 -39 43 -45q4 4 11 12q29 53 39 219q6 100 8 297v113q2 25 2 39q2 20 8 32q25 51 68 72q35 16 90 10q94 -8 147 -61q72 -68 31 -166q-18 -43 -72 -82q57 -12 107 -39q102 -59 127.5 -175t-45.5 -214q-35 -47 -99 -70 q-61 -23 -125 -16q-70 6 -120 45q-54 39 -64 109q-12 -100 -39 -148q-31 -59 -84 -49q-45 6 -94 72q-8 12 -6 27.5zM266 219q6 16 23 29q33 27 84 10q43 -12 77.5 -50t47.5 -91q6 -31 -25 -43q92 4 135 59q49 68 31 153t-92 126q-63 37 -129 39q-4 0 -6 -1t-8.5 -2.5 t-14.5 -3.5q-45 -10 -67 17q-10 14 -9.5 31.5t13.5 29.5q8 8 26 13q2 2 10 4l9 2l8 4q33 18 46 26.5t30.5 23.5t23.5 32q23 53 -10 84q-37 35 -107 41q-35 4 -52 -4t-29 -35q-2 -6 -2 -8q0 -12 -3 -35v-113q-2 -199 -8 -301q-2 -18 -2 -37zM330 193q-2 -2 2 -25 q12 -82 112 -92q-16 6 -20 24q-6 33 -27.5 56.5t-44.5 31.5h-20z" />
<glyph unicode="&#xe0;" horiz-adv-x="659" d="M164 188q12 86 65 174q-12 12 -24 29q-8 12 -5 26.5t15 24t26.5 6t24.5 -15.5l6 -8q39 51 84 80q88 57 170 18q33 -14 43 -47q8 -29 -4 -59q-20 -53 -82 -90q-66 -41 -135 -31q-33 4 -61 20q-39 -72 -49 -137q-12 -70 14 -98q45 -49 106 -14q59 31 101.5 102.5 t50.5 120.5v30v5v2q0 4 2 10t8 10q14 16 35 12q14 -4 23 -16q2 -2 4 -6l2 -8v-4v-13q2 -16 0 -26q4 -88 20 -146q14 -47 33.5 -66.5t46.5 -15.5q16 2 28.5 -7t14.5 -24.5t-7 -27.5t-24 -14q-119 -18 -164 135q-2 8 -4 20l-6 -8q-51 -88 -127 -131q-113 -61 -196 31 q-51 53 -35 157zM328 377q14 -6 30 -8q43 -6 86 20q41 23 52 53q4 8 2 11q0 2 -4 4q-43 20 -97 -17q-36 -22 -69 -63zM373 709.5q-2 15.5 7 28t24.5 14t27.5 -8.5q86 -66 146 -90q14 -6 19 -20.5t0 -28.5t-19.5 -19t-28.5 -1q-68 29 -162 102q-12 8 -14 23.5z" />
<glyph unicode="&#xe1;" horiz-adv-x="659" d="M164 188q12 86 65 174q-12 12 -24 29q-8 12 -5 26.5t15 24t26.5 6t24.5 -15.5l6 -8q39 51 84 80q88 57 170 18q33 -14 43 -47q8 -29 -4 -59q-20 -53 -82 -90q-66 -41 -135 -31q-33 4 -61 20q-39 -72 -49 -137q-12 -70 14 -98q45 -49 106 -14q59 31 101.5 102.5 t50.5 120.5v30v5v2q0 4 2 10t8 10q14 16 35 12q14 -4 23 -16q2 -2 4 -6l2 -8v-4v-13q2 -16 0 -26q4 -88 20 -146q14 -47 33.5 -66.5t46.5 -15.5q16 2 28.5 -7t14.5 -24.5t-7 -27.5t-24 -14q-119 -18 -164 135q-2 8 -4 20l-6 -8q-51 -88 -127 -131q-113 -61 -196 31 q-51 53 -35 157zM325 599.5q3 15.5 17 23.5q41 23 113 90q10 10 25.5 10t25.5 -11.5t10 -26.5t-12 -26q-76 -74 -125 -102q-12 -6 -27.5 -3t-22.5 16.5t-4 29zM328 377q14 -6 30 -8q43 -6 86 20q41 23 52 53q4 8 2 11q0 2 -4 4q-43 20 -97 -17q-36 -22 -69 -63z" />
<glyph unicode="&#xe2;" horiz-adv-x="659" d="M164 188q12 86 65 174q-12 12 -24 29q-8 12 -5 26.5t15 24t26.5 6t24.5 -15.5l6 -8q39 51 84 80q88 57 170 18q33 -14 43 -47q8 -29 -4 -59q-20 -53 -82 -90q-66 -41 -135 -31q-33 4 -61 20q-39 -72 -49 -137q-12 -70 14 -98q45 -49 106 -14q59 31 101.5 102.5 t50.5 120.5v30v5v2q0 4 2 10t8 10q14 16 35 12q14 -4 23 -16q2 -2 4 -6l2 -8v-4v-13q2 -16 0 -26q4 -88 20 -146q14 -47 33.5 -66.5t46.5 -15.5q16 2 28.5 -7t14.5 -24.5t-7 -27.5t-24 -14q-119 -18 -164 135q-2 8 -4 20l-6 -8q-51 -88 -127 -131q-113 -61 -196 31 q-51 53 -35 157zM283 607.5q-2 15.5 6 27.5q51 68 71 88q39 39 76 31q27 -8 62 -47q55 -61 69 -74q10 -12 10.5 -26.5t-11 -26t-26 -11.5t-26.5 11q-14 14 -72 77q-14 16 -20 23l-8 -8q-18 -18 -64 -82q-10 -12 -25.5 -14.5t-27.5 7t-14 25zM328 377q14 -6 30 -8 q43 -6 86 20q41 23 52 53q4 8 2 11q0 2 -4 4q-43 20 -97 -17q-36 -22 -69 -63z" />
<glyph unicode="&#xe3;" horiz-adv-x="659" d="M164 188q12 86 65 174q-12 12 -24 29q-8 12 -5 26.5t15 24t26.5 6t24.5 -15.5l6 -8q39 51 84 80q88 57 170 18q33 -14 43 -47q8 -29 -4 -59q-20 -53 -82 -90q-66 -41 -135 -31q-33 4 -61 20q-39 -72 -49 -137q-12 -70 14 -98q45 -49 106 -14q59 31 101.5 102.5 t50.5 120.5v30v5v2q0 4 2 10t8 10q14 16 35 12q14 -4 23 -16q2 -2 4 -6l2 -8v-4v-13q2 -16 0 -26q4 -88 20 -146q14 -47 33.5 -66.5t46.5 -15.5q16 2 28.5 -7t14.5 -24.5t-7 -27.5t-24 -14q-119 -18 -164 135q-2 8 -4 20l-6 -8q-51 -88 -127 -131q-113 -61 -196 31 q-51 53 -35 157zM264 648.5q0 15.5 12 25.5q45 43 91 49q33 6 75 -8q4 -2 14.5 -5t12.5 -4t10 -3.5t11.5 -2.5t10.5 -1t11 0t10 2t12.5 4.5t12.5 7.5q14 6 28.5 2t21.5 -17.5t3 -28t-17.5 -21.5t-26.5 -12t-23.5 -7t-24.5 -2h-21q-6 0 -19 3t-16 4t-16.5 5t-15.5 6 q-27 8 -43 6q-23 -4 -51 -30q-10 -10 -25.5 -10.5t-26 11t-10.5 27zM328 377q14 -6 30 -8q43 -6 86 20q41 23 52 53q4 8 2 11q0 2 -4 4q-43 20 -97 -17q-36 -22 -69 -63z" />
<glyph unicode="&#xe4;" horiz-adv-x="659" d="M164 188q12 86 65 174q-12 12 -24 29q-8 12 -5 26.5t15 24t26.5 6t24.5 -15.5l6 -8q39 51 84 80q88 57 170 18q33 -14 43 -47q8 -29 -4 -59q-20 -53 -82 -90q-66 -41 -135 -31q-33 4 -61 20q-39 -72 -49 -137q-12 -70 14 -98q45 -49 106 -14q59 31 101.5 102.5 t50.5 120.5v30v5v2q0 4 2 10t8 10q14 16 35 12q14 -4 23 -16q2 -2 4 -6l2 -8v-4v-13q2 -16 0 -26q4 -88 20 -146q14 -47 33.5 -66.5t46.5 -15.5q16 2 28.5 -7t14.5 -24.5t-7 -27.5t-24 -14q-119 -18 -164 135q-2 8 -4 20l-6 -8q-51 -88 -127 -131q-113 -61 -196 31 q-51 53 -35 157zM317 641q0 14 11.5 25.5t26 11.5t25.5 -11.5t11 -25.5t-11 -25.5t-25.5 -11.5t-26 11.5t-11.5 25.5zM328 377q14 -6 30 -8q43 -6 86 20q41 23 52 53q4 8 2 11q0 2 -4 4q-43 20 -97 -17q-36 -22 -69 -63zM453 641q0 14 11 25.5t25.5 11.5t25.5 -11.5 t11 -25.5t-11 -25.5t-25.5 -11.5t-25.5 11.5t-11 25.5z" />
<glyph unicode="&#xe5;" horiz-adv-x="659" d="M164 188q12 86 65 174q-12 12 -24 29q-8 12 -5 26.5t15 24t26.5 6t24.5 -15.5l6 -8q39 51 84 80q88 57 170 18q33 -14 43 -47q8 -29 -4 -59q-20 -53 -82 -90q-66 -41 -135 -31q-33 4 -61 20q-39 -72 -49 -137q-12 -70 14 -98q45 -49 106 -14q59 31 101.5 102.5 t50.5 120.5v30v5v2q0 4 2 10t8 10q14 16 35 12q14 -4 23 -16q2 -2 4 -6l2 -8v-4v-13q2 -16 0 -26q4 -88 20 -146q14 -47 33.5 -66.5t46.5 -15.5q16 2 28.5 -7t14.5 -24.5t-7 -27.5t-24 -14q-119 -18 -164 135q-2 8 -4 20l-6 -8q-51 -88 -127 -131q-113 -61 -196 31 q-51 53 -35 157zM285 631q-2 41 49 78q29 23 72 39q10 23 34.5 22.5t44.5 -2.5h15q10 0 18 -6q37 -10 55 -29q45 -45 5 -104q-29 -41 -89.5 -62.5t-121.5 -5.5q-78 18 -82 70zM328 377q14 -6 30 -8q43 -6 86 20q41 23 52 53q4 8 2 11q0 2 -4 4q-43 20 -97 -17 q-36 -22 -69 -63zM365 639q6 -4 18 -8q41 -10 80 4t55 37l8 14l-4 -6q-2 -2 -7 0t-14 7t-18 7q-57 -8 -106 -45q-8 -6 -12 -10z" />
<glyph unicode="&#xe6;" horiz-adv-x="888" d="M160 188q12 86 65 172v2q-10 12 -22 29q-8 12 -5 26.5t15 24t26.5 6t24.5 -15.5q2 -4 6 -8q39 45 82 74q88 57 170 30q35 -12 47 -45q0 -4 2 -8q27 31 62 47q41 18 85 19.5t80 -24t44 -73.5q8 -57 -19.5 -106t-74.5 -82q-78 -53 -162 -45q6 -49 24 -82q43 -63 105 -80 q96 -27 174 68q10 12 25.5 14t26.5 -8t13 -25.5t-8 -25.5q-53 -66 -118.5 -89.5t-133.5 -5.5q-74 20 -129 89q-4 2 -8 8t-10 16q-14 20 -25 43l-2 -2q-51 -88 -127 -131q-113 -61 -196 31q-51 55 -37 157zM232.5 177q-9.5 -66 17.5 -97q45 -49 106 -14q59 31 103 102 q35 61 47 106q-2 41 6 78q-12 -12 -27 -20q-66 -45 -137 -37q-33 4 -63 20q-43 -72 -52.5 -138zM328 377q14 -6 28 -8q45 -6 88 24q39 25 52 58q2 4 2 8q-47 14 -105 -23q-35 -23 -65 -59zM582 285q61 -12 125 32q72 49 61 115q-4 23 -30.5 33t-71.5 -8q-70 -35 -84 -133 v-13q2 -16 0 -26z" />
<glyph unicode="&#xe7;" horiz-adv-x="489" d="M113.5 286q21.5 77 74.5 140q-10 14 -18 31q-6 14 -2 28.5t17.5 21.5t27.5 3t23 -16q4 -10 8 -17q29 18 57 27q76 20 119 -43q33 -49 6 -92q-25 -37 -78 -37q-55 0 -108 41q-41 -49 -56.5 -108.5t2.5 -123.5q33 -92 142 -80q49 6 95 32t73 59q8 12 23.5 14t27.5 -7 t14 -24.5t-8 -28.5q-35 -45 -95.5 -77.5t-121.5 -38.5q-23 -4 -43 -2q-16 -61 -74 -121q-10 -12 -25.5 -12t-26.5 10t-11 25.5t10 25.5q43 47 55 86q-76 31 -104 115q-25 92 -3.5 169zM297 422q27 -16 51 -16q13 0 17 4q-2 4 -7 10q-12 18 -39 12q-10 -4 -22 -10z" />
<glyph unicode="&#xe8;" horiz-adv-x="518" d="M109 246q12 92 67 174q59 86 129 102q86 18 117 -43q25 -47 -6 -117q-27 -63 -89.5 -111t-142.5 -52h-4q0 -53 27 -86q43 -53 149 -52q90 2 160 107q8 12 23.5 15t28 -5t15.5 -23.5t-5 -27.5q-90 -137 -222 -139q-141 -2 -206 78q-55 70 -41 180zM190 272q53 6 96.5 41 t61.5 78q16 37 8 55l-2 3q-2 2 -10 3t-22 -3q-41 -8 -84 -72q-34 -48 -48 -105zM208 665.5q-3 14.5 5 28t22.5 16.5t28.5 -5q45 -29 125 -62q14 -6 19.5 -20.5t0 -28.5t-19.5 -19.5t-29 -1.5q-86 37 -137 70q-12 8 -15 22.5z" />
<glyph unicode="&#xe9;" horiz-adv-x="518" d="M109 246q12 92 67 174q59 86 129 102q86 18 117 -43q25 -47 -6 -117q-27 -63 -89.5 -111t-142.5 -52h-4q0 -53 27 -86q43 -53 149 -52q90 2 160 107q8 12 23.5 15t28 -5t15.5 -23.5t-5 -27.5q-90 -137 -222 -139q-141 -2 -206 78q-55 70 -41 180zM190 272q53 6 96.5 41 t61.5 78q16 37 8 55l-2 3q-2 2 -10 3t-22 -3q-41 -8 -84 -72q-34 -48 -48 -105zM207 588.5q2 15.5 14 23.5l115 84q12 8 26.5 5t23.5 -15t6 -26.5t-15 -24.5l-111 -80q-12 -10 -27.5 -8t-24.5 14t-7 27.5z" />
<glyph unicode="&#xea;" horiz-adv-x="518" d="M109 246q12 92 67 174q59 86 129 102q86 18 117 -43q25 -47 -6 -117q-27 -63 -89.5 -111t-142.5 -52h-4q0 -53 27 -86q43 -53 149 -52q90 2 160 107q8 12 23.5 15t28 -5t15.5 -23.5t-5 -27.5q-90 -137 -222 -139q-141 -2 -206 78q-55 70 -41 180zM160 594.5 q0 14.5 10 26.5q4 2 20 26l33 53q23 33 37 50q8 12 16 20q6 6 11 8q12 8 24.5 8t24.5 -8q6 -2 10 -8q8 -8 19 -20l38 -56l33 -55l27 -39q8 -12 5 -27.5t-15.5 -23.5t-27.5 -5t-24 15l-26 39l-33 55q-18 29 -31 43l-24 -37l-35 -53q-20 -29 -29 -39q-12 -10 -26.5 -10 t-25.5 11.5t-11 26zM190 272q53 6 96.5 41t61.5 78q16 37 8 55l-2 3q-2 2 -10 3t-22 -3q-41 -8 -84 -72q-34 -48 -48 -105z" />
<glyph unicode="&#xeb;" horiz-adv-x="518" d="M109 246q12 92 67 174q59 86 129 102q86 18 117 -43q25 -47 -6 -117q-27 -63 -89.5 -111t-142.5 -52h-4q0 -53 27 -86q43 -53 149 -52q90 2 160 107q8 12 23.5 15t28 -5t15.5 -23.5t-5 -27.5q-90 -137 -222 -139q-141 -2 -206 78q-55 70 -41 180zM190 272q53 6 96.5 41 t61.5 78q16 37 8 55l-2 3q-2 2 -10 3t-22 -3q-41 -8 -84 -72q-34 -48 -48 -105zM211 624.5q0 14.5 11 26t25.5 11.5t26 -11.5t11.5 -26t-11.5 -25.5t-26 -11t-25.5 11t-11 25.5zM354 624.5q0 14.5 11.5 26t26 11.5t25.5 -11.5t11 -26t-11 -25.5t-25.5 -11t-26 11t-11.5 25.5 z" />
<glyph unicode="&#xec;" horiz-adv-x="256" d="M57.5 695.5q-2.5 15.5 7 27.5t25 14t27.5 -8q25 -18 116 -76q12 -8 15.5 -22.5t-4.5 -27.5t-22.5 -16t-28.5 5q-94 59 -121 80q-12 8 -14.5 23.5zM110 338.5q1 46.5 3 95.5t2 60q0 14 11 25t25.5 11t25.5 -11t11 -25q0 -10 -2 -58.5t-3 -94.5t1 -108q2 -90 13 -135 q6 -18 12 -28q10 4 16 22l6 31q4 31 5 39q4 14 16 22.5t27.5 5t23.5 -15.5t6 -29q-2 -4 -5 -30.5t-9 -42.5q-18 -66 -80 -76q-37 -6 -63 27q-16 20 -25 57q-14 53 -16 151q-2 61 -1 107.5z" />
<glyph unicode="&#xed;" horiz-adv-x="256" d="M58.5 629.5q3.5 15.5 15.5 23.5q29 18 84 88q10 12 24.5 14.5t26.5 -8t14 -24.5t-8 -27q-63 -80 -100 -104q-12 -8 -27.5 -5t-24 15t-5 27.5zM110 338.5q1 46.5 3 95.5t2 60q0 14 11 25t25.5 11t25.5 -11t11 -25q0 -10 -2 -58.5t-3 -94.5t1 -108q2 -90 13 -135 q6 -18 12 -28q10 4 16 22l6 31q4 31 5 39q4 14 16 22.5t27.5 5t23.5 -15.5t6 -29q-2 -4 -5 -30.5t-9 -42.5q-18 -66 -80 -76q-37 -6 -63 27q-16 20 -25 57q-14 53 -16 151q-2 61 -1 107.5z" />
<glyph unicode="&#xee;" horiz-adv-x="256" d="M18.5 571.5q-4.5 14.5 1.5 26.5l25 45q16 31 23 41q27 45 57 51q35 8 74 -33q20 -20 67 -86q10 -12 8 -27.5t-14 -24.5t-27.5 -7t-23.5 14q-47 63 -64 80l-6 6q-4 -4 -8 -10q-6 -12 -22 -41l-23 -41q-8 -14 -22.5 -18t-27.5 3t-17.5 21.5zM112 338.5q1 46.5 3 95.5t2 60 q0 14 11 25t25.5 11t25.5 -11t11 -25q0 -10 -2 -58.5t-3 -94.5t1 -108q2 -90 13 -135q6 -18 12 -28q10 4 16 22l6 31q4 31 5 39q4 14 16 22.5t27.5 5t23.5 -15.5t6 -29q-2 -4 -5 -30.5t-9 -42.5q-18 -66 -80 -76q-37 -6 -63 27q-16 20 -25 57q-14 53 -16 151q-2 61 -1 107.5 z" />
<glyph unicode="&#xef;" horiz-adv-x="256" d="M51 630.5q0 14.5 11.5 26t25.5 11.5t25.5 -11.5t11.5 -26t-11.5 -25.5t-25.5 -11t-25.5 11t-11.5 25.5zM108 338.5q1 46.5 3 95.5t2 60q0 14 11 25t25.5 11t25.5 -11t11 -25q0 -10 -2 -58.5t-3 -94.5t1 -108q2 -90 13 -135q6 -18 12 -28q10 4 16 22l6 31q4 31 4 39 q4 14 16.5 22.5t28 5t23.5 -15.5t6 -29q-2 -4 -5 -30.5t-9 -42.5q-18 -66 -80 -76q-37 -6 -63 27q-16 20 -25 57q-14 53 -16 151q-2 61 -1 107.5zM158 632.5q0 14.5 11 26t25.5 11.5t25.5 -11.5t11 -26t-11 -25.5t-25.5 -11t-25.5 11t-11 25.5z" />
<glyph unicode="&#xf0;" horiz-adv-x="700" d="M319.5 667.5q-4.5 14.5 3 28t21.5 17.5t29 -2q59 -33 106 -78l53 39q12 8 27.5 5t24 -15.5t5.5 -28t-16 -23.5l-43 -30q18 -20 39 -50l17 -20l69 35l64 35q14 6 28.5 2t21.5 -17.5t3 -28t-16 -22.5l-68 -35q-43 -23 -61 -30q109 -176 73 -295q-18 -66 -73.5 -97.5 t-118.5 -29.5q-61 2 -113.5 34.5t-66.5 92.5q-31 135 170 297q12 10 24 18l-10 16q-23 30 -41 50l-80 -68q-12 -10 -26.5 -10t-24.5 12t-10 26.5t12 24.5l78 68q-37 33 -84 57q-12 8 -16.5 22.5zM399 172q8 -31 38 -51.5t73 -20.5q43 -2 75.5 17.5t45.5 56.5q24 89 -66 236 q-12 -8 -22 -17q-164 -133 -144 -221z" />
<glyph unicode="&#xf1;" horiz-adv-x="589" d="M156 457q-4 14 1 28.5t19 19.5t28.5 0t20.5 -20q16 -39 33 -90q35 45 74 72q74 55 145 41q121 -27 156 -223q20 -109 14 -267q0 -14 -11 -24t-26.5 -10t-26 11t-10.5 28q6 150 -12 249q-27 147 -100 162q-39 8 -86 -26.5t-86 -98.5l26 -88q27 -104 21 -162 q-6 -43 -31 -63q-29 -27 -76 -12q-33 8 -53 49q-27 63 -16.5 135.5t49.5 148.5q-27 76 -53 140zM227.5 600.5q0.5 14.5 10.5 26.5q51 49 98 59q35 8 80 -6q37 -12 51 -10q27 0 59 24q12 8 27.5 6t25 -14t7.5 -27.5t-15 -25.5q-53 -37 -102 -37q-27 -2 -74 12q-29 10 -43 6 q-27 -6 -61 -41q-12 -10 -26.5 -10t-26 11.5t-11 26zM242 66l8 -13q6 -2 8 -2q2 4 4 17q4 43 -18 135l-2 2q-27 -90 0 -139z" />
<glyph unicode="&#xf2;" d="M77 183.5q-3 64.5 9 127.5q27 104 94 156q61 45 133 25q23 -2 33 -7q90 -33 133 -123q23 8 37 14.5t28.5 2.5t20.5 -18.5t2 -29t-18 -20.5q-18 -10 -47 -18q14 -61 4 -121q-16 -102 -84 -156q-78 -63 -189 -32q-72 18 -112.5 76.5t-43.5 123zM156 293q-20 -82 5 -150.5 t93 -89.5q74 -20 121 21q45 37 57 110q8 48 -2 95q-41 -4 -78 -3q-66 4 -104.5 32t-48.5 73q-29 -35 -43 -88zM206 638.5q-3 14.5 5 28t22.5 16.5t26.5 -5q78 -47 129 -74q14 -8 18.5 -22.5t-3 -27.5t-21.5 -17.5t-27 2.5q-55 29 -133 77q-14 8 -17 22.5zM268 412 q0 -27 23 -43q23 -14 67 -19q20 -2 43 0q-23 35 -53 53q-14 -2 -24 5q-12 8 -27 12q-4 0 -8 2h-19q-2 -4 -2 -10z" />
<glyph unicode="&#xf3;" d="M77 183.5q-3 64.5 9 127.5q27 104 94 156q61 45 133 25q23 -2 33 -7q90 -33 133 -123q23 8 37 14.5t28.5 2.5t20.5 -18.5t2 -29t-18 -20.5q-18 -10 -47 -18q14 -61 4 -121q-16 -102 -84 -156q-78 -63 -189 -32q-72 18 -112.5 76.5t-43.5 123zM149.5 573.5 q4.5 14.5 18.5 22.5l72 35q41 18 63 35q12 8 27.5 5t23.5 -15.5t5 -28t-15 -23.5q-29 -18 -74 -41q-57 -27 -69.5 -33t-26.5 -2t-21.5 17.5t-3 28zM156 293q-20 -82 5 -150.5t93 -89.5q74 -20 121 21q45 37 57 110q8 48 -2 95q-41 -4 -78 -3q-66 4 -104.5 32t-48.5 73 q-29 -35 -43 -88zM268 412q0 -27 23 -43q23 -14 67 -19q20 -2 43 0q-23 35 -53 53q-14 -2 -24 5q-12 8 -27 12q-4 0 -8 2h-19q-2 -4 -2 -10z" />
<glyph unicode="&#xf4;" d="M77 183.5q-3 64.5 9 127.5q27 104 94 156q61 45 133 25q23 -2 33 -7q90 -33 133 -123q23 8 37 14.5t28.5 2.5t20.5 -18.5t2 -29t-18 -20.5q-18 -10 -47 -18q14 -61 4 -121q-16 -102 -84 -156q-78 -63 -189 -32q-72 18 -112.5 76.5t-43.5 123zM156 293q-20 -82 5 -150.5 t93 -89.5q74 -20 121 21q45 37 57 110q8 48 -2 95q-41 -4 -78 -3q-66 4 -104.5 32t-48.5 73q-29 -35 -43 -88zM164 567.5q-4 14.5 2 28.5q37 63 51 84q31 41 64 43q31 0 63 -37q10 -12 55 -72q8 -12 6 -27.5t-14 -24.5t-27.5 -7t-25.5 14q-41 59 -49 68l-6 6q-2 -2 -4 -6 q-14 -16 -48 -78q-8 -12 -22 -16t-27.5 3t-17.5 21.5zM268 412q0 -27 23 -43q23 -14 67 -19q20 -2 43 0q-23 35 -53 53q-14 -2 -24 5q-12 8 -27 12q-4 0 -8 2h-19q-2 -4 -2 -10z" />
<glyph unicode="&#xf5;" d="M77 183.5q-3 64.5 9 127.5q27 104 94 156q61 45 133 25q23 -2 33 -7q90 -33 133 -123q23 8 37 14.5t28.5 2.5t20.5 -18.5t2 -29t-18 -20.5q-18 -10 -47 -18q14 -61 4 -121q-16 -102 -84 -156q-78 -63 -189 -32q-72 18 -112.5 76.5t-43.5 123zM119 590.5q2 15.5 14 23.5 l27 27q23 23 41 33q12 6 24.5 9t23.5 3t20.5 -2t19.5 -6t16 -6l14 -10l11 -7q20 -10 28 -10q14 -2 31 14q12 10 27.5 8.5t26 -13t8.5 -27t-13 -25.5q-41 -33 -82 -31q-29 0 -63 21q-29 16 -36 19t-19 -3q-10 -4 -25 -20q-25 -25 -35 -31q-12 -10 -27.5 -8t-24.5 14t-7 27.5z M156 293q-20 -82 5 -150.5t93 -89.5q74 -20 121 21q45 37 57 110q8 48 -2 95q-41 -4 -78 -3q-66 4 -104.5 32t-48.5 73q-29 -35 -43 -88zM268 412q0 -27 23 -43q23 -14 67 -19q20 -2 43 0q-23 35 -53 53q-14 -2 -24 5q-12 8 -27 12q-4 0 -8 2h-19q-2 -4 -2 -10z" />
<glyph unicode="&#xf6;" d="M77 183.5q-3 64.5 9 127.5q27 104 94 156q61 45 133 25q23 -2 33 -7q90 -33 133 -123q23 8 37 14.5t28.5 2.5t20.5 -18.5t2 -29t-18 -20.5q-18 -10 -47 -18q14 -61 4 -121q-16 -102 -84 -156q-78 -63 -189 -32q-72 18 -112.5 76.5t-43.5 123zM152 583.5q0 14.5 11 26 t25.5 11.5t25.5 -11.5t11 -26t-11 -25.5t-25.5 -11t-25.5 11t-11 25.5zM156 293q-20 -82 5 -150.5t93 -89.5q74 -20 121 21q45 37 57 110q8 48 -2 95q-41 -4 -78 -3q-66 4 -104.5 32t-48.5 73q-29 -35 -43 -88zM268 412q0 -27 23 -43q23 -14 67 -19q20 -2 43 0 q-23 35 -53 53q-14 -2 -24 5q-12 8 -27 12q-4 0 -8 2h-19q-2 -4 -2 -10zM309 587.5q0 14.5 11.5 26t25.5 11.5t25.5 -11.5t11.5 -26t-11.5 -25.5t-25.5 -11t-25.5 11t-11.5 25.5z" />
<glyph unicode="&#xf7;" horiz-adv-x="471" d="M117 237.5q0 14.5 11.5 25.5t25.5 11q49 0 99 6.5t124 20.5t102 18q16 2 28.5 -7t14.5 -24.5t-7 -27.5t-23 -14l-99 -17q-78 -14 -132 -21t-107 -7q-14 0 -25.5 11t-11.5 25.5zM289 426q0 14 11 25.5t25.5 11.5t25.5 -11.5t11 -25.5t-11 -25.5t-25.5 -11.5t-25.5 11.5 t-11 25.5zM301 123q0 14 11.5 25.5t25.5 11.5t25.5 -11.5t11.5 -25.5t-11.5 -25.5t-25.5 -11.5t-25.5 11.5t-11.5 25.5z" />
<glyph unicode="&#xf8;" d="M77 183.5q-3 64.5 9 127.5q27 104 94 156q61 45 133 25q23 -2 33 -7q90 -33 133 -123q23 8 37 14.5t28.5 2.5t20.5 -18.5t2 -29t-18 -20.5q-18 -10 -47 -18q14 -61 4 -121q-16 -102 -84 -156q-78 -63 -189 -32q-72 18 -112.5 76.5t-43.5 123zM152 172.5 q12 -59.5 53 -92.5q55 77 155 196h-8q-66 4 -104.5 32t-48.5 73q-29 -35 -43 -88q-16 -61 -4 -120.5zM268 412q0 -27 23 -43q23 -14 67 -19q20 -2 43 0q-23 35 -53 53q-14 -2 -24 5q-12 8 -27 12q-4 0 -8 2h-19q-2 -4 -2 -10zM272 49q61 -10 103 25q45 37 57 110q6 33 2 66 q-109 -127 -162 -201z" />
<glyph unicode="&#xf9;" horiz-adv-x="583" d="M104 188q-10 86 19 285q2 14 14.5 23.5t27.5 7.5t24.5 -14.5t7.5 -28.5q-27 -186 -19 -266q6 -70 35 -105q29 -37 86 -35q47 2 72.5 16.5t46.5 51.5h2l-4 6q-43 88 -35 223q2 27 6 54q4 23 10 38q10 31 33 39q39 18 68 4q29 -12 41 -49q14 -45 2 -129q-8 -63 -27 -135 q-8 -23 -14 -43q41 -55 118 -80q14 -4 21.5 -17.5t3.5 -27.5t-17.5 -21.5t-27.5 -2.5q-82 25 -133 77q-55 -74 -162 -77q-96 -4 -149 63q-41 51 -50 143zM207 678.5q2 15.5 14 25t27.5 7t23.5 -14.5q31 -39 45 -49q18 -14 56 -20q14 -4 22 -16.5t5 -28t-15 -23.5t-29 -6 q-51 10 -84 35q-20 16 -57 63q-10 12 -8 27.5zM455 348q-4 -51 2 -94q8 35 12 65q8 68 0 97l-2 2q-4 -8 -6 -25q-4 -23 -6 -45z" />
<glyph unicode="&#xfa;" horiz-adv-x="583" d="M104 188q-10 86 19 285q2 14 14.5 23.5t27.5 7.5t24.5 -14.5t7.5 -28.5q-27 -186 -19 -266q6 -70 35 -105q29 -37 86 -35q47 2 72.5 16.5t46.5 51.5h2l-4 6q-43 88 -35 223q2 27 6 54q4 23 10 38q10 31 33 39q39 18 68 4q29 -12 41 -49q14 -45 2 -129q-8 -63 -27 -135 q-8 -23 -14 -43q41 -55 118 -80q14 -4 21.5 -17.5t3.5 -27.5t-17.5 -21.5t-27.5 -2.5q-82 25 -133 77q-55 -74 -162 -77q-96 -4 -149 63q-41 51 -50 143zM233.5 554.5q4.5 15.5 16.5 23.5q78 43 139 106q12 10 26.5 10t26 -11t11.5 -25.5t-11 -26.5q-70 -68 -155 -119 q-12 -6 -27.5 -2t-23 16.5t-3 28zM455 348q-4 -51 2 -94q8 35 12 65q8 68 0 97l-2 2q-4 -8 -6 -25q-4 -23 -6 -45z" />
<glyph unicode="&#xfb;" horiz-adv-x="583" d="M104 188q-10 86 19 285q2 14 14.5 23.5t27.5 7.5t24.5 -14.5t7.5 -28.5q-27 -186 -19 -266q6 -70 35 -105q29 -37 86 -35q47 2 72.5 16.5t46.5 51.5h2l-4 6q-43 88 -35 223q2 27 6 54q4 23 10 38q10 31 33 39q39 18 68 4q29 -12 41 -49q14 -45 2 -129q-8 -63 -27 -135 q-8 -23 -14 -43q41 -55 118 -80q14 -4 21.5 -17.5t3.5 -27.5t-17.5 -21.5t-27.5 -2.5q-82 25 -133 77q-55 -74 -162 -77q-96 -4 -149 63q-41 51 -50 143zM179 602.5q-3 14.5 5 26.5q47 66 64 84q35 37 69 30q25 -4 60 -41q59 -57 67 -67q12 -10 12.5 -25.5t-10 -27 t-25.5 -11.5t-26.5 10.5t-70.5 69.5q-10 12 -17 17l-6 -6q-12 -14 -55 -74q-10 -12 -24.5 -15.5t-27 6t-15.5 24zM455 348q-4 -51 2 -94q8 35 12 65q8 68 0 97l-2 2q-4 -8 -6 -25q-4 -23 -6 -45z" />
<glyph unicode="&#xfc;" horiz-adv-x="583" d="M104 188q-10 86 19 285q2 14 14.5 23.5t27.5 7.5t24.5 -14.5t7.5 -28.5q-27 -186 -19 -266q6 -70 35 -105q29 -37 86 -35q47 2 72.5 16.5t46.5 51.5h2l-4 6q-43 88 -35 223q2 27 6 54q4 23 10 38q10 31 33 39q39 18 68 4q29 -12 41 -49q14 -45 2 -129q-8 -63 -27 -135 q-8 -23 -14 -43q41 -55 118 -80q14 -4 21.5 -17.5t3.5 -27.5t-17.5 -21.5t-27.5 -2.5q-82 25 -133 77q-55 -74 -162 -77q-96 -4 -149 63q-41 51 -50 143zM231 549q0 14 11.5 25.5t26 11.5t25.5 -11.5t11 -25.5t-11 -25.5t-25.5 -11.5t-26 11.5t-11.5 25.5zM356 553 q0 14 11.5 25.5t26 11.5t25.5 -11.5t11 -25.5t-11 -25.5t-25.5 -11.5t-26 11.5t-11.5 25.5zM455 348q-4 -51 2 -94q8 35 12 65q8 68 0 97l-2 2q-4 -8 -6 -25q-4 -23 -6 -45z" />
<glyph unicode="&#xfd;" horiz-adv-x="489" d="M106 207q-2 59 7 149q2 18 4 42t4 40.5t2 28.5q0 14 11 24.5t26.5 10.5t26 -11.5t10.5 -27.5q0 -10 -2 -29l-5 -41q-4 -27 -4 -43q-8 -84 -6 -139q4 -74 25 -111q20 -35 63 -34q51 0 84 57q31 53 37 125l10 166v37v16q2 4 2 8q2 8 9 14q8 12 22 13q16 4 29 -6 q8 -6 10 -17q2 -2 2 -4t2 -6q8 -45 25 -383q8 -164 10 -250q2 -55 0 -86v-24q20 -31 31 -68q4 -14 -2.5 -27.5t-21.5 -17.5t-28.5 2t-17.5 23q-4 8 -8 18q-14 -10 -35 -18q-45 -18 -96 -23q-57 -4 -99 12q-55 20 -67 72q-18 82 39 123q45 33 121 20q59 -8 112 -45 q-2 16 -2 39q-2 94 -10 246v22q-4 -10 -10 -18q-53 -94 -148 -94q-84 0 -127 71q-31 53 -35 144zM223.5 569.5q2.5 14.5 16.5 24.5q25 18 104 92q10 10 25.5 10t26 -11t10.5 -26.5t-13 -25.5q-82 -78 -112 -101q-12 -8 -26.5 -6t-24 15.5t-7 28zM240 -285q2 -12 20 -20 q27 -8 67 -5t72 15l21 10q-47 45 -107 56q-45 6 -65 -9q-16 -12 -8 -47z" />
<glyph unicode="&#xfe;" horiz-adv-x="491" d="M70 1053q0 14 9 25.5t24.5 12.5t26.5 -8.5t13 -25.5q10 -154 17 -318q135 82 246 45q55 -20 89.5 -66t45.5 -106q20 -127 -77 -230.5t-292 -107.5q2 -143 2 -301q0 -14 -11 -25t-25.5 -11t-26 11t-11.5 25q0 608 -30 1080zM164 653l8 -305q84 2 147.5 26.5t96.5 63.5 t45 81t6 81q-12 88 -86 115q-90 31 -215 -60z" />
<glyph unicode="&#xff;" horiz-adv-x="489" d="M106 207q-2 59 7 149q2 18 4 42t4 40.5t2 28.5q0 14 11 24.5t26.5 10.5t26 -11.5t10.5 -27.5q0 -10 -2 -29l-5 -41q-4 -27 -4 -43q-8 -84 -6 -139q4 -74 25 -111q20 -35 63 -34q51 0 84 57q31 53 37 125l10 166v37v16q2 4 2 8q2 8 9 14q8 12 22 13q16 4 29 -6 q8 -6 10 -17q2 -2 2 -4t2 -6q8 -45 25 -383q8 -164 10 -250q2 -55 0 -86v-24q20 -31 31 -68q4 -14 -2.5 -27.5t-21.5 -17.5t-28.5 2t-17.5 23q-4 8 -8 18q-14 -10 -35 -18q-45 -18 -96 -23q-57 -4 -99 12q-55 20 -67 72q-18 82 39 123q45 33 121 20q59 -8 112 -45 q-2 16 -2 39q-2 94 -10 246v22q-4 -10 -10 -18q-53 -94 -148 -94q-84 0 -127 71q-31 53 -35 144zM223 544.5q0 14.5 11.5 26t25.5 11.5t25.5 -11.5t11.5 -26t-11.5 -25.5t-25.5 -11t-25.5 11t-11.5 25.5zM240 -285q2 -12 20 -20q27 -8 67 -5t72 15l21 10q-47 45 -107 56 q-45 6 -65 -9q-16 -12 -8 -47zM315 538.5q0 14.5 11.5 25.5t26 11t25.5 -11t11 -25.5t-11 -25.5t-25.5 -11t-26 11t-11.5 25.5z" />
<glyph unicode="&#x152;" horiz-adv-x="884" d="M299 240q16 78 61 141q0 23 11 47q25 53 104 55q111 2 166 -86l4 -4q47 66 117 74q41 4 73.5 -19.5t47.5 -58.5q16 -35 5 -77t-54 -66q-41 -25 -127 -29q-16 -2 -31 0q-4 -25 -12 -49l2 -2q10 -80 61 -107q61 -31 168 29q14 6 28.5 2t21.5 -17.5t3 -27.5t-16 -22 q-143 -78 -240 -29q-47 27 -76 80q-72 -98 -186 -74q-84 18 -114.5 88t-16.5 152zM373 225q-12 -61 7 -101t66.5 -50.5t85 17.5t58.5 83q-2 22 -2 47l-43 8q-92 18 -142 60l-8 8q-16 -35 -22 -72zM440 358q4 -6 13 -14q33 -27 106 -43q21 -4 41 -6v4q-4 35 -20 59 q-25 39 -70 50q-6 -14 -21 -17q-25 -8 -49 -33zM676 291q14 -2 26 0q70 2 95 16q31 18 16 53q-14 37 -43 33q-51 -6 -84 -76q-6 -12 -10 -24v-2z" />
<glyph unicode="&#x153;" horiz-adv-x="884" d="M299 240q16 78 61 141q0 23 11 47q25 53 104 55q111 2 166 -86l4 -4q47 66 117 74q41 4 73.5 -19.5t47.5 -58.5q16 -35 5 -77t-54 -66q-41 -25 -127 -29q-16 -2 -31 0q-4 -25 -12 -49l2 -2q10 -80 61 -107q61 -31 168 29q14 6 28.5 2t21.5 -17.5t3 -27.5t-16 -22 q-143 -78 -240 -29q-47 27 -76 80q-72 -98 -186 -74q-84 18 -114.5 88t-16.5 152zM373 225q-12 -61 7 -101t66.5 -50.5t85 17.5t58.5 83q-2 22 -2 47l-43 8q-92 18 -142 60l-8 8q-16 -35 -22 -72zM440 358q4 -6 13 -14q33 -27 106 -43q21 -4 41 -6v4q-4 35 -20 59 q-25 39 -70 50q-6 -14 -21 -17q-25 -8 -49 -33zM676 291q14 -2 26 0q70 2 95 16q31 18 16 53q-14 37 -43 33q-51 -6 -84 -76q-6 -12 -10 -24v-2z" />
<glyph unicode="&#x2000;" horiz-adv-x="682" />
<glyph unicode="&#x2001;" horiz-adv-x="1365" />
<glyph unicode="&#x2002;" horiz-adv-x="682" />
<glyph unicode="&#x2003;" horiz-adv-x="1365" />
<glyph unicode="&#x2004;" horiz-adv-x="455" />
<glyph unicode="&#x2005;" horiz-adv-x="341" />
<glyph unicode="&#x2006;" horiz-adv-x="227" />
<glyph unicode="&#x2007;" horiz-adv-x="227" />
<glyph unicode="&#x2008;" horiz-adv-x="170" />
<glyph unicode="&#x2009;" horiz-adv-x="273" />
<glyph unicode="&#x200a;" horiz-adv-x="75" />
<glyph unicode="&#x2010;" horiz-adv-x="368" d="M98 263.5q-2 15.5 8.5 26.5t24.5 13q47 4 254 4q14 0 25.5 -11t11.5 -25.5t-11.5 -26t-25.5 -11.5q-203 0 -246 -4q-16 -2 -27.5 8.5t-13.5 26z" />
<glyph unicode="&#x2011;" horiz-adv-x="368" d="M98 263.5q-2 15.5 8.5 26.5t24.5 13q47 4 254 4q14 0 25.5 -11t11.5 -25.5t-11.5 -26t-25.5 -11.5q-203 0 -246 -4q-16 -2 -27.5 8.5t-13.5 26z" />
<glyph unicode="&#x2012;" horiz-adv-x="368" d="M98 263.5q-2 15.5 8.5 26.5t24.5 13q47 4 254 4q14 0 25.5 -11t11.5 -25.5t-11.5 -26t-25.5 -11.5q-203 0 -246 -4q-16 -2 -27.5 8.5t-13.5 26z" />
<glyph unicode="&#x2013;" horiz-adv-x="1067" d="M98 263.5q-6 15.5 27 26.5t77 13q149 4 802 4q44 0 80.5 -11t36.5 -25.5t-36.5 -26t-80.5 -11.5q-641 0 -777 -4q-50 -2 -86.5 8.5t-42.5 26z" />
<glyph unicode="&#x2014;" horiz-adv-x="2091" d="M99 263.5q-13 15.5 53.5 26.5t154.5 13q297 4 1604 4q89 0 161.5 -11t72.5 -25.5t-72.5 -26t-161.5 -11.5q-1282 0 -1553 -4q-101 -2 -173.5 8.5t-85.5 26z" />
<glyph unicode="&#x2018;" horiz-adv-x="157" d="M92 918q-6 119 55 202q10 12 25.5 14.5t28 -7t14.5 -25t-6 -27.5q-47 -61 -43 -153q0 -16 -10.5 -27.5t-25.5 -11.5t-26.5 10t-11.5 25z" />
<glyph unicode="&#x2019;" horiz-adv-x="178" d="M111 937q-2 15 6 28q33 43 39 72.5t-2 82.5q-2 16 7 28.5t24.5 14.5t27.5 -7t14 -23q10 -70 0 -113q-10 -45 -49 -100q-10 -12 -25.5 -14.5t-27.5 7t-14 24.5z" />
<glyph unicode="&#x201c;" horiz-adv-x="278" d="M104 881q-53 158 78 272q12 10 26.5 10t25 -12t10 -26.5t-12.5 -24.5q-94 -84 -57 -195q4 -14 -2 -28.5t-20.5 -18.5t-28.5 2t-19 21zM244 862q-53 158 78 273q12 10 26 10t24.5 -12.5t10.5 -27t-12 -24.5q-94 -84 -58 -194q4 -14 -2 -28.5t-20.5 -18.5t-28.5 2t-18 20z " />
<glyph unicode="&#x201d;" horiz-adv-x="258" d="M47 1131.5q2 15.5 14.5 24.5t27.5 7t24 -14q100 -131 18 -283q-8 -12 -22.5 -16t-27.5 3t-17 21.5t2 28.5q59 109 -11 201q-10 12 -8 27.5zM193 1125.5q2 15.5 14 24.5t27.5 7t23.5 -14q100 -131 18 -283q-8 -12 -22 -16t-27.5 3t-17.5 21.5t2 28.5q59 109 -10 201 q-10 12 -8 27.5z" />
<glyph unicode="&#x202f;" horiz-adv-x="273" />
<glyph unicode="&#x205f;" horiz-adv-x="341" />
<glyph unicode="&#x20ac;" horiz-adv-x="489" d="M-10 242.5q2 15.5 14.5 24.5t28.5 7q25 -4 59 -2q18 86 78 154q-10 14 -18 31q-6 14 -2 28.5t17 21.5t27.5 3t22.5 -16q4 -10 8 -17q29 18 58 27q76 20 118 -43q33 -49 7 -92q-25 -37 -78 -37q-55 0 -109 41q-33 -41 -51 -90q31 4 55 4q14 0 25.5 -11.5t11.5 -25.5 t-11 -25.5t-26 -11.5q-25 0 -67 -6q0 -20 4 -41q47 4 84 4q14 0 25.5 -11.5t11.5 -25.5t-11.5 -25.5t-25.5 -11.5q-25 0 -51 -2q41 -41 114 -33q49 6 95.5 32t72.5 59q8 12 23.5 14t28 -7t14.5 -24.5t-8 -28.5q-35 -45 -95.5 -77.5t-122.5 -38.5q-66 -8 -121 15.5t-85 82.5 l-68 -6q-16 -2 -27.5 8t-13.5 25.5t8 27t25 13.5l53 4q-4 18 -4 39q-35 -2 -64 2q-14 2 -23 14t-7 27.5zM279 422q27 -16 51 -16q12 0 16 4q-2 4 -6 10q-12 18 -39 12q-10 -4 -22 -10z" />
<glyph unicode="&#x2122;" horiz-adv-x="1064" d="M204 655.5q-5 14.5 0 28.5t19 21l164 65q4 2 10 2q66 27 107 41q23 8 37 12q8 2 14 4h10q12 0 21.5 -5t15.5 -17q2 -2 4 -6q8 0 15 -4q20 -8 59 -49l65 -78l58 -66v6q2 27 -4 107q-6 76 2 104q8 39 41 45q29 4 59 -20q27 -20 55 -76q12 -20 48 -98q61 -131 102 -162 q12 -8 14 -23.5t-7 -28t-24.5 -14.5t-27.5 9q-55 41 -123 188q-37 76 -47 94q-12 25 -23 39q2 -14 4 -51q6 -88 5 -117q-2 -33 -11 -53q-14 -35 -45 -43q-14 -4 -26 2q-4 2 -9.5 5t-11.5 9q-8 8 -22 25l-62 72l-41 47q2 -16 21 -99q16 -72 14 -116q-2 -18 -5 -26.5t-9 -14.5 q-18 -18 -43 -6q-10 4 -17 14q-2 4 -2 8q-4 10 -10 45q-12 86 -14 96q-4 10 -11 47l-14 70q-8 39 -14 62l-17 -7q-35 -12 -88 -32q-2 -49 11 -133q16 -121 16 -170q0 -14 -11.5 -25.5t-25.5 -11.5t-25.5 11t-11.5 26q0 43 -16 159q-10 74 -10 115q-88 -35 -115 -47 q-14 -4 -28.5 1t-19.5 19.5z" />
<glyph unicode="&#xe000;" horiz-adv-x="501" d="M0 0v502h502v-502h-502z" />
</font>
</defs>
</svg>
